<mxfile host="Electron" agent="Mozilla/5.0 (Macintosh; Intel Mac OS X 10_15_7) AppleWebKit/537.36 (KHTML, like Gecko) draw.io/27.0.5 Chrome/134.0.6998.205 Electron/35.3.0 Safari/537.36" version="27.0.5">
  <diagram id="FbstBVE6JiylST8Hq-xM" name="SAP_Task_Center_L2">
    <mxGraphModel dx="3196" dy="2248" grid="0" gridSize="10" guides="1" tooltips="1" connect="1" arrows="1" fold="1" page="1" pageScale="1" pageWidth="1169" pageHeight="827" background="none" math="0" shadow="0">
      <root>
        <mxCell id="0" />
        <mxCell id="1" parent="0" />
        <mxCell id="3gaZ6STzcAwrb1w61FeG-6" value="&lt;b style=&quot;border-color: var(--border-color); color: rgb(0, 112, 242); font-family: arial; font-size: 16px;&quot;&gt;SAP Task Center - SAP BTP Solution Diagram&lt;/b&gt;" style="text;html=1;align=left;verticalAlign=middle;resizable=0;points=[];autosize=1;strokeColor=none;fillColor=none;fontSize=12;fontColor=#1d2d3e;fontFamily=Helvetica;" parent="1" vertex="1">
          <mxGeometry x="-2199" y="-1533.9999999999998" width="365" height="31" as="geometry" />
        </mxCell>
        <mxCell id="3gaZ6STzcAwrb1w61FeG-27" value="" style="group" parent="1" vertex="1" connectable="0">
          <mxGeometry x="-2315" y="-916" width="641" height="68" as="geometry" />
        </mxCell>
        <mxCell id="3gaZ6STzcAwrb1w61FeG-28" value="&lt;font face=&quot;arial&quot; color=&quot;#475e75&quot;&gt;This BTP Solution Diagram depicts the BTP services setup within a customer&#39;s subaccount for&lt;br&gt;SAP Task Center. It includes user access, key components like SAP Build Work Zone, &lt;br&gt;SAP Cloud Identity Services and other integrated services&lt;br&gt;&lt;/font&gt;" style="text;html=1;align=left;verticalAlign=middle;resizable=0;points=[];autosize=1;strokeColor=none;fillColor=none;fontSize=12;fontColor=#1D2D3E;fontFamily=Helvetica;" parent="3gaZ6STzcAwrb1w61FeG-27" vertex="1">
          <mxGeometry y="13" width="517" height="55" as="geometry" />
        </mxCell>
        <mxCell id="3gaZ6STzcAwrb1w61FeG-29" value="&lt;font face=&quot;arial&quot; color=&quot;#475e75&quot;&gt;&lt;b&gt;Diagram Level: L2&lt;/b&gt;&lt;/font&gt;" style="text;html=1;align=left;verticalAlign=middle;resizable=0;points=[];autosize=1;strokeColor=none;fillColor=none;fontSize=12;fontColor=#1D2D3E;fontFamily=Helvetica;" parent="3gaZ6STzcAwrb1w61FeG-27" vertex="1">
          <mxGeometry y="-4" width="121" height="26" as="geometry" />
        </mxCell>
        <mxCell id="UHaCpyEYQsDfGPqh9ESF-22" value="" style="rounded=0;whiteSpace=wrap;html=1;strokeColor=#eaecee;strokeWidth=1.5;arcSize=16;fillColor=#FFFFFF;perimeterSpacing=0;imageHeight=24;absoluteArcSize=1;points=[];connectable=0;container=0;" parent="1" vertex="1">
          <mxGeometry x="-1510" y="-960.75" width="323" height="114" as="geometry" />
        </mxCell>
        <mxCell id="UHaCpyEYQsDfGPqh9ESF-23" value="&lt;font size=&quot;1&quot; style=&quot;&quot; face=&quot;arial&quot; color=&quot;#1d2d3e&quot;&gt;&lt;b style=&quot;font-size: 12px;&quot;&gt;Legend&lt;/b&gt;&lt;/font&gt;" style="text;html=1;align=left;verticalAlign=top;resizable=0;points=[];autosize=1;strokeColor=none;fillColor=none;fontSize=12;fontColor=default;fontFamily=Helvetica;" parent="1" vertex="1">
          <mxGeometry x="-1489.0017948717948" y="-951.75" width="61" height="26" as="geometry" />
        </mxCell>
        <mxCell id="UHaCpyEYQsDfGPqh9ESF-24" value="&lt;div style=&quot;font-size: 10px; line-height: 100%;&quot;&gt;&lt;span style=&quot;font-family: arial; font-size: 10px; background-color: initial;&quot;&gt;&lt;font style=&quot;font-size: 10px;&quot;&gt;Access&lt;/font&gt;&lt;/span&gt;&lt;/div&gt;" style="text;html=1;align=left;verticalAlign=middle;resizable=0;points=[];autosize=1;strokeColor=none;fillColor=none;fontSize=10;fontColor=#1D2D3E;fontFamily=Helvetica;labelPosition=center;verticalLabelPosition=middle;" parent="1" vertex="1">
          <mxGeometry x="-1470.13" y="-881.75" width="50" height="23" as="geometry" />
        </mxCell>
        <mxCell id="UHaCpyEYQsDfGPqh9ESF-25" value="" style="ellipse;whiteSpace=wrap;html=1;aspect=fixed;strokeColor=none;fillColor=#475E75;fontColor=#475E75;" parent="1" vertex="1">
          <mxGeometry x="-1488.63" y="-877.25" width="16" height="16" as="geometry" />
        </mxCell>
        <mxCell id="UHaCpyEYQsDfGPqh9ESF-26" value="" style="ellipse;whiteSpace=wrap;html=1;aspect=fixed;strokeColor=none;fillColor=#188918;" parent="1" vertex="1">
          <mxGeometry x="-1489" y="-900.25" width="16" height="16" as="geometry" />
        </mxCell>
        <mxCell id="UHaCpyEYQsDfGPqh9ESF-27" value="&lt;div style=&quot;font-size: 10px; line-height: 100%;&quot;&gt;&lt;span style=&quot;font-family: arial; font-size: 10px; background-color: initial;&quot;&gt;&lt;font style=&quot;font-size: 10px;&quot;&gt;Authentication&lt;/font&gt;&lt;/span&gt;&lt;/div&gt;" style="text;html=1;align=left;verticalAlign=middle;resizable=0;points=[];autosize=1;strokeColor=none;fillColor=none;fontSize=10;fontColor=#1D2D3E;fontFamily=Helvetica;labelPosition=center;verticalLabelPosition=middle;" parent="1" vertex="1">
          <mxGeometry x="-1470.5" y="-904.75" width="81" height="23" as="geometry" />
        </mxCell>
        <mxCell id="UHaCpyEYQsDfGPqh9ESF-28" value="" style="ellipse;whiteSpace=wrap;html=1;aspect=fixed;strokeColor=none;fillColor=#7F00FF;fontColor=#475E75;" parent="1" vertex="1">
          <mxGeometry x="-1488.63" y="-923.25" width="16" height="16" as="geometry" />
        </mxCell>
        <mxCell id="UHaCpyEYQsDfGPqh9ESF-29" value="&lt;div style=&quot;font-size: 10px; line-height: 100%;&quot;&gt;&lt;span style=&quot;font-family: arial; font-size: 10px; background-color: initial;&quot;&gt;&lt;font style=&quot;font-size: 10px;&quot;&gt;Provisioning&lt;/font&gt;&lt;/span&gt;&lt;/div&gt;" style="text;html=1;align=left;verticalAlign=middle;resizable=0;points=[];autosize=1;strokeColor=none;fillColor=none;fontSize=10;fontColor=#1D2D3E;fontFamily=Helvetica;labelPosition=center;verticalLabelPosition=middle;" parent="1" vertex="1">
          <mxGeometry x="-1465.3000000000002" y="-927.75" width="72" height="23" as="geometry" />
        </mxCell>
        <mxCell id="UHaCpyEYQsDfGPqh9ESF-35" value="" style="shape=image;verticalLabelPosition=bottom;verticalAlign=top;imageAspect=0;aspect=fixed;image=data:image/svg+xml,PHN2ZyB4bWxucz0iaHR0cDovL3d3dy53My5vcmcvMjAwMC9zdmciIGZpbGw9Im5vbmUiIHZpZXdCb3g9IjAgMCA0OSA0OSIgaGVpZ2h0PSI0OSIgd2lkdGg9IjQ5Ij4mI3hhOzxjaXJjbGUgc3Ryb2tlLXdpZHRoPSIwLjg1NzE0MyIgc3Ryb2tlPSIjRDVEQUREIiBmaWxsPSJ1cmwoI3BhaW50MF9saW5lYXJfMjYyMl8yMDQ3NSkiIHI9IjIzLjU3MTQiIGN5PSIyNC4wMzQ5IiBjeD0iMjQuNSIvPiYjeGE7PHBhdGggZmlsbD0idXJsKCNwYWludDFfcmFkaWFsXzI2MjJfMjA0NzUpIiBkPSJNMjQuMzkzMSAxMi4yMzcxQzIwLjExMDcgMTIuMjM3MSAxNy4wNjgxIDE1LjcyMzEgMTYuNTYxMSAxOS4zNjI1QzE1LjE4MzYgMTkuNDQ0NCAxMy45NjcyIDE5Ljk2MjEgMTMuMDIyNSAyMC44MzE3QzExLjc0NDUgMjIuMDA4MSAxMS4wODQ0IDIzLjcxNTYgMTEuMDg0NCAyNS41MTYzQzExLjA4NDQgMjcuMTg5NyAxMS41OTIgMjguNzcxNSAxMi43MzE2IDI5Ljk0MDlDMTMuNTg2MSAzMC44MTc4IDE0LjcwNzcgMzEuMzcyNCAxNi4wMTcgMzEuNTk4NEMxNi4xMzc2IDMxLjM1MzUgMTYuMjczNSAzMS4xMTY4IDE2LjQyNTIgMzAuODg5MkwxNi40NDEgMzAuODY1NUwxNi40NTQ4IDMwLjg0NjFDMTYuNzA2OSAzMC40OTAxIDE2Ljk5NDggMzAuMTY2IDE3LjMxNjkgMjkuODc2MUMxNy4xODMxIDI5LjQzMTcgMTcuMTE4IDI4Ljk2NDUgMTcuMTE4IDI4LjQ4MzVDMTcuMTE4IDI3Ljg1NDkgMTcuMjM4NiAyNy4yNDEzIDE3LjQ4NDkgMjYuNjU5MkMxNy43MiAyNi4xMDMzIDE4LjA1MTMgMjUuNjAwMSAxOC40ODI0IDI1LjE2OTFDMTguOTE4IDI0LjczMzQgMTkuNDI1IDI0LjM5MTYgMTkuOTkyNiAyNC4xNTE1QzIwLjU3NDcgMjMuOTA1MiAyMS4xODgyIDIzLjc4NDYgMjEuODE2OCAyMy43ODQ2QzIyLjA3NTkgMjMuNzg0NiAyMi4zMzI0IDIzLjgwNTEgMjIuNTg1MyAyMy44NDY0QzIyLjkwNjUgMjMuNjE3OSAyMy4yNTIyIDIzLjQyNTEgMjMuNjIwNCAyMy4yNjkzQzI0LjI4NTEgMjIuOTg4MSAyNC45ODYzIDIyLjg0OTcgMjUuNzA4OSAyMi44NDk3QzI2LjQzMTYgMjIuODQ5NyAyNy4xMzI3IDIyLjk4ODEgMjcuNzk3NSAyMy4yNjkzQzI4LjQ0MzYgMjMuNTQyNyAyOS4wMTc2IDIzLjkzMjYgMjkuNTA0MyAyNC40MzY1QzMwLjAwODIgMjQuOTIzMiAzMC4zOTgxIDI1LjQ5NzIgMzAuNjcxNSAyNi4xNDMzQzMwLjk1MjcgMjYuODA4MSAzMS4wOTExIDI3LjUwOTMgMzEuMDkxMSAyOC4yMzE5QzMxLjA5MTEgMjguOTI1MiAzMC45NjM3IDI5LjU5ODggMzAuNzA1IDMwLjIzOTVDMzEuMTk2OSAzMC42Mjg4IDMxLjYzNDYgMzEuMDg3NyAzMi4wMTUyIDMxLjYxMjdDMzUuMjc5MiAzMS4wNDI2IDM3Ljk5OTkgMjguMzY4IDM3Ljk5OTkgMjQuMzU5MUMzNy45OTk5IDIwLjM3NTEgMzUuMTUyNiAxNy4zMTM1IDMxLjcyNDcgMTYuOTg5N0MzMC4zNTA3IDE0LjE0ODMgMjcuOCAxMi4yMzcxIDI0LjM5MzEgMTIuMjM3MVoiIGNsaXAtcnVsZT0iZXZlbm9kZCIgZmlsbC1ydWxlPSJldmVub2RkIi8+JiN4YTs8cGF0aCBmaWxsPSJ1cmwoI3BhaW50Ml9yYWRpYWxfMjYyMl8yMDQ3NSkiIGQ9Ik0yOC4zMzY4IDMwLjgwNzhDMjkuMzA4MiAzMS4xODk0IDMwLjA5NzQgMzEuODEzOCAzMC43MDQ1IDMyLjY4MTFDMzEuMzExNiAzMy41NDg0IDMxLjYxNTIgMzQuNTI4NSAzMS42MTUyIDM1LjYyMTNWMzcuMTA0NEMzMS42MTUyIDM3LjMxMjUgMzEuNTM3MSAzNy40ODYgMzEuMzgxIDM3LjYyNDdDMzEuMjQyMiAzNy43NjM1IDMxLjA3NzQgMzcuODMyOSAzMC44ODY2IDM3LjgzMjlIMjkuNDAzNkMyOS4xOTU0IDM3LjgzMjkgMjkuMDEzMyAzNy43NjM1IDI4Ljg1NzIgMzcuNjI0N0MyOC43MTg0IDM3LjQ4NiAyOC42NDkgMzcuMzEyNSAyOC42NDkgMzcuMTA0NEMyOC42NDkgMzYuODk2MiAyOC43MTg0IDM2LjcyMjcgMjguODU3MiAzNi41ODRDMjkuMDEzMyAzNi40Mjc5IDI5LjE5NTQgMzYuMzQ5OCAyOS40MDM2IDM2LjM0OThIMzAuMTMyMVYzNS42MjEzQzMwLjEzMjEgMzUuMTE4MiAzMC4wMzY3IDM0LjY0MTIgMjkuODQ1OSAzNC4xOTAyQzI5LjY1NTEgMzMuNzM5MiAyOS4zODYyIDMzLjM0OSAyOS4wMzkzIDMzLjAxOTRDMjguNzA5NyAzMi42NzI1IDI4LjMxOTUgMzIuNDAzNiAyNy44Njg1IDMyLjIxMjhDMjcuNDM0OCAzMi4wMjIgMjYuOTU3OCAzMS45MjY2IDI2LjQzNzUgMzEuOTI2NkgyNC45ODA0QzI0LjQ2IDMxLjkyNjYgMjMuOTc0NCAzMi4wMjIgMjMuNTIzNCAzMi4yMTI4QzIzLjA4OTcgMzIuNDAzNiAyMi42OTk0IDMyLjY3MjUgMjIuMzUyNSAzMy4wMTk0QzIyLjAyMyAzMy4zNDkgMjEuNzYyOCAzMy43MzkyIDIxLjU3MiAzNC4xOTAyQzIxLjM4MTIgMzQuNjQxMiAyMS4yODU4IDM1LjExODIgMjEuMjg1OCAzNS42MjEzVjM2LjM0OThIMjIuMDE0M0MyMi4yMjI0IDM2LjM0OTggMjIuMzk1OSAzNi40Mjc5IDIyLjUzNDcgMzYuNTg0QzIyLjY3MzQgMzYuNzIyNyAyMi43NDI4IDM2Ljg5NjIgMjIuNzQyOCAzNy4xMDQ0QzIyLjc0MjggMzcuMzEyNSAyMi42NzM0IDM3LjQ4NiAyMi41MzQ3IDM3LjYyNDdDMjIuMzk1OSAzNy43NjM1IDIyLjIyMjQgMzcuODMyOSAyMi4wMTQzIDM3LjgzMjlIMjAuNTMxMkMyMC4zNDA0IDM3LjgzMjkgMjAuMTY3IDM3Ljc2MzUgMjAuMDEwOSAzNy42MjQ3QzE5Ljg3MjEgMzcuNDg2IDE5LjgwMjcgMzcuMzEyNSAxOS44MDI3IDM3LjEwNDRMMTkuODAyNyAzNi4wNTAySDE3LjgyMzRDMTcuNjMyOCAzNi4wNTAyIDE3LjQ2MTYgMzUuOTc5NSAxNy4zMTQ2IDM1Ljg0ODhMMTcuMzA3NSAzNS44NDI1QzE3LjE2ODEgMzUuNzAzMSAxNy4wOTk4IDM1LjUyNzEgMTcuMDk5OCAzNS4zMjY1VjM0LjE4MjdDMTcuMDk5OCAzMy43MzkyIDE3LjE2MjEgMzMuMzIxIDE3LjI4ODEgMzIuOTI5MUwxNy4yODkyIDMyLjkyNTlDMTcuNDI3MiAzMi41MjU2IDE3LjYwNzEgMzIuMTU4NiAxNy44MjkzIDMxLjgyNTNMMTcuODMxOCAzMS44MjE1QzE4LjA2NzggMzEuNDg4MyAxOC4zNDU4IDMxLjE5NjQgMTguNjY1MiAzMC45NDYxQzE4LjkyNDIgMzAuNzMyNCAxOS4yMDU5IDMwLjU1NSAxOS41MTAxIDMwLjQxNEMxOS4wMzk4IDI5Ljg4ODUgMTguODA1NSAyOS4yNDE5IDE4LjgwNTUgMjguNDgzNUMxOC44MDU1IDI4LjA3NDUgMTguODgzMiAyNy42ODUxIDE5LjAzOSAyNy4zMTY3QzE5LjE5MzkgMjYuOTUwNyAxOS40MDYgMjYuNjMyIDE5LjY3NTYgMjYuMzYyM0MxOS45NTc5IDI2LjA4MDEgMjAuMjgzIDI1Ljg2MDkgMjAuNjUwMSAyNS43MDU2QzIxLjAxODQgMjUuNTQ5OCAyMS40MDc4IDI1LjQ3MjEgMjEuODE2OCAyNS40NzIxQzIyLjIyNTkgMjUuNDcyMSAyMi42MTUyIDI1LjU0OTggMjIuOTgzNiAyNS43MDU2TDIzLjAwMDggMjUuNzEzQzIzLjAyNzEgMjUuNjg0OSAyMy4wNTM4IDI1LjY1NzMgMjMuMDgxIDI1LjYzQzIzLjQyOCAyNS4yODMxIDIzLjgyNjkgMjUuMDE0MiAyNC4yNzc5IDI0LjgyMzRDMjQuNzI4OSAyNC42MzI2IDI1LjIwNTkgMjQuNTM3MiAyNS43MDg5IDI0LjUzNzJDMjYuMjEyIDI0LjUzNzIgMjYuNjg5IDI0LjYzMjYgMjcuMTQgMjQuODIzNEMyNy41OTA5IDI1LjAxNDIgMjcuOTgxMiAyNS4yODMxIDI4LjMxMDggMjUuNjNDMjguNjU3NyAyNS45NTk2IDI4LjkyNjYgMjYuMzQ5OSAyOS4xMTc0IDI2LjgwMDlDMjkuMzA4MiAyNy4yNTE5IDI5LjQwMzYgMjcuNzI4OSAyOS40MDM2IDI4LjIzMTlDMjkuNDAzNiAyOC43MzQ5IDI5LjMwODIgMjkuMjEyIDI5LjExNzQgMjkuNjYzQzI4LjkyNjYgMzAuMDk2NiAyOC42NjY0IDMwLjQ3ODIgMjguMzM2OCAzMC44MDc4Wk0yMC4wMzY5IDM0LjA2MDFDMTkuOTgyMiAzNC4yMzAxIDE5LjkzNzIgMzQuNDA0MyAxOS45MDE3IDM0LjU4MjdIMTguNTY3MlYzNC4xODI3QzE4LjU2NzIgMzMuODE1NyAxOC42MzY3IDMzLjQ2OTMgMTguNzc1MiAzMy4xNDJDMTguOTE0NiAzMi44MTI0IDE5LjEwMzkgMzIuNTI5IDE5LjM0MjYgMzIuMjkwM0MxOS41OTYyIDMyLjAzNjcgMTkuODgwMyAzMS44NDEyIDIwLjE5NTMgMzEuNzAyNEMyMC41MjE2IDMxLjU2NDUgMjAuODc0MyAzMS40OTQ5IDIxLjI1NDkgMzEuNDk0OUgyMS44NzA4QzIxLjgzMTUgMzEuNTI1NCAyMS43OTI2IDMxLjU1NjYgMjEuNzU0MSAzMS41ODg0QzIxLjM1NTEgMzEuOTAwNiAyMS4wMDgyIDMyLjI2NDggMjAuNzEzNCAzMi42ODExQzIwLjQzNTggMzMuMDk3NCAyMC4yMTAzIDMzLjU1NzEgMjAuMDM2OSAzNC4wNjAxWk0yNS43MDg5IDI2LjAyMDNDMjUuMTAxOCAyNi4wMjAzIDI0LjU4MTUgMjYuMjM3MSAyNC4xNDc4IDI2LjY3MDhDMjMuNzE0MiAyNy4xMDQ0IDIzLjQ5NzMgMjcuNjI0OCAyMy40OTczIDI4LjIzMTlDMjMuNDk3MyAyOC44MzkgMjMuNzE0MiAyOS4zNTk0IDI0LjE0NzggMjkuNzkzQzI0LjU4MTUgMzAuMjI2NyAyNS4xMDE4IDMwLjQ0MzUgMjUuNzA4OSAzMC40NDM1QzI2LjMxNiAzMC40NDM1IDI2LjgzNjQgMzAuMjI2NyAyNy4yNyAyOS43OTNDMjcuNzAzNyAyOS4zNTk0IDI3LjkyMDUgMjguODM5IDI3LjkyMDUgMjguMjMxOUMyNy45MjA1IDI3LjYyNDggMjcuNzAzNyAyNy4xMDQ0IDI3LjI3IDI2LjY3MDhDMjYuODM2NCAyNi4yMzcxIDI2LjMxNiAyNi4wMjAzIDI1LjcwODkgMjYuMDIwM1pNMjIuMDE0MyAyOC4yMzE5QzIyLjAxNDMgMjguODU5NiAyMi4xNDM2IDI5LjQyMTEgMjIuNDAyMyAyOS45MTYzQzIyLjIyMjMgMjkuOTkwNiAyMi4wMjc1IDMwLjAyNzQgMjEuODE2OCAzMC4wMjc0QzIxLjM5MiAzMC4wMjc0IDIxLjAzMTcgMjkuODc3NiAyMC43MjcyIDI5LjU3MzFDMjAuNDIyOCAyOS4yNjg3IDIwLjI3MjkgMjguOTA4MyAyMC4yNzI5IDI4LjQ4MzVDMjAuMjcyOSAyOC4wNTg3IDIwLjQyMjggMjcuNjk4MyAyMC43MjcyIDI3LjM5MzlDMjEuMDMxNyAyNy4wODk0IDIxLjM5MiAyNi45Mzk2IDIxLjgxNjggMjYuOTM5NkMyMS45NjA1IDI2LjkzOTYgMjIuMDk2OSAyNi45NTY3IDIyLjIyNjIgMjYuOTkxMkMyMi4wODQ5IDI3LjM4NTUgMjIuMDE0MyAyNy43OTkxIDIyLjAxNDMgMjguMjMxOVoiIGNsaXAtcnVsZT0iZXZlbm9kZCIgZmlsbC1ydWxlPSJldmVub2RkIi8+JiN4YTs8ZGVmcz4mI3hhOzxsaW5lYXJHcmFkaWVudCBncmFkaWVudFVuaXRzPSJ1c2VyU3BhY2VPblVzZSIgeTI9IjQ0LjI3OTIiIHgyPSI0MS41NjQ1IiB5MT0iNi44NDc3NSIgeDE9IjQuODUyODciIGlkPSJwYWludDBfbGluZWFyXzI2MjJfMjA0NzUiPiYjeGE7PHN0b3Agc3RvcC1jb2xvcj0id2hpdGUiLz4mI3hhOzxzdG9wIHN0b3AtY29sb3I9IiNFQUVDRUUiIG9mZnNldD0iMSIvPiYjeGE7PC9saW5lYXJHcmFkaWVudD4mI3hhOzxyYWRpYWxHcmFkaWVudCBncmFkaWVudFRyYW5zZm9ybT0idHJhbnNsYXRlKDE1LjI1ODMgMTUuOTk1NCkgcm90YXRlKDQzLjg3NzkpIHNjYWxlKDI1Ljg1MjQgNDguODExNykiIGdyYWRpZW50VW5pdHM9InVzZXJTcGFjZU9uVXNlIiByPSIxIiBjeT0iMCIgY3g9IjAiIGlkPSJwYWludDFfcmFkaWFsXzI2MjJfMjA0NzUiPiYjeGE7PHN0b3Agc3RvcC1jb2xvcj0iIzAxOTVGRiIvPiYjeGE7PHN0b3Agc3RvcC1jb2xvcj0iIzExNDdFOSIgb2Zmc2V0PSIxIi8+JiN4YTs8L3JhZGlhbEdyYWRpZW50PiYjeGE7PHJhZGlhbEdyYWRpZW50IGdyYWRpZW50VHJhbnNmb3JtPSJ0cmFuc2xhdGUoMTUuMjUyMiAxNi4wODc2KSByb3RhdGUoNDMuNTYwMikgc2NhbGUoMjUuODcyNyAyMy41NDcxKSIgZ3JhZGllbnRVbml0cz0idXNlclNwYWNlT25Vc2UiIHI9IjEiIGN5PSIwIiBjeD0iMCIgaWQ9InBhaW50Ml9yYWRpYWxfMjYyMl8yMDQ3NSI+JiN4YTs8c3RvcCBzdG9wLWNvbG9yPSIjMTM0OEZGIi8+JiN4YTs8c3RvcCBzdG9wLWNvbG9yPSIjMDYyMzhEIiBvZmZzZXQ9IjEiLz4mI3hhOzwvcmFkaWFsR3JhZGllbnQ+JiN4YTs8L2RlZnM+JiN4YTs8L3N2Zz4=;points=[[0,0,0,0,0],[0,0.25,0,0,0],[0,0.5,0,0,0],[0,0.75,0,0,0],[0.25,0,0,0,0],[0.5,0,0,0,0],[0.75,0,0,0,0],[1,0,0,0,0],[1,0.25,0,0,0],[1,0.5,0,0,0],[1,0.75,0,0,0]];" parent="1" vertex="1">
          <mxGeometry x="-1389.5" y="-923.25" width="16" height="16" as="geometry" />
        </mxCell>
        <mxCell id="UHaCpyEYQsDfGPqh9ESF-37" value="&lt;div style=&quot;font-size: 10px; line-height: 100%;&quot;&gt;&lt;span style=&quot;font-family: arial; font-size: 10px; background-color: initial;&quot;&gt;&lt;font style=&quot;font-size: 10px;&quot;&gt;Service&lt;/font&gt;&lt;/span&gt;&lt;/div&gt;" style="text;html=1;align=left;verticalAlign=middle;resizable=0;points=[];autosize=1;strokeColor=none;fillColor=none;fontSize=10;fontColor=#1D2D3E;fontFamily=Helvetica;labelPosition=center;verticalLabelPosition=middle;" parent="1" vertex="1">
          <mxGeometry x="-1365.5" y="-927.75" width="51" height="23" as="geometry" />
        </mxCell>
        <mxCell id="UHaCpyEYQsDfGPqh9ESF-38" value="" style="endArrow=blockThin;html=1;strokeColor=#188918;bendable=1;rounded=0;endFill=1;endSize=4;strokeWidth=1.5;startSize=4;startArrow=blockThin;startFill=1;entryX=0.04;entryY=0.52;entryDx=0;entryDy=0;entryPerimeter=0;" parent="1" edge="1">
          <mxGeometry width="50" height="50" relative="1" as="geometry">
            <mxPoint x="-1295" y="-918.97" as="sourcePoint" />
            <mxPoint x="-1273" y="-918.97" as="targetPoint" />
            <Array as="points" />
          </mxGeometry>
        </mxCell>
        <mxCell id="UHaCpyEYQsDfGPqh9ESF-39" value="&lt;div style=&quot;font-size: 10px; line-height: 100%;&quot;&gt;&lt;span style=&quot;font-family: arial; font-size: 10px; background-color: initial;&quot;&gt;&lt;font style=&quot;font-size: 10px;&quot;&gt;Mutual Trust&lt;/font&gt;&lt;/span&gt;&lt;/div&gt;" style="text;html=1;align=left;verticalAlign=middle;resizable=0;points=[];autosize=1;strokeColor=none;fillColor=none;fontSize=10;fontColor=#1D2D3E;fontFamily=Helvetica;labelPosition=center;verticalLabelPosition=middle;" parent="1" vertex="1">
          <mxGeometry x="-1264" y="-931.25" width="73" height="23" as="geometry" />
        </mxCell>
        <mxCell id="UHaCpyEYQsDfGPqh9ESF-40" value="" style="endArrow=none;html=1;strokeColor=#188918;bendable=1;rounded=0;endFill=0;endSize=3;strokeWidth=1.5;dashed=1;" parent="1" edge="1">
          <mxGeometry width="50" height="50" relative="1" as="geometry">
            <mxPoint x="-1272.75" y="-894.28" as="sourcePoint" />
            <mxPoint x="-1293.75" y="-894.28" as="targetPoint" />
            <Array as="points" />
          </mxGeometry>
        </mxCell>
        <mxCell id="UHaCpyEYQsDfGPqh9ESF-41" value="&lt;div style=&quot;font-size: 10px; line-height: 100%;&quot;&gt;&lt;span style=&quot;font-family: arial; font-size: 10px; background-color: initial;&quot;&gt;&lt;font style=&quot;font-size: 10px;&quot;&gt;Optional&lt;/font&gt;&lt;/span&gt;&lt;/div&gt;" style="text;html=1;align=left;verticalAlign=middle;resizable=0;points=[];autosize=1;strokeColor=none;fillColor=none;fontSize=10;fontColor=#1D2D3E;fontFamily=Helvetica;labelPosition=center;verticalLabelPosition=middle;" parent="1" vertex="1">
          <mxGeometry x="-1264" y="-907.25" width="55" height="23" as="geometry" />
        </mxCell>
        <mxCell id="BOSDDkHsfuaanqrSLqfU-1" value="" style="group" parent="1" vertex="1" connectable="0">
          <mxGeometry x="-2228" y="-1483" width="973.5" height="443.31999999999994" as="geometry" />
        </mxCell>
        <mxCell id="BOSDDkHsfuaanqrSLqfU-2" value="" style="rounded=1;whiteSpace=wrap;html=1;strokeColor=#0070F2;strokeWidth=1.5;arcSize=16;fillColor=#FFFFFF;perimeterSpacing=0;absoluteArcSize=1;" parent="BOSDDkHsfuaanqrSLqfU-1" vertex="1">
          <mxGeometry x="799" y="2" width="153" height="153.12" as="geometry" />
        </mxCell>
        <mxCell id="BOSDDkHsfuaanqrSLqfU-3" value="&lt;p style=&quot;line-height: 110%;&quot;&gt;&lt;font face=&quot;arial&quot; style=&quot;font-size: 16px;&quot;&gt;&lt;b style=&quot;font-size: 16px;&quot;&gt;SAP On-Premise &lt;br&gt;Solutions&lt;/b&gt;&lt;/font&gt;&lt;/p&gt;" style="text;html=1;align=left;verticalAlign=middle;resizable=0;points=[];autosize=1;strokeColor=none;fillColor=none;fontSize=12;fontColor=#1d2d3e;fontFamily=Helvetica;" parent="BOSDDkHsfuaanqrSLqfU-1" vertex="1">
          <mxGeometry x="808.0699999999999" y="26.12000000000012" width="145" height="66" as="geometry" />
        </mxCell>
        <mxCell id="BOSDDkHsfuaanqrSLqfU-4" value="" style="shape=image;verticalLabelPosition=bottom;labelBackgroundColor=default;verticalAlign=top;aspect=fixed;imageAspect=0;image=data:image/svg+xml,PHN2ZyB4bWxucz0iaHR0cDovL3d3dy53My5vcmcvMjAwMC9zdmciIGZpbGw9Im5vbmUiIHZpZXdCb3g9IjAgMCAxNiAxNyIgaGVpZ2h0PSIxNyIgd2lkdGg9IjE2Ij4mI3hhOzxwYXRoIGZpbGw9InVybCgjcGFpbnQwX2xpbmVhcl83MjRfMTIpIiBkPSJNMTQuMzMzNSA1LjgzNDk0QzE0LjU4MzUgNi4wODQ5NCAxNC43ODE0IDYuMzc2NjEgMTQuOTI3MiA2LjcwOTk0QzE1LjA5MzkgNy4wMjI0NCAxNS4xNzcyIDcuMzY2MTkgMTUuMTc3MiA3Ljc0MTE5VjE0LjQyODdDMTUuMTc3MiAxNS4xMzcgMTQuOTM3NiAxNS43MjA0IDE0LjQ1ODUgMTYuMTc4N0MxMy45NzkzIDE2LjY1NzkgMTMuMzg1NSAxNi44OTc1IDEyLjY3NzIgMTYuODk3NUgyLjc3MDk0QzIuMDgzNDQgMTYuODk3NSAxLjUwMDExIDE2LjY1NzkgMS4wMjA5NCAxNi4xNzg3QzAuNTQxNzY4IDE1LjcyMDQgMC4zMDIxODUgMTUuMTM3IDAuMzAyMTg1IDE0LjQyODdWNy43NDExOUMwLjMwMjE4NSA2Ljk0OTUyIDAuNTgzNDM1IDYuMzE0MTEgMS4xNDU5NCA1LjgzNDk0TDYuMDgzNDQgMS41NTM2OUM2LjU4MzQ0IDEuMTM3MDIgNy4xNDU5NCAwLjkyODY4OCA3Ljc3MDk0IDAuOTI4Njg4QzguMzk1OTQgMC45Mjg2ODggOC45Mzc2MSAxLjEzNzAyIDkuMzk1OTQgMS41NTM2OUwxNC4zMzM1IDUuODM0OTRaTTguOTg5NjkgMTAuMzAzN0g2LjQ4OTY5VjE1LjI3MjVIOC45ODk2OVYxMC4zMDM3Wk0xMy40MjcyIDcuNzQxMTlDMTMuNDI3MiA3LjQ3MDM2IDEzLjM0MzkgNy4yNTE2MSAxMy4xNzcyIDcuMDg0OTRMOC4yMzk2OSAyLjgwMzY5QzcuODg1NTIgMi41MzI4NiA3LjUyMDk0IDIuNTMyODYgNy4xNDU5NCAyLjgwMzY5TDIuMjA4NDQgNy4wODQ5NEMyLjA0MTc3IDcuMjUxNjEgMS45NTg0NCA3LjQ3MDM2IDEuOTU4NDQgNy43NDExOVYxNC40Mjg3QzEuOTU4NDQgMTQuNjc4NyAyLjAzMTM2IDE0Ljg4NyAyLjE3NzE5IDE1LjA1MzdDMi4zNDM4NiAxNS4xOTk1IDIuNTQxNzcgMTUuMjcyNSAyLjc3MDk0IDE1LjI3MjVINC44MzM0NFYxMC4zMDM3QzQuODMzNDQgOS44NDUzNiA0Ljk4OTY5IDkuNDU5OTQgNS4zMDIxOSA5LjE0NzQ0QzUuNjM1NTIgOC44MTQxMSA2LjAzMTM2IDguNjQ3NDQgNi40ODk2OSA4LjY0NzQ0SDguOTg5NjlDOS40NDgwMiA4LjY0NzQ0IDkuODMzNDkgOC44MTQxMSAxMC4xNDU5IDkuMTQ3NDRDMTAuNDU4NSA5LjQ1OTk0IDEwLjYxNDcgOS44NDUzNiAxMC42MTQ3IDEwLjMwMzdWMTUuMjcyNUgxMi42NzcyQzEyLjkyNzIgMTUuMjcyNSAxMy4xMjUxIDE1LjE5OTUgMTMuMjcwOSAxNS4wNTM3QzEzLjQzNzYgMTQuODg3IDEzLjUyMDkgMTQuNjc4NyAxMy41MjA5IDE0LjQyODdMMTMuNDI3MiA3Ljc0MTE5WiIvPiYjeGE7PGRlZnM+JiN4YTs8bGluZWFyR3JhZGllbnQgZ3JhZGllbnRVbml0cz0idXNlclNwYWNlT25Vc2UiIHkyPSI5Ljg1NDkiIHgyPSIxNS44MTkzIiB5MT0iMi40MzA4NCIgeDE9IjIuMjI0NjQiIGlkPSJwYWludDBfbGluZWFyXzcyNF8xMiI+JiN4YTs8c3RvcCBzdG9wLWNvbG9yPSIjMjM5NUZGIi8+JiN4YTs8c3RvcCBzdG9wLWNvbG9yPSIjMDA1N0QyIiBvZmZzZXQ9IjEiLz4mI3hhOzwvbGluZWFyR3JhZGllbnQ+JiN4YTs8L2RlZnM+JiN4YTs8L3N2Zz4=;strokeWidth=1.5;" parent="BOSDDkHsfuaanqrSLqfU-1" vertex="1">
          <mxGeometry x="809.8899999999999" y="9.620000000000118" width="26.36" height="28" as="geometry" />
        </mxCell>
        <mxCell id="BOSDDkHsfuaanqrSLqfU-5" value="&lt;span style=&quot;font-family: Helvetica; font-style: normal; font-variant-ligatures: normal; font-variant-caps: normal; font-weight: 700; letter-spacing: normal; orphans: 2; text-indent: 0px; text-transform: none; widows: 2; word-spacing: 0px; -webkit-text-stroke-width: 0px; text-decoration-thickness: initial; text-decoration-style: initial; text-decoration-color: initial; float: none; font-size: 10px; display: inline !important;&quot;&gt;&lt;font style=&quot;font-size: 10px;&quot;&gt;SAP S/4HANA&lt;/font&gt;&lt;/span&gt;" style="text;whiteSpace=wrap;html=1;align=left;container=0;verticalAlign=middle;fontColor=#1D2D3E;fontSize=10;" parent="BOSDDkHsfuaanqrSLqfU-1" vertex="1">
          <mxGeometry x="808.0699999999999" y="73.98999999999978" width="74.25" height="22" as="geometry" />
        </mxCell>
        <mxCell id="BOSDDkHsfuaanqrSLqfU-6" value="" style="rounded=1;whiteSpace=wrap;html=1;strokeColor=#0070F2;strokeWidth=1.5;arcSize=16;fillColor=#FFFFFF;perimeterSpacing=0;absoluteArcSize=1;" parent="BOSDDkHsfuaanqrSLqfU-1" vertex="1">
          <mxGeometry x="798.9300000000001" y="161.1199999999999" width="153" height="68.89" as="geometry" />
        </mxCell>
        <mxCell id="BOSDDkHsfuaanqrSLqfU-7" value="" style="shape=image;verticalLabelPosition=bottom;labelBackgroundColor=default;verticalAlign=top;imageAspect=0;image=data:image/svg+xml,PHN2ZyB4bWxucz0iaHR0cDovL3d3dy53My5vcmcvMjAwMC9zdmciIGZpbGw9Im5vbmUiIHZpZXdCb3g9IjAgMCAxNyAxMiIgaGVpZ2h0PSIxMiIgd2lkdGg9IjE3Ij4mI3hhOzxwYXRoIGZpbGw9InVybCgjcGFpbnQwX2xpbmVhcl83MjRfMTQpIiBkPSJNMTIuMzQ2MSAxMS45OTc0SDMuODE0ODVDMy4zNTY1MiAxMS45OTc0IDIuOTE5MDIgMTEuOTAzNiAyLjUwMjM1IDExLjcxNjJDMi4wODU2OCAxMS41MDc4IDEuNzIxMSAxMS4yMzcgMS40MDg2IDEwLjkwMzZDMS4wOTYxIDEwLjU0OTUgMC44NDYxIDEwLjE0MzIgMC42NTg2IDkuNjg0OTFDMC40OTE5MyA5LjIyNjYxIDAuNDA4NiA4LjczNzAxIDAuNDA4NiA4LjIxNjIxQzAuNDA4NiA3LjcxNjE2IDAuNDkxOTMgNy4yMzY5OSAwLjY1ODYgNi43Nzg2NkMwLjg0NjEgNi4zMjAzMyAxLjA4NTY4IDUuOTI0NDkgMS4zNzczNSA1LjU5MTE2QzEuNjY5MDIgNS4yMzY5OSAyLjAxMjc3IDQuOTY2MTYgMi40MDg2IDQuNzc4NjZDMi44MjUyNyA0LjU3MDMzIDMuMjYyNzcgNC40NjYxNiAzLjcyMTEgNC40NjYxNkMzLjgyNTI3IDMuODQxMTYgNC4wMTI3NyAzLjI1NzgzIDQuMjgzNiAyLjcxNjE2QzQuNTU0NDMgMi4xNTM2NiA0Ljg5ODE4IDEuNjc0NDkgNS4zMTQ4NSAxLjI3ODY2QzUuNzMxNTIgMC44ODI4MzQgNi4yMDAyNyAwLjU3MDMzNCA2LjcyMTEgMC4zNDExNjRDNy4yNjI3NyAwLjExMTk5NCA3LjgyNTI3IC0wLjAwMjU4NjM2IDguNDA4NiAtMC4wMDI1ODYzNkM5LjMwNDQzIC0wLjAwMjU4NjM2IDEwLjEzNzcgMC4yNjgyNDQgMTAuOTA4NiAwLjgwOTkxNEMxMS42Nzk0IDEuMzUxNTggMTIuMjczMSAyLjA4MDc0IDEyLjY4OTggMi45OTc0MUMxMy4yMTA2IDMuMDM5MDggMTMuNzAwMiAzLjE4NDkxIDE0LjE1ODYgMy40MzQ5MUMxNC42MTY5IDMuNjg0OTEgMTUuMDEyOCA0LjAxODI0IDE1LjM0NjEgNC40MzQ5MUMxNS42Nzk1IDQuODMwNzQgMTUuOTM5OCA1LjI4OTA4IDE2LjEyNzMgNS44MDk5MUMxNi4zMTQ4IDYuMzMwNzQgMTYuNDA4NiA2Ljg5MzI0IDE2LjQwODYgNy40OTc0MUMxNi40MDg2IDguMTIyNDEgMTYuMzA0NSA4LjcxNjIxIDE2LjA5NjEgOS4yNzg2MUMxNS44ODc4IDkuODIwMzEgMTUuNTk2MSAxMC4yOTk1IDE1LjIyMTEgMTAuNzE2MkMxNC44NjcgMTEuMTEyIDE0LjQzOTggMTEuNDI0NSAxMy45Mzk4IDExLjY1MzZDMTMuNDM5OCAxMS44ODI4IDEyLjkwODcgMTEuOTk3NCAxMi4zNDYxIDExLjk5NzRaTTMuODE0ODUgNi4wNTk5MUMzLjMxNDg1IDYuMDU5OTEgMi44ODc3NyA2LjI2ODI0IDIuNTMzNiA2LjY4NDkxQzIuMTc5NDMgNy4xMDE1OCAyLjAwMjM1IDcuNjExOTkgMi4wMDIzNSA4LjIxNjIxQzIuMDAyMzUgOC44MjAzMSAyLjE3OTQzIDkuMzQxMjEgMi41MzM2IDkuNzc4NjFDMi44ODc3NyAxMC4xOTUzIDMuMzE0ODUgMTAuNDAzNiAzLjgxNDg1IDEwLjQwMzZIMTIuMzQ2MUMxMy4wMzM3IDEwLjQwMzYgMTMuNjE3IDEwLjEyMjQgMTQuMDk2MSA5LjU1OTkxQzE0LjU3NTMgOC45OTc0MSAxNC44MTQ4IDguMzA5OTEgMTQuODE0OCA3LjQ5NzQxQzE0LjgxNDggNi42NjQwOCAxNC41NzUzIDUuOTY2MTYgMTQuMDk2MSA1LjQwMzY2QzEzLjYxNyA0Ljg0MTE2IDEzLjAzMzcgNC41NTk5MSAxMi4zNDYxIDQuNTU5OTFIMTIuMTI3M0MxMS43NzMxIDQuNTU5OTEgMTEuNTIzMSA0LjM4MjgzIDExLjM3NzMgNC4wMjg2NkMxMS4xMjczIDMuMjk5NDkgMTAuNzMxNSAyLjcxNjE2IDEwLjE4OTggMi4yNzg2NkM5LjY0ODE1IDEuODIwMzMgOS4wNTQ0MyAxLjU5MTE2IDguNDA4NiAxLjU5MTE2QzcuOTcxMSAxLjU5MTE2IDcuNTY0ODUgMS42OTUzMyA3LjE4OTg1IDEuOTAzNjZDNi44MTQ4NSAyLjA5MTE2IDYuNDgxNTIgMi4zNTE1OCA2LjE4OTg1IDIuNjg0OTFDNS45MTkwMiAyLjk5NzQxIDUuNzAwMjcgMy4zODI4MyA1LjUzMzYgMy44NDExNkM1LjM2NjkzIDQuMjc4NjYgNS4yODM2IDQuNzQ3NDEgNS4yODM2IDUuMjQ3NDFDNS4yODM2IDUuNDc2NTggNS4yMDAyNyA1LjY3NDQ5IDUuMDMzNiA1Ljg0MTE2QzQuODg3NzcgNS45ODY5OSA0LjcwMDI3IDYuMDU5OTEgNC40NzExIDYuMDU5OTFIMy44MTQ4NVoiLz4mI3hhOzxkZWZzPiYjeGE7PGxpbmVhckdyYWRpZW50IGdyYWRpZW50VW5pdHM9InVzZXJTcGFjZU9uVXNlIiB5Mj0iMTAuMzM3MyIgeDI9IjE0LjI2MDIiIHkxPSIxLjEyNjIzIiB4MT0iMi40NzY0NiIgaWQ9InBhaW50MF9saW5lYXJfNzI0XzE0Ij4mI3hhOzxzdG9wIHN0b3AtY29sb3I9IiMyMzk1RkYiLz4mI3hhOzxzdG9wIHN0b3AtY29sb3I9IiMwMDU3RDIiIG9mZnNldD0iMSIvPiYjeGE7PC9saW5lYXJHcmFkaWVudD4mI3hhOzwvZGVmcz4mI3hhOzwvc3ZnPg==;strokeWidth=1.5;aspect=fixed;" parent="BOSDDkHsfuaanqrSLqfU-1" vertex="1">
          <mxGeometry x="809" y="166.01" width="28" height="17.89" as="geometry" />
        </mxCell>
        <mxCell id="BOSDDkHsfuaanqrSLqfU-8" value="&lt;font face=&quot;arial&quot;&gt;&lt;span style=&quot;font-size: 16px;&quot;&gt;&lt;b&gt;3rd Party&amp;nbsp;&lt;/b&gt;&lt;/span&gt;&lt;/font&gt;&lt;div&gt;&lt;font face=&quot;arial&quot;&gt;&lt;span style=&quot;font-size: 16px;&quot;&gt;&lt;b&gt;Applications&lt;/b&gt;&lt;/span&gt;&lt;/font&gt;&lt;/div&gt;" style="text;html=1;align=left;verticalAlign=middle;resizable=0;points=[];autosize=1;strokeColor=none;fillColor=none;fontSize=12;fontColor=#1d2d3e;fontFamily=Helvetica;" parent="BOSDDkHsfuaanqrSLqfU-1" vertex="1">
          <mxGeometry x="808.9989403973509" y="180.01410714285748" width="114" height="50" as="geometry" />
        </mxCell>
        <mxCell id="BOSDDkHsfuaanqrSLqfU-11" value="" style="group" parent="BOSDDkHsfuaanqrSLqfU-1" vertex="1" connectable="0">
          <mxGeometry x="765" y="243.00410714285726" width="194" height="143.99589285714262" as="geometry" />
        </mxCell>
        <mxCell id="BOSDDkHsfuaanqrSLqfU-12" value="" style="rounded=1;whiteSpace=wrap;html=1;strokeColor=#0070F2;strokeWidth=1.5;arcSize=16;fillColor=#FFFFFF;perimeterSpacing=0;absoluteArcSize=1;" parent="BOSDDkHsfuaanqrSLqfU-11" vertex="1">
          <mxGeometry x="36" y="-0.004107142857378676" width="153" height="144" as="geometry" />
        </mxCell>
        <mxCell id="BOSDDkHsfuaanqrSLqfU-13" value="&lt;font face=&quot;arial&quot; style=&quot;font-size: 16px;&quot;&gt;&lt;b style=&quot;font-size: 16px;&quot;&gt;SAP Cloud &lt;br&gt;Solutions&lt;/b&gt;&lt;/font&gt;" style="text;html=1;align=left;verticalAlign=middle;resizable=0;points=[];autosize=1;strokeColor=none;fillColor=none;fontSize=12;fontColor=#1d2d3e;fontFamily=Helvetica;" parent="BOSDDkHsfuaanqrSLqfU-11" vertex="1">
          <mxGeometry x="48.15894039735099" y="30.000000000000114" width="100" height="50" as="geometry" />
        </mxCell>
        <mxCell id="BOSDDkHsfuaanqrSLqfU-14" value="&lt;div style=&quot;&quot;&gt;&lt;span style=&quot;font-size: 10px;&quot;&gt;*check SAP Help portal for &lt;br&gt;list of supported solutions for&lt;br&gt;manual integration or &lt;br&gt;as content channel&lt;/span&gt;&lt;/div&gt;" style="text;html=1;align=left;verticalAlign=middle;resizable=0;points=[];autosize=1;strokeColor=none;fillColor=none;fontSize=12;fontColor=#556B82;fontFamily=Helvetica;" parent="BOSDDkHsfuaanqrSLqfU-11" vertex="1">
          <mxGeometry x="49.172185430463514" y="73.49524999999983" width="145" height="70" as="geometry" />
        </mxCell>
        <mxCell id="BOSDDkHsfuaanqrSLqfU-15" value="" style="shape=image;verticalLabelPosition=bottom;labelBackgroundColor=default;verticalAlign=top;imageAspect=0;image=data:image/svg+xml,PHN2ZyB4bWxucz0iaHR0cDovL3d3dy53My5vcmcvMjAwMC9zdmciIGZpbGw9Im5vbmUiIHZpZXdCb3g9IjAgMCAxNyAxMiIgaGVpZ2h0PSIxMiIgd2lkdGg9IjE3Ij4mI3hhOzxwYXRoIGZpbGw9InVybCgjcGFpbnQwX2xpbmVhcl83MjRfMTQpIiBkPSJNMTIuMzQ2MSAxMS45OTc0SDMuODE0ODVDMy4zNTY1MiAxMS45OTc0IDIuOTE5MDIgMTEuOTAzNiAyLjUwMjM1IDExLjcxNjJDMi4wODU2OCAxMS41MDc4IDEuNzIxMSAxMS4yMzcgMS40MDg2IDEwLjkwMzZDMS4wOTYxIDEwLjU0OTUgMC44NDYxIDEwLjE0MzIgMC42NTg2IDkuNjg0OTFDMC40OTE5MyA5LjIyNjYxIDAuNDA4NiA4LjczNzAxIDAuNDA4NiA4LjIxNjIxQzAuNDA4NiA3LjcxNjE2IDAuNDkxOTMgNy4yMzY5OSAwLjY1ODYgNi43Nzg2NkMwLjg0NjEgNi4zMjAzMyAxLjA4NTY4IDUuOTI0NDkgMS4zNzczNSA1LjU5MTE2QzEuNjY5MDIgNS4yMzY5OSAyLjAxMjc3IDQuOTY2MTYgMi40MDg2IDQuNzc4NjZDMi44MjUyNyA0LjU3MDMzIDMuMjYyNzcgNC40NjYxNiAzLjcyMTEgNC40NjYxNkMzLjgyNTI3IDMuODQxMTYgNC4wMTI3NyAzLjI1NzgzIDQuMjgzNiAyLjcxNjE2QzQuNTU0NDMgMi4xNTM2NiA0Ljg5ODE4IDEuNjc0NDkgNS4zMTQ4NSAxLjI3ODY2QzUuNzMxNTIgMC44ODI4MzQgNi4yMDAyNyAwLjU3MDMzNCA2LjcyMTEgMC4zNDExNjRDNy4yNjI3NyAwLjExMTk5NCA3LjgyNTI3IC0wLjAwMjU4NjM2IDguNDA4NiAtMC4wMDI1ODYzNkM5LjMwNDQzIC0wLjAwMjU4NjM2IDEwLjEzNzcgMC4yNjgyNDQgMTAuOTA4NiAwLjgwOTkxNEMxMS42Nzk0IDEuMzUxNTggMTIuMjczMSAyLjA4MDc0IDEyLjY4OTggMi45OTc0MUMxMy4yMTA2IDMuMDM5MDggMTMuNzAwMiAzLjE4NDkxIDE0LjE1ODYgMy40MzQ5MUMxNC42MTY5IDMuNjg0OTEgMTUuMDEyOCA0LjAxODI0IDE1LjM0NjEgNC40MzQ5MUMxNS42Nzk1IDQuODMwNzQgMTUuOTM5OCA1LjI4OTA4IDE2LjEyNzMgNS44MDk5MUMxNi4zMTQ4IDYuMzMwNzQgMTYuNDA4NiA2Ljg5MzI0IDE2LjQwODYgNy40OTc0MUMxNi40MDg2IDguMTIyNDEgMTYuMzA0NSA4LjcxNjIxIDE2LjA5NjEgOS4yNzg2MUMxNS44ODc4IDkuODIwMzEgMTUuNTk2MSAxMC4yOTk1IDE1LjIyMTEgMTAuNzE2MkMxNC44NjcgMTEuMTEyIDE0LjQzOTggMTEuNDI0NSAxMy45Mzk4IDExLjY1MzZDMTMuNDM5OCAxMS44ODI4IDEyLjkwODcgMTEuOTk3NCAxMi4zNDYxIDExLjk5NzRaTTMuODE0ODUgNi4wNTk5MUMzLjMxNDg1IDYuMDU5OTEgMi44ODc3NyA2LjI2ODI0IDIuNTMzNiA2LjY4NDkxQzIuMTc5NDMgNy4xMDE1OCAyLjAwMjM1IDcuNjExOTkgMi4wMDIzNSA4LjIxNjIxQzIuMDAyMzUgOC44MjAzMSAyLjE3OTQzIDkuMzQxMjEgMi41MzM2IDkuNzc4NjFDMi44ODc3NyAxMC4xOTUzIDMuMzE0ODUgMTAuNDAzNiAzLjgxNDg1IDEwLjQwMzZIMTIuMzQ2MUMxMy4wMzM3IDEwLjQwMzYgMTMuNjE3IDEwLjEyMjQgMTQuMDk2MSA5LjU1OTkxQzE0LjU3NTMgOC45OTc0MSAxNC44MTQ4IDguMzA5OTEgMTQuODE0OCA3LjQ5NzQxQzE0LjgxNDggNi42NjQwOCAxNC41NzUzIDUuOTY2MTYgMTQuMDk2MSA1LjQwMzY2QzEzLjYxNyA0Ljg0MTE2IDEzLjAzMzcgNC41NTk5MSAxMi4zNDYxIDQuNTU5OTFIMTIuMTI3M0MxMS43NzMxIDQuNTU5OTEgMTEuNTIzMSA0LjM4MjgzIDExLjM3NzMgNC4wMjg2NkMxMS4xMjczIDMuMjk5NDkgMTAuNzMxNSAyLjcxNjE2IDEwLjE4OTggMi4yNzg2NkM5LjY0ODE1IDEuODIwMzMgOS4wNTQ0MyAxLjU5MTE2IDguNDA4NiAxLjU5MTE2QzcuOTcxMSAxLjU5MTE2IDcuNTY0ODUgMS42OTUzMyA3LjE4OTg1IDEuOTAzNjZDNi44MTQ4NSAyLjA5MTE2IDYuNDgxNTIgMi4zNTE1OCA2LjE4OTg1IDIuNjg0OTFDNS45MTkwMiAyLjk5NzQxIDUuNzAwMjcgMy4zODI4MyA1LjUzMzYgMy44NDExNkM1LjM2NjkzIDQuMjc4NjYgNS4yODM2IDQuNzQ3NDEgNS4yODM2IDUuMjQ3NDFDNS4yODM2IDUuNDc2NTggNS4yMDAyNyA1LjY3NDQ5IDUuMDMzNiA1Ljg0MTE2QzQuODg3NzcgNS45ODY5OSA0LjcwMDI3IDYuMDU5OTEgNC40NzExIDYuMDU5OTFIMy44MTQ4NVoiLz4mI3hhOzxkZWZzPiYjeGE7PGxpbmVhckdyYWRpZW50IGdyYWRpZW50VW5pdHM9InVzZXJTcGFjZU9uVXNlIiB5Mj0iMTAuMzM3MyIgeDI9IjE0LjI2MDIiIHkxPSIxLjEyNjIzIiB4MT0iMi40NzY0NiIgaWQ9InBhaW50MF9saW5lYXJfNzI0XzE0Ij4mI3hhOzxzdG9wIHN0b3AtY29sb3I9IiMyMzk1RkYiLz4mI3hhOzxzdG9wIHN0b3AtY29sb3I9IiMwMDU3RDIiIG9mZnNldD0iMSIvPiYjeGE7PC9saW5lYXJHcmFkaWVudD4mI3hhOzwvZGVmcz4mI3hhOzwvc3ZnPg==;strokeWidth=1.5;aspect=fixed;" parent="BOSDDkHsfuaanqrSLqfU-11" vertex="1">
          <mxGeometry x="49.169999999999845" y="12.105892857142521" width="28" height="17.89" as="geometry" />
        </mxCell>
        <mxCell id="BOSDDkHsfuaanqrSLqfU-16" value="&lt;font color=&quot;#475f75&quot; size=&quot;1&quot;&gt;&lt;b style=&quot;&quot;&gt;REST/SPI&lt;/b&gt;&lt;/font&gt;" style="rounded=1;whiteSpace=wrap;html=1;arcSize=50;strokeColor=#475f75;fillColor=default;strokeWidth=1.5;" parent="BOSDDkHsfuaanqrSLqfU-11" vertex="1">
          <mxGeometry x="-12.999417475727942" y="57.75194029850765" width="53.67961165048544" height="15.739701492537327" as="geometry" />
        </mxCell>
        <mxCell id="BOSDDkHsfuaanqrSLqfU-17" value="" style="rounded=1;whiteSpace=wrap;html=1;strokeColor=#0070F2;fillColor=#EBF8FF;arcSize=16;absoluteArcSize=1;imageWidth=64;imageHeight=64;strokeWidth=1.5;" parent="BOSDDkHsfuaanqrSLqfU-1" vertex="1">
          <mxGeometry x="124.2800000000002" width="465" height="387" as="geometry" />
        </mxCell>
        <mxCell id="BOSDDkHsfuaanqrSLqfU-18" value="" style="rounded=1;whiteSpace=wrap;html=1;strokeColor=#0070F2;strokeWidth=1.5;arcSize=16;fillColor=#FFFFFF;perimeterSpacing=0;absoluteArcSize=1;" parent="BOSDDkHsfuaanqrSLqfU-1" vertex="1">
          <mxGeometry x="142.05000000000018" y="54.12999999999988" width="429.45" height="163.69" as="geometry" />
        </mxCell>
        <mxCell id="BOSDDkHsfuaanqrSLqfU-19" value="" style="shape=image;verticalLabelPosition=bottom;labelBackgroundColor=default;verticalAlign=top;aspect=fixed;imageAspect=0;image=data:image/svg+xml,PHN2ZyB4bWxuczp4bGluaz0iaHR0cDovL3d3dy53My5vcmcvMTk5OS94bGluayIgeG1sbnM9Imh0dHA6Ly93d3cudzMub3JnLzIwMDAvc3ZnIiB2aWV3Qm94PSIwIDAgMTQ0Ljc0NyAzOS44MzIiIGlkPSJhIj48ZGVmcz48bGluZWFyR3JhZGllbnQgZ3JhZGllbnRVbml0cz0idXNlclNwYWNlT25Vc2UiIHkyPSIzOS44MzIiIHgyPSI0MC4yNTgiIHkxPSIwIiB4MT0iNDAuMjU4IiBpZD0iYiI+PHN0b3Agc3RvcC1jb2xvcj0iIzAwYjhmMSIgb2Zmc2V0PSIwIi8+PHN0b3Agc3RvcC1jb2xvcj0iIzAwYjVlZiIgb2Zmc2V0PSIuMDE2Ii8+PHN0b3Agc3RvcC1jb2xvcj0iIzBkOTBkOCIgb2Zmc2V0PSIuMzA4Ii8+PHN0b3Agc3RvcC1jb2xvcj0iIzE2NzVjOCIgb2Zmc2V0PSIuNTc4Ii8+PHN0b3Agc3RvcC1jb2xvcj0iIzFjNjRiZSIgb2Zmc2V0PSIuODE3Ii8+PHN0b3Agc3RvcC1jb2xvcj0iIzFlNWZiYiIgb2Zmc2V0PSIxIi8+PC9saW5lYXJHcmFkaWVudD48L2RlZnM+PHBvbHlsaW5lIGZpbGwtcnVsZT0iZXZlbm9kZCIgZmlsbD0idXJsKCNiKSIgcG9pbnRzPSIwIDM5LjgzMiA0MC42OTIgMzkuODMyIDgwLjUxNyAwIDAgMCAwIDM5LjgzMiIvPjxwYXRoIGZpbGwtcnVsZT0iZXZlbm9kZCIgZmlsbD0iI2ZmZiIgZD0ibTQ3Ljc4Miw3LjQ4OWwtNy45MjUtLjAwNXYxOC44NDVsLTYuOTI0LTE4Ljg0NWgtNi44NjVsLTUuOTEyLDE1Ljc1OWMtLjYzLTMuOTczLTQuNzQtNS4zNDUtNy45NzQtNi4zNzQtMi4xMzUtLjY4Ni00LjQwMS0xLjY5NC00LjM4LTIuODA5LjAxNy0uOTE1LDEuMjE1LTEuNzY1LDMuNTg5LTEuNjM3LDEuNTk1LjA4NCwzLjAwMS4yMTMsNS44LDEuNTYzbDIuNzUzLTQuNzk1Yy0yLjU1NS0xLjMtNi4wODYtMi4xMjEtOC45NzgtMi4xMjRoLS4wMTdjLTMuMzc0LDAtNi4xODUsMS4wOTMtNy45MjgsMi44OTQtMS4yMTQsMS4yNTgtMS44NjksMi44NTYtMS44OTYsNC42MjMtLjA0NCwyLjQzMi44NDgsNC4xNTcsMi43MjEsNS41MzMsMS41ODMsMS4xNiwzLjYwNiwxLjkxMiw1LjM5LDIuNDY1LDIuMjAxLjY4MSwzLjk5NiwxLjI3NCwzLjk3NSwyLjUzOS0uMDE2LjQ1OS0uMTkxLjg4OC0uNTIxLDEuMjM2LS41NDguNTY2LTEuMzkxLjc3OS0yLjU1NS43OTktMi4yNDQuMDQ4LTMuOTEtLjMwMy02LjU2Mi0xLjg3bC0yLjQ0OCw0Ljg2MWMyLjY0NCwxLjUwNiw1Ljc3NiwyLjM4OCw4Ljk3MiwyLjM4OGwuNDExLS4wMDZjMi43ODItLjA1LDUuMDI2LS44NDIsNi44Mi0yLjI4Ni4xMDMtLjA4MS4xOTYtLjE2Ni4yOTEtLjI1bC0uNzk1LDIuMTIzaDcuMmwxLjIwOC0zLjY3NGMxLjI2NS40MzMsMi43MDQuNjcxLDQuMjMyLjY3MSwxLjQ4NywwLDIuODg5LS4yMjksNC4xMzEtLjYzNWwxLjE2NCwzLjYzN2gxMS43NDJ2LTcuNjA3aDIuNTYxYzYuMTg4LDAsOS44NTEtMy4xNTQsOS44NTEtOC40MzYsMC01Ljg4NS0zLjU1Ny04LjU4NS0xMS4xMzItOC41ODVabS0xOC4zMTcsMTYuMTI0Yy0uOTI1LDAtMS43OTItLjE2LTIuNTM5LS40NDNsMi41MTItNy45MjZoLjA0OGwyLjQ2OCw3Ljk0OGMtLjc0Mi4yNjMtMS41ODkuNDIxLTIuNDg4LjQyMVptMTguNzgzLTQuNTUzaC0xLjc0NnYtNi4zODZoMS43NDZjMi4zMjgsMCw0LjE4NS43NzMsNC4xODUsMy4xNTEsMCwyLjQ2MS0xLjg1NywzLjIzNi00LjE4NSwzLjIzNiIvPjxwYXRoIGZpbGw9IiMwMDJhODYiIGQ9Im04MC4yMTcsNy40MDFoMTAuMDYzYzUuNTk1LDAsOC42NzQsMS45MTcsOC42NzQsNi4xNTgsMCwyLjkwMy0xLjUxMyw1LjAxNC00LjMxMSw1LjcsMy4yOS40NTgsNS4yNzgsMi41ODYsNS4yNzgsNS44OTQsMCw1LjAxNC00LjA2NCw3LjAzNy05LjE4NCw3LjAzN2gtMTAuNTIxVjcuNDAxWm0xMy45NjksNi44MjZjMC0yLjE2NC0xLjQ5Ni0yLjk3My00LjI0LTIuOTczaC01LjA0OXY2LjI5OGg0Ljg5MWMzLjIwMiwwLDQuMzk4LTEuMTYxLDQuMzk4LTMuMzI1Wm0xLjAyMSwxMC41MjFjMC0yLjM1Ny0xLjc3Ny0zLjQ2Ni00LjgzOS0zLjQ2NmgtNS40NzF2Ny4wNTVoNS41MDZjMi44MTUsMCw0LjgwNC0uNzc0LDQuODA0LTMuNTg5WiIvPjxwYXRoIGZpbGw9IiMwMDJhODYiIGQ9Im0xMDkuMDUxLDExLjVoLTcuNTgzdi00LjA5OWgxOS44NDZ2NC4wOTloLTcuNTY1djIwLjY5aC00LjY5N1YxMS41WiIvPjxwYXRoIGZpbGw9IiMwMDJhODYiIGQ9Im0xMjUuMTQ4LDcuNDAxaDEwLjUwNGM2LjE5MiwwLDkuMDk2LDMuMTg1LDkuMDk2LDcuODk5LDAsNC4zOTgtMi44MzMsOC4xNDYtOC44NSw4LjE0NmgtNi4wN3Y4Ljc0NGgtNC42OFY3LjQwMVptMTQuOTAyLDcuOTUyYzAtMi41NTEtMS42ODktMy45MjMtNC45NDQtMy45MjNoLTUuMjc4djguMDRoNS40MTljMy4yNzIsMCw0LjgwNC0xLjU4Myw0LjgwNC00LjExN1oiLz48L3N2Zz4=;strokeWidth=1.5;" parent="BOSDDkHsfuaanqrSLqfU-1" vertex="1">
          <mxGeometry x="142.05000000000018" y="18.550000000000182" width="67.25" height="18.55" as="geometry" />
        </mxCell>
        <mxCell id="BOSDDkHsfuaanqrSLqfU-20" value="" style="endArrow=blockThin;html=1;strokeColor=#475e74;bendable=1;rounded=0;endFill=1;endSize=4;strokeWidth=1.5;entryX=0;entryY=0.5;entryDx=0;entryDy=0;startSize=4;exitX=1;exitY=0.5;exitDx=0;exitDy=0;exitPerimeter=0;" parent="BOSDDkHsfuaanqrSLqfU-1" target="BOSDDkHsfuaanqrSLqfU-16" edge="1">
          <mxGeometry width="50" height="50" relative="1" as="geometry">
            <mxPoint x="441.5" y="154" as="sourcePoint" />
            <mxPoint x="879.5" y="258.8800000000001" as="targetPoint" />
            <Array as="points">
              <mxPoint x="595.5" y="154" />
              <mxPoint x="709.5" y="153" />
              <mxPoint x="709.5" y="217.81999999999994" />
              <mxPoint x="710" y="309" />
            </Array>
          </mxGeometry>
        </mxCell>
        <mxCell id="BOSDDkHsfuaanqrSLqfU-24" value="&lt;font size=&quot;1&quot; face=&quot;arial&quot; style=&quot;&quot;&gt;&lt;span style=&quot;font-size: 12px;&quot;&gt;Multi-Cloud&lt;/span&gt;&lt;/font&gt;" style="text;html=1;align=left;verticalAlign=middle;resizable=0;points=[];autosize=1;strokeColor=none;fillColor=none;fontSize=14;fontColor=#1D2D3E;fontFamily=Helvetica;fontStyle=0" parent="BOSDDkHsfuaanqrSLqfU-1" vertex="1">
          <mxGeometry x="154.5" y="78.82000000000016" width="79" height="29" as="geometry" />
        </mxCell>
        <mxCell id="BOSDDkHsfuaanqrSLqfU-25" value="&lt;font face=&quot;arial&quot; style=&quot;font-size: 16px;&quot;&gt;&lt;b style=&quot;font-size: 16px;&quot;&gt;Subaccount&lt;/b&gt;&lt;/font&gt;" style="text;html=1;align=left;verticalAlign=middle;resizable=0;points=[];autosize=1;strokeColor=none;fillColor=none;fontSize=12;fontColor=#1d2d3e;fontFamily=Helvetica;" parent="BOSDDkHsfuaanqrSLqfU-1" vertex="1">
          <mxGeometry x="153.5" y="59.819999999999936" width="120" height="30" as="geometry" />
        </mxCell>
        <mxCell id="BOSDDkHsfuaanqrSLqfU-26" value="" style="endArrow=blockThin;html=1;strokeColor=#475E75;bendable=1;rounded=0;endFill=1;endSize=4;strokeWidth=1.5;entryX=0;entryY=0.5;entryDx=0;entryDy=0;entryPerimeter=0;startSize=4;" parent="BOSDDkHsfuaanqrSLqfU-1" edge="1">
          <mxGeometry width="50" height="50" relative="1" as="geometry">
            <mxPoint x="216.5" y="154" as="sourcePoint" />
            <mxPoint x="288" y="154" as="targetPoint" />
            <Array as="points" />
          </mxGeometry>
        </mxCell>
        <mxCell id="BOSDDkHsfuaanqrSLqfU-30" value="" style="endArrow=blockThin;html=1;rounded=0;strokeColor=#188918;endFill=1;startArrow=blockThin;startFill=1;endSize=4;startSize=4;strokeWidth=1.5;exitX=0.229;exitY=-0.001;exitDx=0;exitDy=0;exitPerimeter=0;" parent="BOSDDkHsfuaanqrSLqfU-1" source="BOSDDkHsfuaanqrSLqfU-53" edge="1">
          <mxGeometry width="50" height="50" relative="1" as="geometry">
            <mxPoint x="220.5020000000004" y="268.078" as="sourcePoint" />
            <mxPoint x="224.5" y="218.81999999999994" as="targetPoint" />
            <Array as="points" />
          </mxGeometry>
        </mxCell>
        <mxCell id="BOSDDkHsfuaanqrSLqfU-33" value="&lt;font color=&quot;#5b738b&quot; size=&quot;1&quot; face=&quot;arial&quot; style=&quot;&quot;&gt;&lt;b style=&quot;&quot;&gt;NETWORK&lt;/b&gt;&lt;/font&gt;" style="text;html=1;align=left;verticalAlign=middle;resizable=0;points=[];autosize=1;strokeColor=none;fillColor=none;fontSize=12;fontColor=default;fontFamily=Helvetica;" parent="BOSDDkHsfuaanqrSLqfU-1" vertex="1">
          <mxGeometry x="634.4999999999995" y="30.38000000000011" width="80" height="30" as="geometry" />
        </mxCell>
        <mxCell id="BOSDDkHsfuaanqrSLqfU-34" value="" style="endArrow=blockThin;html=1;strokeColor=#475E75;bendable=1;rounded=0;endFill=1;endSize=4;strokeWidth=1.5;entryX=0;entryY=0.5;entryDx=0;entryDy=0;startSize=4;exitX=0.5;exitY=0;exitDx=0;exitDy=0;exitPerimeter=0;" parent="BOSDDkHsfuaanqrSLqfU-1" edge="1">
          <mxGeometry width="50" height="50" relative="1" as="geometry">
            <mxPoint x="425.5" y="138" as="sourcePoint" />
            <mxPoint x="505.5" y="90.00999999999976" as="targetPoint" />
            <Array as="points">
              <mxPoint x="425.5" y="90" />
            </Array>
          </mxGeometry>
        </mxCell>
        <mxCell id="BOSDDkHsfuaanqrSLqfU-37" value="&lt;font size=&quot;1&quot;&gt;&lt;b&gt;Task Data&lt;/b&gt;&lt;/font&gt;" style="rounded=1;whiteSpace=wrap;html=1;arcSize=50;strokeColor=#475E75;fillColor=#F5F6F7;fontColor=#475E75;" parent="BOSDDkHsfuaanqrSLqfU-1" vertex="1">
          <mxGeometry x="599.5" y="146.1400000000001" width="60" height="16" as="geometry" />
        </mxCell>
        <mxCell id="BOSDDkHsfuaanqrSLqfU-38" value="&lt;font color=&quot;#475f75&quot; size=&quot;1&quot;&gt;&lt;b style=&quot;&quot;&gt;REST/SPI&lt;/b&gt;&lt;/font&gt;" style="rounded=1;whiteSpace=wrap;html=1;arcSize=50;strokeColor=#475f75;fillColor=default;strokeWidth=1.5;" parent="BOSDDkHsfuaanqrSLqfU-1" vertex="1">
          <mxGeometry x="747.0000000000002" y="82.00999999999976" width="57" height="16" as="geometry" />
        </mxCell>
        <mxCell id="BOSDDkHsfuaanqrSLqfU-39" value="" style="edgeStyle=orthogonalEdgeStyle;rounded=0;orthogonalLoop=1;jettySize=auto;html=1;endArrow=blockThin;endFill=1;strokeColor=#475e74;endSize=4;startSize=4;strokeWidth=1.5;entryX=0;entryY=0.5;entryDx=0;entryDy=0;" parent="BOSDDkHsfuaanqrSLqfU-1" target="BOSDDkHsfuaanqrSLqfU-38" edge="1">
          <mxGeometry relative="1" as="geometry">
            <mxPoint x="825.5" y="130.8800000000001" as="targetPoint" />
            <mxPoint x="537.4999999999998" y="90" as="sourcePoint" />
            <Array as="points">
              <mxPoint x="717.5" y="90" />
            </Array>
          </mxGeometry>
        </mxCell>
        <mxCell id="BOSDDkHsfuaanqrSLqfU-40" value="&lt;font color=&quot;#475f75&quot; size=&quot;1&quot;&gt;&lt;b style=&quot;&quot;&gt;REST/Token&lt;/b&gt;&lt;/font&gt;" style="rounded=1;whiteSpace=wrap;html=1;arcSize=50;strokeColor=#475f75;fillColor=default;strokeWidth=1.5;" parent="BOSDDkHsfuaanqrSLqfU-1" vertex="1">
          <mxGeometry x="734" y="106.01000000000022" width="70" height="16" as="geometry" />
        </mxCell>
        <mxCell id="BOSDDkHsfuaanqrSLqfU-43" value="" style="endArrow=blockThin;html=1;strokeColor=#475E75;bendable=1;rounded=0;endFill=1;endSize=4;strokeWidth=1.5;entryX=0;entryY=0.5;entryDx=0;entryDy=0;entryPerimeter=0;startSize=4;exitX=0.965;exitY=0.507;exitDx=0;exitDy=0;exitPerimeter=0;" parent="BOSDDkHsfuaanqrSLqfU-1" edge="1">
          <mxGeometry width="50" height="50" relative="1" as="geometry">
            <mxPoint x="318.8800000000001" y="154.22399999999993" as="sourcePoint" />
            <mxPoint x="407.5" y="153.91000000000008" as="targetPoint" />
            <Array as="points" />
          </mxGeometry>
        </mxCell>
        <mxCell id="BOSDDkHsfuaanqrSLqfU-44" value="" style="endArrow=none;html=1;strokeColor=#5B738B;bendable=1;rounded=1;endFill=0;endSize=3;strokeWidth=3;jumpStyle=gap;" parent="BOSDDkHsfuaanqrSLqfU-1" edge="1">
          <mxGeometry width="50" height="50" relative="1" as="geometry">
            <mxPoint x="694.5" y="32.820000000000164" as="sourcePoint" />
            <mxPoint x="696.5" y="399.94000000000005" as="targetPoint" />
            <Array as="points" />
          </mxGeometry>
        </mxCell>
        <mxCell id="BOSDDkHsfuaanqrSLqfU-45" value="&lt;font color=&quot;#475e75&quot; size=&quot;1&quot;&gt;&lt;b style=&quot;&quot;&gt;Task Data&lt;/b&gt;&lt;/font&gt;" style="rounded=1;whiteSpace=wrap;html=1;arcSize=50;strokeColor=#475E75;fillColor=#F5F6F7;" parent="BOSDDkHsfuaanqrSLqfU-1" vertex="1">
          <mxGeometry x="600.5" y="82.00999999999999" width="59" height="16" as="geometry" />
        </mxCell>
        <mxCell id="BOSDDkHsfuaanqrSLqfU-46" value="" style="group" parent="BOSDDkHsfuaanqrSLqfU-1" vertex="1" connectable="0">
          <mxGeometry x="140.00000000000045" y="258.31999999999994" width="362" height="185" as="geometry" />
        </mxCell>
        <mxCell id="BOSDDkHsfuaanqrSLqfU-47" value="" style="endArrow=none;html=1;strokeColor=#188918;bendable=1;rounded=0;endFill=0;endSize=3;strokeWidth=1.5;entryX=0.5;entryY=0;entryDx=0;entryDy=0;dashed=1;" parent="BOSDDkHsfuaanqrSLqfU-46" edge="1">
          <mxGeometry width="50" height="50" relative="1" as="geometry">
            <mxPoint x="93.2829015544039" y="88" as="sourcePoint" />
            <mxPoint x="94" y="128" as="targetPoint" />
            <Array as="points" />
          </mxGeometry>
        </mxCell>
        <mxCell id="BOSDDkHsfuaanqrSLqfU-48" value="&lt;font color=&quot;#188918&quot; size=&quot;1&quot;&gt;&lt;b style=&quot;&quot;&gt;SAML2/OIDC&lt;/b&gt;&lt;/font&gt;" style="rounded=1;whiteSpace=wrap;html=1;arcSize=50;strokeColor=#188918;fillColor=#f5fae5;fontColor=#266f3a;strokeWidth=1.5;" parent="BOSDDkHsfuaanqrSLqfU-46" vertex="1">
          <mxGeometry x="57" y="104" width="72" height="16" as="geometry" />
        </mxCell>
        <mxCell id="BOSDDkHsfuaanqrSLqfU-49" value="" style="endArrow=none;html=1;strokeColor=#470BED;bendable=1;rounded=0;endFill=0;endSize=3;strokeWidth=1.5;entryX=0.5;entryY=0;entryDx=0;entryDy=0;dashed=1;" parent="BOSDDkHsfuaanqrSLqfU-46" edge="1">
          <mxGeometry width="50" height="50" relative="1" as="geometry">
            <mxPoint x="170.76999999999998" y="88" as="sourcePoint" />
            <mxPoint x="170.76999999999998" y="128" as="targetPoint" />
            <Array as="points" />
          </mxGeometry>
        </mxCell>
        <mxCell id="BOSDDkHsfuaanqrSLqfU-50" value="&lt;div style=&quot;&quot;&gt;&lt;font style=&quot;font-size: 10px;&quot;&gt;3rd party identity provider /&lt;br&gt;identity management&lt;/font&gt;&lt;br&gt;&lt;/div&gt;" style="text;html=1;align=left;verticalAlign=middle;resizable=0;points=[];autosize=1;strokeColor=none;fillColor=none;fontSize=12;fontColor=#556B82;fontFamily=Helvetica;" parent="BOSDDkHsfuaanqrSLqfU-46" vertex="1">
          <mxGeometry x="111" y="131" width="140" height="40" as="geometry" />
        </mxCell>
        <mxCell id="BOSDDkHsfuaanqrSLqfU-51" value="" style="shape=image;verticalLabelPosition=bottom;labelBackgroundColor=default;verticalAlign=top;aspect=fixed;imageAspect=0;image=data:image/svg+xml,PHN2ZyB4bWxucz0iaHR0cDovL3d3dy53My5vcmcvMjAwMC9zdmciIGZpbGw9Im5vbmUiIHZpZXdCb3g9IjAgMCAxNyAxNyIgaGVpZ2h0PSIxNyIgd2lkdGg9IjE3Ij4mI3hhOzxwYXRoIGZpbGw9InVybCgjcGFpbnQwX2xpbmVhcl83NzVfOCkiIGQ9Ik0xMy42NzU2IDguNjM3NDhDMTQuNjQ2OSA5LjE3MTcxIDE1LjQ2NDcgOS45NDY0NiAxNi4wNTA2IDEwLjg4NzVDMTYuNjU0NiAxMS44NDU1IDE2Ljk1NjYgMTIuOTI4NSAxNi45NTY2IDE0LjEzNzVWMTUuOTE4NUMxNi45NTY2IDE2LjUwMTUgMTYuNjU0NiAxNi43OTM1IDE2LjA1MDYgMTYuNzkzNUg1LjQyNTY0QzUuMTU0NjQgMTYuNzkzNSA0LjkzNTY0IDE2LjcxMDUgNC43Njg2NCAxNi41NDM1QzQuNjAyNjQgMTYuMzk3NSA0LjUxODY0IDE2LjE4OTUgNC41MTg2NCAxNS45MTg1VjE1LjAxMjVIMS44NjI2NEMxLjI3OTY0IDE1LjAxMjUgMC45ODc2NCAxNC43MjA1IDAuOTg3NjQgMTQuMTM3NVYxMi4zNTY1QzAuOTg3NjQgMTEuNDgwNSAxLjIyNzY0IDEwLjY4OTUgMS43MDY2NCA5Ljk4MDQ4QzIuMTY0MzUgOS4yOTEwOSAyLjgwMjA3IDguNzQwMTcgMy41NTA2NCA4LjM4NzQ4QzMuMjg2MjIgOC4wODYyMyAzLjA4NDMxIDcuNzM1NDMgMi45NTY2NCA3LjM1NTQ4QzIuODMzNCA2Ljk3MTgxIDIuNzY5OTkgNi41NzE0NSAyLjc2ODY0IDYuMTY4NDhDMi43Njg2NCA1LjY2ODQ4IDIuODYyNjQgNS4yMTA0OCAzLjA1MDY0IDQuNzkzNDhDMy4yMzc2NCA0LjM1NTQ4IDMuNDg3NjQgMy45ODA0OCAzLjgwMDY0IDMuNjY4NDhDNC4xMjQ3OCAzLjM0MTYxIDQuNTA2MDggMy4wNzY5IDQuOTI1NjQgMi44ODc0OEM1LjM1OTkyIDIuNzAwNzMgNS44Mjc5MSAyLjYwNTA5IDYuMzAwNjQgMi42MDY0OEM2LjQ0NjY0IDIuNjA2NDggNi41ODE2NCAyLjYxNjQ4IDYuNzA2NjQgMi42MzY0OEM2LjgzMTY0IDIuNjM2NDggNi45NjY2NCAyLjY1ODQ4IDcuMTEyNjQgMi42OTk0OEM3LjUwMjE5IDIuMTIxOSA4LjAyODQ3IDEuNjQ5NTYgOC42NDQ2NCAxLjMyNDQ4QzkuMjkxNTggMC45OTA5MiAxMC4wMDk4IDAuODE5MzQzIDEwLjczNzYgMC44MjQ0NzZDMTEuMzYyNiAwLjgyNDQ3NiAxMS45NDY2IDAuOTM5NDc2IDEyLjQ4NzYgMS4xNjg0OEMxMy4wMjk2IDEuMzk4NDggMTMuNDk3NiAxLjcyMDQ4IDEzLjg5MzYgMi4xMzc0OEMxNC4yODk2IDIuNTMzNDggMTQuNjAyNiAzLjAwMTQ4IDE0LjgzMTYgMy41NDM0OEMxNS4wNjE2IDQuMDYzNDggMTUuMTc1NiA0LjYzNzQ4IDE1LjE3NTYgNS4yNjI0OEMxNS4xNzc3IDUuOTE5NDggMTUuMDM5MiA2LjU2OTMzIDE0Ljc2OTYgNy4xNjg0OEMxNC41MjkgNy43MzkzMiAxNC4xNTM2IDguMjQzMzYgMTMuNjc1NiA4LjYzNzQ4Wk0xMC43MzY2IDIuNjA1NDhDOS45ODY2NCAyLjYwNTQ4IDkuMzUxNjQgMi44NjU0OCA4LjgzMDY0IDMuMzg3NDhDOC4zMzA2NCAzLjg4NzQ4IDguMDgwNjQgNC41MTI0OCA4LjA4MDY0IDUuMjYyNDhDOC4wODA2NCA2LjAxMjQ4IDguMzMwNjQgNi42NDc0OCA4LjgzMDY0IDcuMTY4NDhDOS4zNTA2NCA3LjY2ODQ4IDkuOTg2NjQgNy45MTg0OCAxMC43MzY2IDcuOTE4NDhDMTEuNDg2NiA3LjkxODQ4IDEyLjExMTYgNy42Njg0OCAxMi42MTE2IDcuMTY4NDhDMTMuMTMyNiA2LjY0ODQ4IDEzLjM5MjYgNi4wMTI0OCAxMy4zOTI2IDUuMjYyNDhDMTMuMzkyNiA0LjUxMjQ4IDEzLjEzMjYgMy44ODc0OCAxMi42MTI2IDMuMzg3NDhDMTIuMTEyNiAyLjg2NjQ4IDExLjQ4NjYgMi42MDU0OCAxMC43MzY2IDIuNjA1NDhaTTYuMjA2NjQgNC4zODg0OEM1LjcyNjY0IDQuMzg4NDggNS4zMTA2NCA0LjU2NTQ4IDQuOTU2NjQgNC45MTk0OEM0LjYyMzY0IDUuMjUyNDggNC40NTY2NCA1LjY2OTQ4IDQuNDU2NjQgNi4xNjk0OEM0LjQ1NjY0IDYuNjQ5NDggNC42MjM2NCA3LjA2NTQ4IDQuOTU2NjQgNy40MTk0OEM1LjMxMDY0IDcuNzUyNDggNS43MjY2NCA3LjkxOTQ4IDYuMjA2NjQgNy45MTk0OEg3LjIwNjY0QzYuOTI3MDggNy41NDg5OCA2LjcwNTg1IDcuMTM3ODkgNi41NTA2NCA2LjcwMDQ4QzYuMzg3MDYgNi4yMzg5NSA2LjMwMjU0IDUuNzUzMTMgNi4zMDA2NCA1LjI2MzQ4VjQuODIzNDhDNi4zMTczMiA0LjY3NTEzIDYuMzQ4NDcgNC41Mjg3NiA2LjM5MzY0IDQuMzg2NDhINi4yMDY2NFY0LjM4ODQ4Wk0yLjc2ODY0IDEzLjI2MzVINC42MTI2NEM0LjgwMDY0IDExLjgyNTUgNS4zOTM2NCAxMC42Mzg1IDYuMzkzNjQgOS43MDA0N0g1LjQyNjY0QzQuNjc2NjQgOS43MDA0NyA0LjA0MDY0IDkuOTYwNDcgMy41MTk2NCAxMC40ODE1QzMuMDE5NjQgMTAuOTgxNSAyLjc2OTY0IDExLjYwNzUgMi43Njk2NCAxMi4zNTc1TDIuNzY4NjQgMTMuMjYzNVpNMTUuMTc1NiAxNC4xMzg1QzE1LjE4MjYgMTMuNTQ3NyAxNS4wNjU0IDEyLjk2MjEgMTQuODMxNiAxMi40MTk1QzE0LjYxMzMgMTEuODk0MyAxNC4yOTQ3IDExLjQxNjcgMTMuODkzNiAxMS4wMTM1QzEzLjQ5NzQgMTAuNTk2MyAxMy4wMTg1IDEwLjI2NjMgMTIuNDg3NiAxMC4wNDQ1QzExLjkzMzUgOS44MTI3MyAxMS4zMzgyIDkuNjk1NzEgMTAuNzM3NiA5LjcwMDQ3QzEwLjExMjYgOS43MDA0NyA5LjUyOTY0IDkuODE1NDggOC45ODc2NCAxMC4wNDQ1QzguNDY3NjQgMTAuMjc0NSA3Ljk5NzY0IDEwLjU5NjUgNy41ODE2NCAxMS4wMTM1QzcuMTgwNTggMTEuNDE2NyA2Ljg2MTk3IDExLjg5NDMgNi42NDM2NCAxMi40MTk1QzYuNDEwMjggMTIuOTYyMiA2LjI5MzQzIDEzLjU0NzggNi4zMDA2NCAxNC4xMzg1VjE1LjAxMzVIMTUuMTc1NlYxNC4xMzg1WiIvPiYjeGE7PGRlZnM+JiN4YTs8bGluZWFyR3JhZGllbnQgZ3JhZGllbnRVbml0cz0idXNlclNwYWNlT25Vc2UiIHkyPSIxNi43OTM1IiB4Mj0iOC45NzIxNCIgeTE9IjAuODI0MzY0IiB4MT0iOC45NzIxNCIgaWQ9InBhaW50MF9saW5lYXJfNzc1XzgiPiYjeGE7PHN0b3Agc3RvcC1jb2xvcj0iIzVCNzM4QiIvPiYjeGE7PHN0b3Agc3RvcC1jb2xvcj0iIzIyMzU0OCIgb2Zmc2V0PSIxIi8+JiN4YTs8L2xpbmVhckdyYWRpZW50PiYjeGE7PC9kZWZzPiYjeGE7PC9zdmc+;" parent="BOSDDkHsfuaanqrSLqfU-46" vertex="1">
          <mxGeometry x="76" y="135" width="28" height="28" as="geometry" />
        </mxCell>
        <mxCell id="BOSDDkHsfuaanqrSLqfU-52" value="&lt;font size=&quot;1&quot;&gt;&lt;b style=&quot;&quot;&gt;SCIM&lt;/b&gt;&lt;/font&gt;" style="rounded=1;whiteSpace=wrap;html=1;arcSize=50;strokeColor=#470BED;fillColor=#f1ecff;fontColor=#470bed;strokeWidth=1.5;" parent="BOSDDkHsfuaanqrSLqfU-46" vertex="1">
          <mxGeometry x="149.99" y="104" width="38.01" height="16" as="geometry" />
        </mxCell>
        <mxCell id="BOSDDkHsfuaanqrSLqfU-53" value="" style="rounded=1;whiteSpace=wrap;html=1;strokeColor=#0070F2;strokeWidth=1.5;arcSize=16;fillColor=#FFFFFF;perimeterSpacing=0;absoluteArcSize=1;" parent="BOSDDkHsfuaanqrSLqfU-46" vertex="1">
          <mxGeometry x="3" y="-2" width="356.5" height="92" as="geometry" />
        </mxCell>
        <mxCell id="BOSDDkHsfuaanqrSLqfU-54" value="&lt;font face=&quot;arial&quot; style=&quot;font-size: 16px;&quot;&gt;&lt;b style=&quot;font-size: 16px;&quot;&gt;SAP Cloud &lt;br&gt;Identity &lt;br&gt;Services&lt;/b&gt;&lt;/font&gt;" style="text;html=1;align=left;verticalAlign=middle;resizable=0;points=[];autosize=1;strokeColor=none;fillColor=none;fontSize=12;fontColor=#1d2d3e;fontFamily=Helvetica;" parent="BOSDDkHsfuaanqrSLqfU-46" vertex="1">
          <mxGeometry x="12" y="10" width="100" height="70" as="geometry" />
        </mxCell>
        <mxCell id="BOSDDkHsfuaanqrSLqfU-57" value="&lt;p style=&quot;line-height: 110%;&quot;&gt;&lt;font color=&quot;#1d2d3e&quot; size=&quot;1&quot; face=&quot;arial&quot; style=&quot;&quot;&gt;&lt;span style=&quot;font-size: 12px;&quot;&gt;&lt;br&gt;&lt;/span&gt;&lt;/font&gt;&lt;/p&gt;" style="text;html=1;align=center;verticalAlign=middle;resizable=1;points=[[0,0.5,0,0,0],[0.21,1,0,0,0],[0.5,1,0,0,0],[0.85,1,0,0,0],[1,0.5,0,0,0]];autosize=0;strokeColor=none;fillColor=none;fontSize=12;fontColor=default;fontFamily=Helvetica;fixedWidth=1;imageWidth=24;whiteSpace=wrap;labelBackgroundColor=none;" parent="BOSDDkHsfuaanqrSLqfU-46" vertex="1">
          <mxGeometry x="167.50000000000023" y="44.5" width="110" height="35" as="geometry" />
        </mxCell>
        <mxCell id="1Vq5t9I849oIyW8mgQiL-3" value="Identity&#xa;Directory" style="shape=image;verticalLabelPosition=bottom;labelBackgroundColor=default;verticalAlign=top;aspect=fixed;imageAspect=0;image=data:image/svg+xml,PHN2ZyB4bWxucz0iaHR0cDovL3d3dy53My5vcmcvMjAwMC9zdmciIGZpbGw9Im5vbmUiIHZpZXdCb3g9IjAgMCAxNiAxNiIgaGVpZ2h0PSIxNiIgd2lkdGg9IjE2Ij4mI3hhOzxjaXJjbGUgc3Ryb2tlLXdpZHRoPSIwLjI4NTcwOCIgc3Ryb2tlPSIjRDVEQUREIiBmaWxsPSJ1cmwoI3BhaW50MF9saW5lYXJfMzg5MF8yMTUyMCkiIHI9IjcuODU2OTYiIGN5PSI3Ljk5Nzg2IiBjeD0iNy45OTY4OSIvPiYjeGE7PGcgY2xpcC1wYXRoPSJ1cmwoI2NsaXAwXzM4OTBfMjE1MjApIj4mI3hhOzxwYXRoIGZpbGw9InVybCgjcGFpbnQxX2xpbmVhcl8zODkwXzIxNTIwKSIgZD0iTTQuNjg1NDQgMy43MTg5N0M0LjQxMzUxIDMuODI2NjkgNC4xNTU0IDMuOTczMiAzLjk1NjYzIDQuMTc1NkMzLjgyNjY3IDQuMzA3OTQgMy41OTcxNyA0LjU2MzU2IDMuNTk3MTcgNS4wNDU5NVY5LjcyMzMyQzMuNTk3NSAxMC41NDAyIDQuMjAwMzUgMTAuOTgxNSA0LjczNTk3IDExLjIwMDJDNS4zMDI3NCAxMS40MzE3IDYuMDIyOTMgMTEuNTIyNSA2LjcwOTUxIDExLjUyM0M2Ljc5OTU3IDExLjUyMyA2LjkzOTA4IDExLjUwNiA3LjA4NDQzIDExLjQ4NTRDNy4zNjE3MiAxMS40NDYzIDcuNTc1MjkgMTEuMjAzMiA3LjU3NTI5IDEwLjkyMzFDNy41NzUyOSAxMC42MDU2IDcuMzAzODEgMTAuMzcyOSA2Ljk4ODk1IDEwLjQxNDNDNi44ODA4MSAxMC40Mjg1IDYuNzgxMzIgMTAuNDM4NyA2LjcxMDEgMTAuNDM4N0M2LjA3OTEgMTAuNDM4MiA1LjQ4Mzc0IDEwLjM1MjIgNS4wNjQzNyAxMC4xODA5QzQuNjEzOTggOS45OTcwMiA0LjU2MDI3IDkuODA5OSA0LjU2MDI3IDkuNzIyNjVMNC41NTk3MyA5LjA1NzI2QzQuNzMyNzYgOS4xMTYxOCA0LjkxNDMzIDkuMTY0NTUgNS4wOTc4IDkuMjA0MTZDNS41OTkyMiA5LjMxMjQxIDYuMTY3NTkgOS4zNjYwNyA2LjcyODkxIDkuMzY3MzlDNi44MjA0MyA5LjM2NzYxIDYuODk5MTkgOS4zNjkwMSA2Ljk5MDcyIDkuMzY2NDJDNy4xNzE2OSA5LjM2MTMxIDcuMzEyMTggOS4yMTA2NSA3LjMxMjE4IDkuMDI5NjFDNy4zMTIxOCA4LjgzMDA1IDcuMTQyNjkgOC42NzMwOCA2Ljk0MzE5IDguNjc4MTNDNi44Njg0NiA4LjY4MDAzIDYuODA2MjQgOC42NzgzMSA2LjczMDk0IDguNjc4MTRDNi4yMTg0NyA4LjY3NjkyIDUuNzExMyA4LjYyNzU5IDUuMjc5MTggOC41MzQzQzQuOTc3NjYgOC40NjkyIDQuNzM1MTggOC4zODczNyA0LjU1NzQyIDguMjk5OTdMNC41NTYzIDcuNDg3OTRDNC43MzAzNiA3LjU0NzM5IDQuOTEzMTIgNy41OTYxNCA1LjA5NzggNy42MzYwMUM1LjU5OTIyIDcuNzQ0MjYgNi4xNjc1OSA3Ljc5NzkyIDYuNzI4OTEgNy43OTkyNUM3LjE5MDg2IDcuODAwMzQgNy42NTcwOSA3Ljc2NjAxIDguMDg2MDQgNy42OTM2M0M4LjU0MDMgNy42MzYwMSA4LjQ5MzQ0IDYuOTQyNjYgOC4wODYwNCA3LjAyMjgyQzcuNjc4NjQgNy4xMDI5OSA3LjIwODI5IDcuMTQzNjQgNi43MzA5NCA3LjE0MjUxQzYuMjE4NDcgNy4xNDEzIDUuNzExMyA3LjA5MTk3IDUuMjc5MTggNi45OTg2OEM0Ljk3NTcyIDYuOTMzMTYgNC43MzIwNyA2Ljg1MDcgNC41NTQwMSA2Ljc2MjY3TDQuNTUyNjcgNS45MDU4NEM0LjU5OTE2IDUuOTI2NzUgNC42NDYzMSA1Ljk0NjQgNC42OTM4NiA1Ljk2NDg4QzUuMjM5ODYgNi4xNzcxNyA1Ljk1NTIgNi4yODAxNCA2LjcwOTgxIDYuMjgwMTRDNy40NzA3MSA2LjI4MDE0IDguMTkzMDYgNi4xNzU0NSA4Ljc0MzE1IDUuOTU5NjdDOC43OTA2IDUuOTQxMDYgOC44Mzc2NSA1LjkyMTI4IDguODg0MDYgNS45MDAyNUw4Ljg4NDA2IDYuNTk0NzJMOC44ODE5NiA2LjM1ODk3QzguODgxNzcgNi41Njc0NCA5LjA1MDcyIDYuNzM2NTMgOS4yNTkxOSA2LjczNjUzSDkuMzY0NTVDOS42MzEwMyA2LjczNjUzIDkuODQ3MDUgNi41MjA1MSA5Ljg0NzA0IDYuMjU0MDNMOS44NDcwMSA1LjA0NTk1QzkuODQ3MDEgNC42NzY2IDkuNjgzOTcgNC4zODMxOCA5LjQ3NzM2IDQuMTc0MzFDOS4yNzcxNiAzLjk3MTkxIDkuMDE2NjYgMy44MjU3NiA4Ljc0MzAxIDMuNzE4NDFDOC4xOTI5MSAzLjUwMjY0IDcuNDcwNTYgMy4zOTc5NSA2LjcwOTY2IDMuMzk3OTVDNS45NDg3NiAzLjM5Nzk1IDUuMjMxNTYgMy41MDI2MyA0LjY4NTQ0IDMuNzE4OTdaIiBjbGlwLXJ1bGU9ImV2ZW5vZGQiIGZpbGwtcnVsZT0iZXZlbm9kZCIvPiYjeGE7PHBhdGggZmlsbD0idXJsKCNwYWludDJfbGluZWFyXzM4OTBfMjE1MjApIiBkPSJNMTAuNTUwMSA3LjQzNDQyQzEwLjU4NzQgNy4xOTU3IDEwLjgxMTIgNy4wMzI0NCAxMS4wNDk5IDcuMDY5NzdDMTEuOTA2NCA3LjIwMzcyIDEyLjc0ODggNy42MTA5IDEzLjQ0MTYgOC4zMDc1NkMxMy42MTIgOC40Nzg4OSAxMy42MTEzIDguNzU1OSAxMy40Mzk5IDguOTI2MjhDMTMuMjY4NiA5LjA5NjY2IDEyLjk5MTYgOS4wOTU5IDEyLjgyMTIgOC45MjQ1OEMxMi4yNjA2IDguMzYwODkgMTEuNTg4NiA4LjAzOTY1IDEwLjkxNDcgNy45MzQyNkMxMC42NzYgNy44OTY5MyAxMC41MTI4IDcuNjczMTQgMTAuNTUwMSA3LjQzNDQyWiIgY2xpcC1ydWxlPSJldmVub2RkIiBmaWxsLXJ1bGU9ImV2ZW5vZGQiLz4mI3hhOzxwYXRoIGZpbGw9InVybCgjcGFpbnQzX2xpbmVhcl8zODkwXzIxNTIwKSIgZD0iTTEwLjkzMzcgMTEuMTcwNEMxMC45MzM3IDEwLjkyODggMTAuNzM3OSAxMC43MzI5IDEwLjQ5NjIgMTAuNzMyOUMxMC4yNTQ2IDEwLjczMjkgMTAuMDU4NyAxMC45Mjg4IDEwLjA1ODcgMTEuMTcwNEMxMC4wNTg3IDExLjUxNCAxMC4xNTA4IDExLjg4MDIgMTAuMzM0MiAxMi4xNzY0QzEwLjM1MzEgMTIuMjA3IDEwLjM3MjIgMTIuMjM3NCAxMC4zOTUxIDEyLjI2NDlDMTAuNTM3NCAxMi40MzUgMTAuNzk0NiAxMi40NzM2IDEwLjk4MDMgMTIuMzQ1NEMxMS4xNzggMTIuMjA4OCAxMS4yMjg0IDExLjkzODUgMTEuMDkzOCAxMS43NEMxMC45ODg2IDExLjU3MzggMTAuOTMzNyAxMS4zNjU3IDEwLjkzMzcgMTEuMTcwNFoiLz4mI3hhOzxwYXRoIGZpbGw9InVybCgjcGFpbnQ0X2xpbmVhcl8zODkwXzIxNTIwKSIgZD0iTTEzLjI4NTYgMTAuOTAwM0MxMy4zMzE2IDkuNzc0MDMgMTIuNDY0NCA4LjgyOTkxIDExLjQ1NDkgOC40NTA4MUMxMC40MDkzIDguMDU4MTMgOS4xMDEzMSA4LjIxOTk5IDguMTk2MTIgOS4zOTc2OEM4LjA0ODg3IDkuNTg5MjUgOC4wODQ4IDkuODYzOTIgOC4yNzYzNyAxMC4wMTEyQzguNDY3OTUgMTAuMTU4NCA4Ljc0MjYyIDEwLjEyMjUgOC44ODk4NyA5LjkzMDkxQzkuNTI3MDIgOS4xMDE5NiAxMC40MDc4IDguOTkyMjQgMTEuMTQ3MyA5LjI2OTk1QzExLjkyMyA5LjU2MTI2IDEyLjQzNzMgMTAuMjI5NSAxMi40MTEzIDEwLjg2NDVDMTIuNDA2NSAxMC45ODI1IDEyLjM2NjcgMTEuMDQyNCAxMi4zMzYyIDExLjA3MjJDMTIuMzAxOCAxMS4xMDU5IDEyLjI1NzUgMTEuMTIyOSAxMi4yMTUxIDExLjEyMzdDMTIuMTczNiAxMS4xMjQ1IDEyLjE0MjUgMTEuMTEwMyAxMi4xMjE4IDExLjA4OTRDMTIuMTA0MSAxMS4wNzE3IDEyLjA2MzIgMTEuMDE4IDEyLjA2MzIgMTAuODgyNEMxMi4wNjMyIDEwLjUwODIgMTEuODI1NyAxMC4xMDcxIDExLjQ4MTMgOS44NDg2QzExLjExMDQgOS41NzAyMyAxMC41ODU2IDkuNDI4MDkgOS45Njg5NSA5LjU5ODI1TDkuOTU5OTIgOS42MDA3NUw5Ljk1MSA5LjYwMzYyQzkuMzYwNDcgOS43OTQxMiA4Ljk4Mzc5IDEwLjM0NjEgOC44OTkxNiAxMC45OTExQzguODEzNjkgMTEuNjQyNCA5LjAxMzc5IDEyLjQwODYgOS41NjU4NyAxMy4xNTM2QzkuNzA5NzMgMTMuMzQ3OCA5Ljk4MzczIDEzLjM4ODUgMTAuMTc3OSAxMy4yNDQ3QzEwLjM3MiAxMy4xMDA4IDEwLjQxMjcgMTIuODI2OCAxMC4yNjg5IDEyLjYzMjdDOS44MjU0NSAxMi4wMzQzIDkuNzE2MDcgMTEuNDkwOSA5Ljc2NjcyIDExLjEwNDlDOS44MTc1MSAxMC43MTc5IDEwLjAxNzcgMTAuNTA1NSAxMC4yMTE2IDEwLjQzOUMxMC41NTggMTAuMzQ2MyAxMC44MDAzIDEwLjQzMTUgMTAuOTU2IDEwLjU0ODRDMTEuMDM5NSAxMC42MTEgMTEuMTAxNCAxMC42ODU1IDExLjE0MDkgMTAuNzU0OUMxMS4xODMgMTAuODI2OSAxMS4xODY1IDEwLjg2MzUgMTEuMTg4OSAxMC45MjgzQzExLjE5ODQgMTEuMjM3OCAxMS4zMDUyIDExLjUwOTMgMTEuNTAxNSAxMS43MDY2QzExLjcwNDQgMTEuOTEwNSAxMS45NzIzIDEyLjAwMzYgMTIuMjMyIDExLjk5ODZDMTIuNzY0NiAxMS45ODgzIDEzLjI1ODIgMTEuNTcyMyAxMy4yODU2IDEwLjkwMDNaIi8+JiN4YTs8L2c+JiN4YTs8ZGVmcz4mI3hhOzxsaW5lYXJHcmFkaWVudCBncmFkaWVudFVuaXRzPSJ1c2VyU3BhY2VPblVzZSIgeTI9IjE0Ljc0NTgiIHgyPSIxMy42ODQ5IiB5MT0iMi4yNjg5NCIgeDE9IjEuNDQ3OTkiIGlkPSJwYWludDBfbGluZWFyXzM4OTBfMjE1MjAiPiYjeGE7PHN0b3Agc3RvcC1jb2xvcj0id2hpdGUiLz4mI3hhOzxzdG9wIHN0b3AtY29sb3I9IiNFQUVDRUUiIG9mZnNldD0iMSIvPiYjeGE7PC9saW5lYXJHcmFkaWVudD4mI3hhOzxsaW5lYXJHcmFkaWVudCBncmFkaWVudFVuaXRzPSJ1c2VyU3BhY2VPblVzZSIgeTI9IjguODQ0NTUiIHgyPSIxMC4wMzMzIiB5MT0iNC42MTI5OSIgeDE9IjQuNTM0MDUiIGlkPSJwYWludDFfbGluZWFyXzM4OTBfMjE1MjAiPiYjeGE7PHN0b3Agc3RvcC1jb2xvcj0iIzAxOTVGRiIvPiYjeGE7PHN0b3Agc3RvcC1jb2xvcj0iIzExNDdFOSIgb2Zmc2V0PSIwLjk5MTAyOCIvPiYjeGE7PC9saW5lYXJHcmFkaWVudD4mI3hhOzxsaW5lYXJHcmFkaWVudCBncmFkaWVudFVuaXRzPSJ1c2VyU3BhY2VPblVzZSIgeTI9IjExLjc5MjgiIHgyPSIxMy4yNjAyIiB5MT0iNy45ODYzNSIgeDE9IjguOTEzMjEiIGlkPSJwYWludDJfbGluZWFyXzM4OTBfMjE1MjAiPiYjeGE7PHN0b3Agc3RvcC1jb2xvcj0iIzEzNDhGRiIvPiYjeGE7PHN0b3Agc3RvcC1jb2xvcj0iIzA2MjM4RCIgb2Zmc2V0PSIxIi8+JiN4YTs8L2xpbmVhckdyYWRpZW50PiYjeGE7PGxpbmVhckdyYWRpZW50IGdyYWRpZW50VW5pdHM9InVzZXJTcGFjZU9uVXNlIiB5Mj0iMTEuNzkyOCIgeDI9IjEzLjI2MDIiIHkxPSI3Ljk4NjM1IiB4MT0iOC45MTMyMSIgaWQ9InBhaW50M19saW5lYXJfMzg5MF8yMTUyMCI+JiN4YTs8c3RvcCBzdG9wLWNvbG9yPSIjMTM0OEZGIi8+JiN4YTs8c3RvcCBzdG9wLWNvbG9yPSIjMDYyMzhEIiBvZmZzZXQ9IjEiLz4mI3hhOzwvbGluZWFyR3JhZGllbnQ+JiN4YTs8bGluZWFyR3JhZGllbnQgZ3JhZGllbnRVbml0cz0idXNlclNwYWNlT25Vc2UiIHkyPSIxMS43OTI4IiB4Mj0iMTMuMjYwMiIgeTE9IjcuOTg2MzUiIHgxPSI4LjkxMzIxIiBpZD0icGFpbnQ0X2xpbmVhcl8zODkwXzIxNTIwIj4mI3hhOzxzdG9wIHN0b3AtY29sb3I9IiMxMzQ4RkYiLz4mI3hhOzxzdG9wIHN0b3AtY29sb3I9IiMwNjIzOEQiIG9mZnNldD0iMSIvPiYjeGE7PC9saW5lYXJHcmFkaWVudD4mI3hhOzxjbGlwUGF0aCBpZD0iY2xpcDBfMzg5MF8yMTUyMCI+JiN4YTs8cmVjdCB0cmFuc2Zvcm09InRyYW5zbGF0ZSgzLjU5NzE3IDMuMzk3OTUpIiBmaWxsPSJ3aGl0ZSIgaGVpZ2h0PSIxMCIgd2lkdGg9IjEwIi8+JiN4YTs8L2NsaXBQYXRoPiYjeGE7PC9kZWZzPiYjeGE7PC9zdmc+;fontStyle=0;fontSize=12;fontColor=#1D2D3E" parent="BOSDDkHsfuaanqrSLqfU-46" vertex="1">
          <mxGeometry x="117.98999999999954" y="14.500000000000007" width="32" height="32" as="geometry" />
        </mxCell>
        <mxCell id="1Vq5t9I849oIyW8mgQiL-4" value="Identity&#xa;Authentication" style="shape=image;verticalLabelPosition=bottom;labelBackgroundColor=default;verticalAlign=top;aspect=fixed;imageAspect=0;image=data:image/svg+xml,PHN2ZyB4bWxucz0iaHR0cDovL3d3dy53My5vcmcvMjAwMC9zdmciIGZpbGw9Im5vbmUiIHZpZXdCb3g9IjAgMCAxNiAxNiIgaGVpZ2h0PSIxNiIgd2lkdGg9IjE2Ij4mI3hhOzxjaXJjbGUgc3Ryb2tlLXdpZHRoPSIwLjI4NTcwOCIgc3Ryb2tlPSIjRDVEQUREIiBmaWxsPSJ1cmwoI3BhaW50MF9saW5lYXJfMzg5MF8yMTUxMykiIHI9IjcuODU2OTYiIGN5PSI3Ljk5Nzg2IiBjeD0iNy45OTkzMyIvPiYjeGE7PHBhdGggZmlsbD0idXJsKCNwYWludDFfbGluZWFyXzM4OTBfMjE1MTMpIiBkPSJNNy4xNzQ4NCAzLjQxNDlMMTAuMTkzNiA0LjI4NTYxSDEwLjE5MjhDMTAuNDA2NSA0LjM0MjkgMTAuNTEzMyA0LjQ4NDkzIDEwLjUxMzMgNC43MTI0OVY2LjIzMDQ0QzEwLjAxNjEgNi4zNzgwNSA5LjY1MjU1IDYuNzY4MjQgOS41NTU4MyA3LjQ0NTUzQzkuNTU1ODMgNy40NDU1MyA5LjI2OTcxIDcuNDYxODcgOC42MzQ4NiA3LjgwMTE2QzggOC4xNDA0NCA3LjU2MzcxIDguNjkwNTQgNy41NjM3MSA4LjY5MDU0QzcuMTM3NDggOS4xNzM1MSA3LjAzMzEyIDkuNDk2MjYgNy4xODA2NiAxMC4yMDMxQzcuMzcwMDQgMTAuNjQzNyA3LjUzMjQ4IDEwLjgxOTggNy45MDEzMSAxMS4wMzQxQzcuOTAxMzEgMTEuMDM0MSA3Ljg1MTMxIDExLjI5OTYgNy45MDI2NCAxMS43Mzc3QzcuNzU0NzYgMTEuODI3OSA3LjYyNDQgMTEuOTAxNCA3LjUxMTY3IDExLjk1ODZDNy4zNDMwNiAxMi4wNDQyIDcuMjQ3MzkgMTIuMDkyNiA3LjIyNTA2IDEyLjEwMzlDNy4xNTc3IDEyLjEyNjkgNy4xMDE0OSAxMi4xMzgyIDcuMDU2NDUgMTIuMTM4MkM3LjAxMTQgMTIuMTM4MiA2Ljk1NTIgMTIuMTI2NSA2Ljg4NzgzIDEyLjEwMzlDNi44NjUxMSAxMi4wOTI2IDYuNzY5ODQgMTIuMDQ3IDYuNjAxMjIgMTEuOTY3NUM2LjQzMjYxIDExLjg4NzYgNi4yMjQ1MyAxMS43NjU0IDUuOTc3MzggMTEuNjAwM0M1LjczMDI0IDExLjQzNTMgNS40Njg3NCAxMS4yMzMyIDUuMTkzMjkgMTAuOTk0M0M0LjkxNzg1IDEwLjc1NTQgNC42NjE5MyAxMC40NzY2IDQuNDI1OTUgMTAuMTU3OUM0LjE4OTU3IDkuODM5NTQgMy45OTMwNSA5LjQ4MTI1IDMuODM1NTkgOS4wODI2MUMzLjY3ODE0IDguNjg0MzcgMy41OTk2MSA4LjI0NjE5IDMuNTk5NjEgNy43NjgwNlY0LjcxMjQ5QzMuNTk5NjEgNC40ODQ5MyAzLjcwNjQ0IDQuMzQyNSAzLjkyMDEgNC4yODU2MUw2LjkzODg1IDMuNDE0OUM3LjAwNjIyIDMuMzkyMyA3LjA4NDc1IDMuMzkyMyA3LjE3NDg0IDMuNDE0OVoiLz4mI3hhOzxwYXRoIGZpbGw9InVybCgjcGFpbnQyX2xpbmVhcl8zODkwXzIxNTEzKSIgZD0iTTEwLjU1MjUgNy41MTg4OUMxMC41ODk5IDcuMjgwMTcgMTAuODEzNiA3LjExNjkxIDExLjA1MjQgNy4xNTQyNEMxMS45MDg5IDcuMjg4MTkgMTIuNzUxMiA3LjY5NTM3IDEzLjQ0NDEgOC4zOTIwNEMxMy42MTQ1IDguNTYzMzYgMTMuNjEzNyA4Ljg0MDM3IDEzLjQ0MjQgOS4wMTA3NUMxMy4yNzExIDkuMTgxMTQgMTIuOTk0MSA5LjE4MDM3IDEyLjgyMzcgOS4wMDkwNUMxMi4yNjMxIDguNDQ1MzYgMTEuNTkxMSA4LjEyNDEyIDEwLjkxNzIgOC4wMTg3M0MxMC42Nzg1IDcuOTgxNCAxMC41MTUyIDcuNzU3NjEgMTAuNTUyNSA3LjUxODg5WiIgY2xpcC1ydWxlPSJldmVub2RkIiBmaWxsLXJ1bGU9ImV2ZW5vZGQiLz4mI3hhOzxwYXRoIGZpbGw9InVybCgjcGFpbnQzX2xpbmVhcl8zODkwXzIxNTEzKSIgZD0iTTEwLjkzNjIgMTEuMjU0OUMxMC45MzYyIDExLjAxMzMgMTAuNzQwMyAxMC44MTc0IDEwLjQ5ODcgMTAuODE3NEMxMC4yNTcxIDEwLjgxNzQgMTAuMDYxMiAxMS4wMTMzIDEwLjA2MTIgMTEuMjU0OUMxMC4wNjEyIDExLjU5ODUgMTAuMTUzMiAxMS45NjQ2IDEwLjMzNjYgMTIuMjYwOUMxMC4zNTU1IDEyLjI5MTQgMTAuMzc0NiAxMi4zMjE5IDEwLjM5NzYgMTIuMzQ5M0MxMC41Mzk4IDEyLjUxOTUgMTAuNzk3IDEyLjU1ODEgMTAuOTgyNyAxMi40Mjk4QzExLjE4MDUgMTIuMjkzMiAxMS4yMzA4IDEyLjAyMjkgMTEuMDk2MiAxMS44MjQ0QzEwLjk5MSAxMS42NTgzIDEwLjkzNjIgMTEuNDUwMiAxMC45MzYyIDExLjI1NDlaIi8+JiN4YTs8cGF0aCBmaWxsPSJ1cmwoI3BhaW50NF9saW5lYXJfMzg5MF8yMTUxMykiIGQ9Ik0xMy4yODggMTAuOTg0N0MxMy4zMzQxIDkuODU4NSAxMi40NjY4IDguOTE0MzggMTEuNDU3MyA4LjUzNTI5QzEwLjQxMTcgOC4xNDI2IDkuMTAzNzUgOC4zMDQ0NiA4LjE5ODU2IDkuNDgyMTVDOC4wNTEzMSA5LjY3MzcyIDguMDg3MjQgOS45NDgzOSA4LjI3ODgyIDEwLjA5NTZDOC40NzAzOSAxMC4yNDI5IDguNzQ1MDYgMTAuMjA3IDguODkyMzEgMTAuMDE1NEM5LjUyOTQ2IDkuMTg2NDMgMTAuNDEwMiA5LjA3NjcxIDExLjE0OTcgOS4zNTQ0M0MxMS45MjU0IDkuNjQ1NzMgMTIuNDM5NyAxMC4zMTQgMTIuNDEzOCAxMC45NDlDMTIuNDA5IDExLjA2NyAxMi4zNjkyIDExLjEyNjkgMTIuMzM4NiAxMS4xNTY3QzEyLjMwNDMgMTEuMTkwNCAxMi4yNTk5IDExLjIwNzQgMTIuMjE3NiAxMS4yMDgyQzEyLjE3NjEgMTEuMjA5IDEyLjE0NSAxMS4xOTQ3IDEyLjEyNDIgMTEuMTczOUMxMi4xMDY2IDExLjE1NjEgMTIuMDY1NiAxMS4xMDI0IDEyLjA2NTYgMTAuOTY2OUMxMi4wNjU2IDEwLjU5MjYgMTEuODI4MiAxMC4xOTE2IDExLjQ4MzcgOS45MzMwOEMxMS4xMTI4IDkuNjU0NzEgMTAuNTg4MSA5LjUxMjU3IDkuOTcxMzkgOS42ODI3M0w5Ljk2MjM2IDkuNjg1MjJMOS45NTM0NCA5LjY4ODA5QzkuMzYyOTEgOS44Nzg1OSA4Ljk4NjIzIDEwLjQzMDYgOC45MDE2IDExLjA3NTVDOC44MTYxMyAxMS43MjY5IDkuMDE2MjMgMTIuNDkzMSA5LjU2ODMxIDEzLjIzODFDOS43MTIxNyAxMy40MzIyIDkuOTg2MTcgMTMuNDczIDEwLjE4MDMgMTMuMzI5MUMxMC4zNzQ0IDEzLjE4NTMgMTAuNDE1MiAxMi45MTEzIDEwLjI3MTMgMTIuNzE3MUM5LjgyNzkgMTIuMTE4OCA5LjcxODUyIDExLjU3NTMgOS43NjkxNiAxMS4xODk0QzkuODE5OTUgMTAuODAyNCAxMC4wMjAxIDEwLjU5IDEwLjIxNCAxMC41MjM1QzEwLjU2MDUgMTAuNDMwOCAxMC44MDI4IDEwLjUxNiAxMC45NTg1IDEwLjYzMjlDMTEuMDQxOSAxMC42OTU1IDExLjEwMzkgMTAuNzcgMTEuMTQzNCAxMC44Mzk0QzExLjE4NTQgMTAuOTExNCAxMS4xODg5IDEwLjk0OCAxMS4xOTEzIDExLjAxMjhDMTEuMjAwOSAxMS4zMjIzIDExLjMwNzYgMTEuNTkzNyAxMS41MDQgMTEuNzkxMUMxMS43MDY5IDExLjk5NSAxMS45NzQ3IDEyLjA4ODEgMTIuMjM0NSAxMi4wODNDMTIuNzY3IDEyLjA3MjcgMTMuMjYwNiAxMS42NTY4IDEzLjI4OCAxMC45ODQ3WiIvPiYjeGE7PGRlZnM+JiN4YTs8bGluZWFyR3JhZGllbnQgZ3JhZGllbnRVbml0cz0idXNlclNwYWNlT25Vc2UiIHkyPSIxNC43NDU4IiB4Mj0iMTMuNjg3NCIgeTE9IjIuMjY4OTQiIHgxPSIxLjQ1MDQzIiBpZD0icGFpbnQwX2xpbmVhcl8zODkwXzIxNTEzIj4mI3hhOzxzdG9wIHN0b3AtY29sb3I9IndoaXRlIi8+JiN4YTs8c3RvcCBzdG9wLWNvbG9yPSIjRUFFQ0VFIiBvZmZzZXQ9IjEiLz4mI3hhOzwvbGluZWFyR3JhZGllbnQ+JiN4YTs8bGluZWFyR3JhZGllbnQgZ3JhZGllbnRVbml0cz0idXNlclNwYWNlT25Vc2UiIHkyPSI5LjQxNzg5IiB4Mj0iMTAuNTkxOSIgeTE9IjQuNzA1IiB4MT0iNC42MzYiIGlkPSJwYWludDFfbGluZWFyXzM4OTBfMjE1MTMiPiYjeGE7PHN0b3Agc3RvcC1jb2xvcj0iIzAxOTVGRiIvPiYjeGE7PHN0b3Agc3RvcC1jb2xvcj0iIzExNDdFOSIgb2Zmc2V0PSIwLjk5MTAyOCIvPiYjeGE7PC9saW5lYXJHcmFkaWVudD4mI3hhOzxsaW5lYXJHcmFkaWVudCBncmFkaWVudFVuaXRzPSJ1c2VyU3BhY2VPblVzZSIgeTI9IjExLjg3NzMiIHgyPSIxMy4yNjI3IiB5MT0iOC4wNzA4MiIgeDE9IjguOTE1NjUiIGlkPSJwYWludDJfbGluZWFyXzM4OTBfMjE1MTMiPiYjeGE7PHN0b3Agc3RvcC1jb2xvcj0iIzEzNDhGRiIvPiYjeGE7PHN0b3Agc3RvcC1jb2xvcj0iIzA2MjM4RCIgb2Zmc2V0PSIxIi8+JiN4YTs8L2xpbmVhckdyYWRpZW50PiYjeGE7PGxpbmVhckdyYWRpZW50IGdyYWRpZW50VW5pdHM9InVzZXJTcGFjZU9uVXNlIiB5Mj0iMTEuODc3MyIgeDI9IjEzLjI2MjciIHkxPSI4LjA3MDgyIiB4MT0iOC45MTU2NSIgaWQ9InBhaW50M19saW5lYXJfMzg5MF8yMTUxMyI+JiN4YTs8c3RvcCBzdG9wLWNvbG9yPSIjMTM0OEZGIi8+JiN4YTs8c3RvcCBzdG9wLWNvbG9yPSIjMDYyMzhEIiBvZmZzZXQ9IjEiLz4mI3hhOzwvbGluZWFyR3JhZGllbnQ+JiN4YTs8bGluZWFyR3JhZGllbnQgZ3JhZGllbnRVbml0cz0idXNlclNwYWNlT25Vc2UiIHkyPSIxMS44NzczIiB4Mj0iMTMuMjYyNyIgeTE9IjguMDcwODIiIHgxPSI4LjkxNTY1IiBpZD0icGFpbnQ0X2xpbmVhcl8zODkwXzIxNTEzIj4mI3hhOzxzdG9wIHN0b3AtY29sb3I9IiMxMzQ4RkYiLz4mI3hhOzxzdG9wIHN0b3AtY29sb3I9IiMwNjIzOEQiIG9mZnNldD0iMSIvPiYjeGE7PC9saW5lYXJHcmFkaWVudD4mI3hhOzwvZGVmcz4mI3hhOzwvc3ZnPg==;fontStyle=0;fontSize=12;fontColor=#1D2D3E" parent="BOSDDkHsfuaanqrSLqfU-46" vertex="1">
          <mxGeometry x="197.99999999999955" y="14.5" width="32" height="32" as="geometry" />
        </mxCell>
        <mxCell id="1Vq5t9I849oIyW8mgQiL-5" value="Identity&#xa;Provisioning" style="shape=image;verticalLabelPosition=bottom;labelBackgroundColor=default;verticalAlign=top;aspect=fixed;imageAspect=0;image=data:image/svg+xml,PHN2ZyB4bWxucz0iaHR0cDovL3d3dy53My5vcmcvMjAwMC9zdmciIGZpbGw9Im5vbmUiIHZpZXdCb3g9IjAgMCAxNiAxNiIgaGVpZ2h0PSIxNiIgd2lkdGg9IjE2Ij4mI3hhOzxjaXJjbGUgc3Ryb2tlLXdpZHRoPSIwLjI4NTcwOCIgc3Ryb2tlPSIjRDVEQUREIiBmaWxsPSJ1cmwoI3BhaW50MF9saW5lYXJfMzg5MF8yMTUxNCkiIHI9IjcuODU2OTYiIGN5PSI3Ljk5Nzg2IiBjeD0iNy45OTg4NCIvPiYjeGE7PHBhdGggZmlsbD0idXJsKCNwYWludDFfbGluZWFyXzM4OTBfMjE1MTQpIiBkPSJNOS45NTE5NCA3LjUxODg5QzkuOTg5MjcgNy4yODAxNyAxMC4yMTMxIDcuMTE2OTEgMTAuNDUxOCA3LjE1NDI0QzExLjMwODMgNy4yODgxOSAxMi4xNTA3IDcuNjk1MzcgMTIuODQzNSA4LjM5MjA0QzEzLjAxMzkgOC41NjMzNiAxMy4wMTMxIDguODQwMzcgMTIuODQxOCA5LjAxMDc1QzEyLjY3MDUgOS4xODExNCAxMi4zOTM1IDkuMTgwMzcgMTIuMjIzMSA5LjAwOTA1QzExLjY2MjUgOC40NDUzNiAxMC45OTA1IDguMTI0MTIgMTAuMzE2NiA4LjAxODczQzEwLjA3NzkgNy45ODE0IDkuOTE0NjEgNy43NTc2MSA5Ljk1MTk0IDcuNTE4ODlaIiBjbGlwLXJ1bGU9ImV2ZW5vZGQiIGZpbGwtcnVsZT0iZXZlbm9kZCIvPiYjeGE7PHBhdGggZmlsbD0idXJsKCNwYWludDJfbGluZWFyXzM4OTBfMjE1MTQpIiBkPSJNMTAuMzM1NiAxMS4yNTQ5QzEwLjMzNTYgMTEuMDEzMyAxMC4xMzk3IDEwLjgxNzQgOS44OTgwOSAxMC44MTc0QzkuNjU2NDcgMTAuODE3NCA5LjQ2MDU5IDExLjAxMzMgOS40NjA1OSAxMS4yNTQ5QzkuNDYwNTkgMTEuNTk4NSA5LjU1MjY0IDExLjk2NDYgOS43MzYwMSAxMi4yNjA5QzkuNzU0OTQgMTIuMjkxNCA5Ljc3NDAxIDEyLjMyMTkgOS43OTY5NyAxMi4zNDkzQzkuOTM5MjIgMTIuNTE5NSAxMC4xOTY1IDEyLjU1ODEgMTAuMzgyMiAxMi40Mjk4QzEwLjU3OTkgMTIuMjkzMiAxMC42MzAyIDEyLjAyMjkgMTAuNDk1NiAxMS44MjQ0QzEwLjM5MDQgMTEuNjU4MyAxMC4zMzU2IDExLjQ1MDIgMTAuMzM1NiAxMS4yNTQ5WiIvPiYjeGE7PHBhdGggZmlsbD0idXJsKCNwYWludDNfbGluZWFyXzM4OTBfMjE1MTQpIiBkPSJNMTIuNjg3NSAxMC45ODQ3QzEyLjczMzUgOS44NTg1IDExLjg2NjIgOC45MTQzOCAxMC44NTY4IDguNTM1MjlDOS44MTExMiA4LjE0MjYgOC41MDMxNyA4LjMwNDQ2IDcuNTk3OTcgOS40ODIxNUM3LjQ1MDcyIDkuNjczNzIgNy40ODY2NiA5Ljk0ODM5IDcuNjc4MjMgMTAuMDk1NkM3Ljg2OTggMTAuMjQyOSA4LjE0NDQ3IDEwLjIwNyA4LjI5MTcyIDEwLjAxNTRDOC45Mjg4NyA5LjE4NjQzIDkuODA5NjQgOS4wNzY3MSAxMC41NDkxIDkuMzU0NDNDMTEuMzI0OCA5LjY0NTczIDExLjgzOTEgMTAuMzE0IDExLjgxMzIgMTAuOTQ5QzExLjgwODQgMTEuMDY3IDExLjc2ODYgMTEuMTI2OSAxMS43MzgxIDExLjE1NjdDMTEuNzAzNyAxMS4xOTA0IDExLjY1OTMgMTEuMjA3NCAxMS42MTcgMTEuMjA4MkMxMS41NzU1IDExLjIwOSAxMS41NDQ0IDExLjE5NDcgMTEuNTIzNyAxMS4xNzM5QzExLjUwNiAxMS4xNTYxIDExLjQ2NSAxMS4xMDI0IDExLjQ2NSAxMC45NjY5QzExLjQ2NSAxMC41OTI2IDExLjIyNzYgMTAuMTkxNiAxMC44ODMxIDkuOTMzMDhDMTAuNTEyMyA5LjY1NDcxIDkuOTg3NSA5LjUxMjU3IDkuMzcwODEgOS42ODI3M0w5LjM2MTc4IDkuNjg1MjJMOS4zNTI4NiA5LjY4ODA5QzguNzYyMzIgOS44Nzg1OSA4LjM4NTY1IDEwLjQzMDYgOC4zMDEwMSAxMS4wNzU1QzguMjE1NTQgMTEuNzI2OSA4LjQxNTY1IDEyLjQ5MzEgOC45Njc3MyAxMy4yMzgxQzkuMTExNTkgMTMuNDMyMiA5LjM4NTU4IDEzLjQ3MyA5LjU3OTcxIDEzLjMyOTFDOS43NzM4NSAxMy4xODUzIDkuODE0NiAxMi45MTEzIDkuNjcwNzQgMTIuNzE3MUM5LjIyNzMxIDEyLjExODggOS4xMTc5MyAxMS41NzUzIDkuMTY4NTggMTEuMTg5NEM5LjIxOTM2IDEwLjgwMjQgOS40MTk1NSAxMC41OSA5LjYxMzQ2IDEwLjUyMzVDOS45NTk4OCAxMC40MzA4IDEwLjIwMjIgMTAuNTE2IDEwLjM1NzkgMTAuNjMyOUMxMC40NDEzIDEwLjY5NTUgMTAuNTAzMyAxMC43NyAxMC41NDI4IDEwLjgzOTRDMTAuNTg0OCAxMC45MTE0IDEwLjU4ODMgMTAuOTQ4IDEwLjU5MDcgMTEuMDEyOEMxMC42MDAzIDExLjMyMjMgMTAuNzA3MSAxMS41OTM3IDEwLjkwMzQgMTEuNzkxMUMxMS4xMDYzIDExLjk5NSAxMS4zNzQxIDEyLjA4ODEgMTEuNjMzOSAxMi4wODNDMTIuMTY2NCAxMi4wNzI3IDEyLjY2IDExLjY1NjggMTIuNjg3NSAxMC45ODQ3WiIvPiYjeGE7PHBhdGggZmlsbD0idXJsKCNwYWludDRfbGluZWFyXzM4OTBfMjE1MTQpIiBkPSJNOC41NzMzMSA3LjI4NTg0QzguMzc4MDUgNy40ODExMSA4LjA2MTQ3IDcuNDgxMTEgNy44NjYyMSA3LjI4NTg1QzcuNjcwOTQgNy4wOTA1OSA3LjY3MDk0IDYuNzc0IDcuODY2MiA2LjU3ODc0TDguNTI5OCA1LjkxNTEzSDQuNTcwNzdDNC4yOTQ2MiA1LjkxNTEzIDQuMDcwNzcgNS42OTEyNyA0LjA3MDc3IDUuNDE1MTNDNC4wNzA3NyA1LjEzODk5IDQuMjk0NjIgNC45MTUxMyA0LjU3MDc3IDQuOTE1MTNIOC41Mjk4MUw3Ljg2NjIgNC4yNTE1QzcuNjcwOTQgNC4wNTYyMyA3LjY3MDk0IDMuNzM5NjUgNy44NjYyMSAzLjU0NDM5QzguMDYxNDcgMy4zNDkxMyA4LjM3ODA1IDMuMzQ5MTQgOC41NzMzMSAzLjU0NDRMMTAuMDkwNSA1LjA2MTU4QzEwLjI4NTcgNS4yNTY4NCAxMC4yODU3IDUuNTczNDIgMTAuMDkwNSA1Ljc2ODY4TDguNTczMzEgNy4yODU4NFoiLz4mI3hhOzxwYXRoIGZpbGw9InVybCgjcGFpbnQ1X2xpbmVhcl8zODkwXzIxNTE0KSIgZD0iTTQuNjYyNjEgNi43NzE2MkM0Ljg1Nzg3IDYuNTc2MzUgNS4xNzQ0NSA2LjU3NjM1IDUuMzY5NzIgNi43NzE2MUM1LjU2NDk4IDYuOTY2ODcgNS41NjQ5OCA3LjI4MzQ2IDUuMzY5NzIgNy40Nzg3Mkw0LjcwNjEyIDguMTQyMzNINi40MTIzOEM2LjY4ODUyIDguMTQyMzMgNi45MTIzOCA4LjM2NjE5IDYuOTEyMzggOC42NDIzM0M2LjkxMjM4IDguOTE4NDcgNi42ODg1MiA5LjE0MjMzIDYuNDEyMzggOS4xNDIzM0g0LjcwNjExTDUuMzY5NzIgOS44MDU5NkM1LjU2NDk4IDEwLjAwMTIgNS41NjQ5OCAxMC4zMTc4IDUuMzY5NzIgMTAuNTEzMUM1LjE3NDQ1IDEwLjcwODMgNC44NTc4NyAxMC43MDgzIDQuNjYyNjEgMTAuNTEzMUwzLjE0NTQ3IDguOTk1ODhDMi45NTAyMSA4LjgwMDYyIDIuOTUwMjEgOC40ODQwNCAzLjE0NTQ3IDguMjg4NzhMNC42NjI2MSA2Ljc3MTYyWiIvPiYjeGE7PGRlZnM+JiN4YTs8bGluZWFyR3JhZGllbnQgZ3JhZGllbnRVbml0cz0idXNlclNwYWNlT25Vc2UiIHkyPSIxNC43NDU4IiB4Mj0iMTMuNjg2OSIgeTE9IjIuMjY4OTQiIHgxPSIxLjQ0OTk1IiBpZD0icGFpbnQwX2xpbmVhcl8zODkwXzIxNTE0Ij4mI3hhOzxzdG9wIHN0b3AtY29sb3I9IndoaXRlIi8+JiN4YTs8c3RvcCBzdG9wLWNvbG9yPSIjRUFFQ0VFIiBvZmZzZXQ9IjEiLz4mI3hhOzwvbGluZWFyR3JhZGllbnQ+JiN4YTs8bGluZWFyR3JhZGllbnQgZ3JhZGllbnRVbml0cz0idXNlclNwYWNlT25Vc2UiIHkyPSIxMS44NzczIiB4Mj0iMTIuNjYyMSIgeTE9IjguMDcwODIiIHgxPSI4LjMxNTA2IiBpZD0icGFpbnQxX2xpbmVhcl8zODkwXzIxNTE0Ij4mI3hhOzxzdG9wIHN0b3AtY29sb3I9IiMxMzQ4RkYiLz4mI3hhOzxzdG9wIHN0b3AtY29sb3I9IiMwNjIzOEQiIG9mZnNldD0iMSIvPiYjeGE7PC9saW5lYXJHcmFkaWVudD4mI3hhOzxsaW5lYXJHcmFkaWVudCBncmFkaWVudFVuaXRzPSJ1c2VyU3BhY2VPblVzZSIgeTI9IjExLjg3NzMiIHgyPSIxMi42NjIxIiB5MT0iOC4wNzA4MiIgeDE9IjguMzE1MDYiIGlkPSJwYWludDJfbGluZWFyXzM4OTBfMjE1MTQiPiYjeGE7PHN0b3Agc3RvcC1jb2xvcj0iIzEzNDhGRiIvPiYjeGE7PHN0b3Agc3RvcC1jb2xvcj0iIzA2MjM4RCIgb2Zmc2V0PSIxIi8+JiN4YTs8L2xpbmVhckdyYWRpZW50PiYjeGE7PGxpbmVhckdyYWRpZW50IGdyYWRpZW50VW5pdHM9InVzZXJTcGFjZU9uVXNlIiB5Mj0iMTEuODc3MyIgeDI9IjEyLjY2MjEiIHkxPSI4LjA3MDgyIiB4MT0iOC4zMTUwNiIgaWQ9InBhaW50M19saW5lYXJfMzg5MF8yMTUxNCI+JiN4YTs8c3RvcCBzdG9wLWNvbG9yPSIjMTM0OEZGIi8+JiN4YTs8c3RvcCBzdG9wLWNvbG9yPSIjMDYyMzhEIiBvZmZzZXQ9IjEiLz4mI3hhOzwvbGluZWFyR3JhZGllbnQ+JiN4YTs8bGluZWFyR3JhZGllbnQgZ3JhZGllbnRVbml0cz0idXNlclNwYWNlT25Vc2UiIHkyPSI5LjU1MzU0IiB4Mj0iOS4xNjg1IiB5MT0iNC40ODM4NyIgeDE9IjQuMDg0MDEiIGlkPSJwYWludDRfbGluZWFyXzM4OTBfMjE1MTQiPiYjeGE7PHN0b3Agc3RvcC1jb2xvcj0iIzAxOTVGRiIvPiYjeGE7PHN0b3Agc3RvcC1jb2xvcj0iIzExNDdFOSIgb2Zmc2V0PSIwLjk5MTAyOCIvPiYjeGE7PC9saW5lYXJHcmFkaWVudD4mI3hhOzxsaW5lYXJHcmFkaWVudCBncmFkaWVudFVuaXRzPSJ1c2VyU3BhY2VPblVzZSIgeTI9IjkuNTUzNTQiIHgyPSI5LjE2ODUiIHkxPSI0LjQ4Mzg3IiB4MT0iNC4wODQwMSIgaWQ9InBhaW50NV9saW5lYXJfMzg5MF8yMTUxNCI+JiN4YTs8c3RvcCBzdG9wLWNvbG9yPSIjMDE5NUZGIi8+JiN4YTs8c3RvcCBzdG9wLWNvbG9yPSIjMTE0N0U5IiBvZmZzZXQ9IjAuOTkxMDI4Ii8+JiN4YTs8L2xpbmVhckdyYWRpZW50PiYjeGE7PC9kZWZzPiYjeGE7PC9zdmc+;fontStyle=0;fontSize=12;fontColor=#1D2D3E" parent="BOSDDkHsfuaanqrSLqfU-46" vertex="1">
          <mxGeometry x="287.99999999999955" y="14.5" width="32" height="32" as="geometry" />
        </mxCell>
        <mxCell id="BOSDDkHsfuaanqrSLqfU-61" value="" style="group" parent="BOSDDkHsfuaanqrSLqfU-1" vertex="1" connectable="0">
          <mxGeometry y="57.819999999999936" width="140" height="262" as="geometry" />
        </mxCell>
        <mxCell id="BOSDDkHsfuaanqrSLqfU-62" value="&lt;font color=&quot;#188918&quot; size=&quot;1&quot;&gt;&lt;b style=&quot;&quot;&gt;SAML2/OIDC&lt;/b&gt;&lt;/font&gt;" style="rounded=1;whiteSpace=wrap;html=1;arcSize=50;strokeColor=#188918;fillColor=#f5fae5;fontColor=#266f3a;strokeWidth=1.5;" parent="BOSDDkHsfuaanqrSLqfU-61" vertex="1">
          <mxGeometry x="13.500000000000455" y="228.0000000000001" width="72" height="16" as="geometry" />
        </mxCell>
        <mxCell id="BOSDDkHsfuaanqrSLqfU-63" style="rounded=0;orthogonalLoop=1;jettySize=auto;html=1;fontSize=18;strokeColor=#188918;fontFamily=Helvetica;fontColor=default;targetPerimeterSpacing=15;endSize=4;startSize=4;endArrow=none;endFill=0;strokeWidth=1.5;startArrow=none;startFill=0;entryX=0.5;entryY=0;entryDx=0;entryDy=0;" parent="BOSDDkHsfuaanqrSLqfU-61" source="BOSDDkHsfuaanqrSLqfU-70" target="BOSDDkHsfuaanqrSLqfU-62" edge="1">
          <mxGeometry relative="1" as="geometry">
            <mxPoint x="49.940000000000055" y="231.69000000000005" as="targetPoint" />
            <mxPoint x="50.5" y="159.69000000000005" as="sourcePoint" />
          </mxGeometry>
        </mxCell>
        <mxCell id="BOSDDkHsfuaanqrSLqfU-64" value="" style="group" parent="BOSDDkHsfuaanqrSLqfU-61" vertex="1" connectable="0">
          <mxGeometry y="-2" width="140" height="166" as="geometry" />
        </mxCell>
        <mxCell id="BOSDDkHsfuaanqrSLqfU-65" value="&lt;font color=&quot;#1d2d3e&quot; face=&quot;arial&quot; style=&quot;font-size: 12px;&quot;&gt;End User&lt;/font&gt;" style="text;html=1;align=center;verticalAlign=middle;resizable=0;points=[];autosize=1;strokeColor=none;fillColor=none;fontSize=12;fontColor=default;fontFamily=Helvetica;strokeWidth=1.5;container=0;" parent="BOSDDkHsfuaanqrSLqfU-64" vertex="1">
          <mxGeometry x="15.5" y="20.69" width="68" height="26" as="geometry" />
        </mxCell>
        <mxCell id="BOSDDkHsfuaanqrSLqfU-66" value="" style="endArrow=blockThin;html=1;strokeColor=#475E75;bendable=1;rounded=0;endFill=1;endSize=4;strokeWidth=1.5;startSize=4;exitX=0.495;exitY=1.098;exitDx=0;exitDy=0;exitPerimeter=0;entryX=0.5;entryY=0;entryDx=0;entryDy=0;entryPerimeter=0;" parent="BOSDDkHsfuaanqrSLqfU-64" source="BOSDDkHsfuaanqrSLqfU-65" target="BOSDDkHsfuaanqrSLqfU-68" edge="1">
          <mxGeometry width="50" height="50" relative="1" as="geometry">
            <mxPoint x="49.5" y="17.69" as="sourcePoint" />
            <mxPoint x="48" y="86.69" as="targetPoint" />
            <Array as="points" />
          </mxGeometry>
        </mxCell>
        <mxCell id="BOSDDkHsfuaanqrSLqfU-67" value="" style="shape=image;verticalLabelPosition=bottom;verticalAlign=top;imageAspect=0;aspect=fixed;image=data:image/svg+xml,PHN2ZyB4bWxucz0iaHR0cDovL3d3dy53My5vcmcvMjAwMC9zdmciIGZpbGw9Im5vbmUiIHZpZXdCb3g9IjAgMCAxNyAxNyIgaGVpZ2h0PSIxNyIgd2lkdGg9IjE3Ij4mI3hhOzxwYXRoIGZpbGw9InVybCgjcGFpbnQwX2xpbmVhcl8yXzI4Nzk4KSIgZD0iTTAuMjEzODY3IDguNTUyNzNDMC4yMTM4NjcgNy40Njk0IDAuNDIyMjAxIDYuNDU4OTggMC44Mzg4NjcgNS41MjE0OEMxLjI1NTUzIDQuNTYzMTUgMS44MTgwMyAzLjcyOTgyIDIuNTI2MzcgMy4wMjE0OEMzLjIzNDcgMi4zMTMxNSA0LjA2ODAzIDEuNzUwNjUgNS4wMjYzNyAxLjMzMzk4QzUuOTg0NyAwLjkxNzMxOCA3LjAwNTUzIDAuNzA4OTg0IDguMDg4ODcgMC43MDg5ODRDOS4xNzIyIDAuNzA4OTg0IDEwLjE4MjYgMC45MTczMTggMTEuMTIwMSAxLjMzMzk4QzEyLjA3ODUgMS43NTA2NSAxMi45MTE4IDIuMzEzMTUgMTMuNjIwMSAzLjAyMTQ4QzE0LjMyODUgMy43Mjk4MiAxNC44OTEgNC41NjMxNSAxNS4zMDc2IDUuNTIxNDhDMTUuNzI0MyA2LjQ1ODk4IDE1LjkzMjYgNy40Njk0IDE1LjkzMjYgOC41NTI3M0MxNS45MzI2IDkuNjM2MDcgMTUuNzI0MyAxMC42NTY5IDE1LjMwNzYgMTEuNjE1MkMxNC44OTEgMTIuNTczNiAxNC4zMjg1IDEzLjQwNjkgMTMuNjIwMSAxNC4xMTUyQzEyLjkxMTggMTQuODIzNiAxMi4wNzg1IDE1LjM4NjEgMTEuMTIwMSAxNS44MDI3QzEwLjE4MjYgMTYuMjE5NCA5LjE3MjIgMTYuNDI3NyA4LjA4ODg3IDE2LjQyNzdDNy4wMDU1MyAxNi40Mjc3IDUuOTg0NyAxNi4yMTk0IDUuMDI2MzcgMTUuODAyN0M0LjA2ODAzIDE1LjM4NjEgMy4yMzQ3IDE0LjgyMzYgMi41MjYzNyAxNC4xMTUyQzEuODE4MDMgMTMuNDA2OSAxLjI1NTUzIDEyLjU3MzYgMC44Mzg4NjcgMTEuNjE1MkMwLjQyMjIwMSAxMC42NTY5IDAuMjEzODY3IDkuNjM2MDcgMC4yMTM4NjcgOC41NTI3M1pNOS42NTEzNyAxMC45Mjc3QzEwLjMxOCAxMC45Mjc3IDEwLjkzMjYgMTEuMDg0IDExLjQ5NTEgMTEuMzk2NUMxMi4wNTc2IDExLjY4ODIgMTIuNTE2IDEyLjA5NDQgMTIuODcwMSAxMi42MTUyQzEzLjM0OTMgMTIuMDczNiAxMy43MTM5IDExLjQ1OSAxMy45NjM5IDEwLjc3MTVDMTQuMjM0NyAxMC4wODQgMTQuMzcwMSA5LjM0NDQgMTQuMzcwMSA4LjU1MjczQzE0LjM3MDEgNy42Nzc3MyAxNC4yMDM1IDYuODY1MjMgMTMuODcwMSA2LjExNTIzQzEzLjUzNjggNS4zNDQ0IDEzLjA4ODkgNC42Nzc3MyAxMi41MjY0IDQuMTE1MjNDMTEuOTYzOSAzLjU1MjczIDExLjI5NzIgMy4xMDQ4MiAxMC41MjY0IDIuNzcxNDhDOS43NzYzNyAyLjQzODE1IDguOTYzODcgMi4yNzE0OCA4LjA4ODg3IDIuMjcxNDhDNy4yMTM4NyAyLjI3MTQ4IDYuMzkwOTUgMi40MzgxNSA1LjYyMDEyIDIuNzcxNDhDNC44NzAxMiAzLjEwNDgyIDQuMjAzNDUgMy41NTI3MyAzLjYyMDEyIDQuMTE1MjNDMy4wNTc2MiA0LjY3NzczIDIuNjA5NyA1LjM0NDQgMi4yNzYzNyA2LjExNTIzQzEuOTQzMDMgNi44NjUyMyAxLjc3NjM3IDcuNjc3NzMgMS43NzYzNyA4LjU1MjczQzEuNzc2MzcgOS4zNDQ0IDEuOTAxMzcgMTAuMDg0IDIuMTUxMzcgMTAuNzcxNUMyLjQyMjIgMTEuNDU5IDIuNzk3MiAxMi4wNzM2IDMuMjc2MzcgMTIuNjE1MkMzLjYzMDUzIDEyLjA5NDQgNC4wODg4NyAxMS42ODgyIDQuNjUxMzcgMTEuMzk2NUM1LjIxMzg3IDExLjA4NCA1LjgyODQ1IDEwLjkyNzcgNi40OTUxMiAxMC45Mjc3SDkuNjUxMzdaTTExLjIxMzkgNi45OTAyM0MxMS4yMTM5IDcuNDI3NzMgMTEuMTMwNSA3Ljg0NDQgMTAuOTYzOSA4LjI0MDIzQzEwLjc5NzIgOC42MTUyMyAxMC41NjggOC45NDg1NyAxMC4yNzY0IDkuMjQwMjNDMTAuMDA1NSA5LjUxMTA3IDkuNjgyNjIgOS43Mjk4MiA5LjMwNzYyIDkuODk2NDhDOC45MzI2MiAxMC4wNjMyIDguNTI2MzcgMTAuMTQ2NSA4LjA4ODg3IDEwLjE0NjVDNy42NTEzNyAxMC4xNDY1IDcuMjM0NyAxMC4wNjMyIDYuODM4ODcgOS44OTY0OEM2LjQ2Mzg3IDkuNzI5ODIgNi4xMzA1MyA5LjUxMTA3IDUuODM4ODcgOS4yNDAyM0M1LjU2ODAzIDguOTQ4NTcgNS4zNDkyOCA4LjYxNTIzIDUuMTgyNjIgOC4yNDAyM0M1LjAxNTk1IDcuODQ0NCA0LjkzMjYyIDcuNDI3NzMgNC45MzI2MiA2Ljk5MDIzQzQuOTMyNjIgNi41NTI3MyA1LjAxNTk1IDYuMTQ2NDggNS4xODI2MiA1Ljc3MTQ4QzUuMzQ5MjggNS4zOTY0OCA1LjU2ODAzIDUuMDYzMTUgNS44Mzg4NyA0Ljc3MTQ4QzYuMTMwNTMgNC40Nzk4MiA2LjQ2Mzg3IDQuMjUwNjUgNi44Mzg4NyA0LjA4Mzk4QzcuMjM0NyAzLjkxNzMyIDcuNjUxMzcgMy44MzM5OCA4LjA4ODg3IDMuODMzOThDOC41MjYzNyAzLjgzMzk4IDguOTMyNjIgMy45MTczMiA5LjMwNzYyIDQuMDgzOThDOS42ODI2MiA0LjI1MDY1IDEwLjAwNTUgNC40Nzk4MiAxMC4yNzY0IDQuNzcxNDhDMTAuNTY4IDUuMDYzMTUgMTAuNzk3MiA1LjM5NjQ4IDEwLjk2MzkgNS43NzE0OEMxMS4xMzA1IDYuMTQ2NDggMTEuMjEzOSA2LjU1MjczIDExLjIxMzkgNi45OTAyM1pNOS42NTEzNyA2Ljk5MDIzQzkuNjUxMzcgNi41NTI3MyA5LjQ5NTEyIDYuMTg4MTUgOS4xODI2MiA1Ljg5NjQ4QzguODcwMTIgNS41ODM5OCA4LjUwNTUzIDUuNDI3NzMgOC4wODg4NyA1LjQyNzczQzcuNjUxMzcgNS40Mjc3MyA3LjI3NjM3IDUuNTgzOTggNi45NjM4NyA1Ljg5NjQ4QzYuNjUxMzcgNi4xODgxNSA2LjQ5NTEyIDYuNTUyNzMgNi40OTUxMiA2Ljk5MDIzQzYuNDk1MTIgNy40Mjc3MyA2LjY1MTM3IDcuODAyNzMgNi45NjM4NyA4LjExNTIzQzcuMjc2MzcgOC40MDY5IDcuNjUxMzcgOC41NTI3MyA4LjA4ODg3IDguNTUyNzNDOC41MDU1MyA4LjU1MjczIDguODcwMTIgOC40MDY5IDkuMTgyNjIgOC4xMTUyM0M5LjQ5NTEyIDcuODAyNzMgOS42NTEzNyA3LjQyNzczIDkuNjUxMzcgNi45OTAyM1pNNC40NjM4NyAxMy43MDlDNC45NjM4NyAxNC4wNjMyIDUuNTE1OTUgMTQuMzQ0NCA2LjEyMDEyIDE0LjU1MjdDNi43NDUxMiAxNC43NjExIDcuNDAxMzcgMTQuODY1MiA4LjA4ODg3IDE0Ljg2NTJDOC43NTU1MyAxNC44NjUyIDkuMzkwOTUgMTQuNzYxMSA5Ljk5NTEyIDE0LjU1MjdDMTAuNjIwMSAxNC4zNDQ0IDExLjE4MjYgMTQuMDYzMiAxMS42ODI2IDEzLjcwOUMxMS40NzQzIDEzLjMzNCAxMS4xODI2IDEzLjA0MjMgMTAuODA3NiAxMi44MzRDMTAuNDUzNSAxMi42MDQ4IDEwLjA2OCAxMi40OTAyIDkuNjUxMzcgMTIuNDkwMkg2LjQ5NTEyQzYuMDc4NDUgMTIuNDkwMiA1LjY4MjYyIDEyLjYwNDggNS4zMDc2MiAxMi44MzRDNC45NTM0NSAxMy4wNDIzIDQuNjcyMiAxMy4zMzQgNC40NjM4NyAxMy43MDlaIi8+JiN4YTs8ZGVmcz4mI3hhOzxsaW5lYXJHcmFkaWVudCBncmFkaWVudFVuaXRzPSJ1c2VyU3BhY2VPblVzZSIgeTI9IjE2LjQyNzciIHgyPSI4LjA3MzI0IiB5MT0iMC43MDg5ODQiIHgxPSI4LjA3MzI0IiBpZD0icGFpbnQwX2xpbmVhcl8yXzI4Nzk4Ij4mI3hhOzxzdG9wIHN0b3AtY29sb3I9IiM1QjczOEIiLz4mI3hhOzxzdG9wIHN0b3AtY29sb3I9IiMyMjM1NDgiIG9mZnNldD0iMSIvPiYjeGE7PC9saW5lYXJHcmFkaWVudD4mI3hhOzwvZGVmcz4mI3hhOzwvc3ZnPg==;strokeWidth=1.5;container=0;" parent="BOSDDkHsfuaanqrSLqfU-64" vertex="1">
          <mxGeometry x="35.5" y="-3.31" width="28" height="28" as="geometry" />
        </mxCell>
        <mxCell id="BOSDDkHsfuaanqrSLqfU-68" value="" style="shape=image;verticalLabelPosition=bottom;verticalAlign=top;imageAspect=0;aspect=fixed;image=data:image/svg+xml,PHN2ZyB4bWxucz0iaHR0cDovL3d3dy53My5vcmcvMjAwMC9zdmciIGZpbGw9Im5vbmUiIHZpZXdCb3g9IjAgMCAxNyAxNyIgaGVpZ2h0PSIxNyIgd2lkdGg9IjE3Ij4mI3hhOzxnIGNsaXAtcGF0aD0idXJsKCNjbGlwMF8yXzI4NzkzKSI+JiN4YTs8cGF0aCBmaWxsPSJ1cmwoI3BhaW50MF9saW5lYXJfMl8yODc5MykiIGQ9Ik04Ljg4ODg3IDExLjI5MTRDOC44ODg4NyAxMS43MzE0IDguNTI4ODcgMTIuMDkxNCA4LjA4ODg3IDEyLjA5MTRINy4yODg4N1YxMy42MzU0SDguMDg4ODdDOC41Mjg4NyAxMy42MzU0IDguODg4ODcgMTMuOTk1NCA4Ljg4ODg3IDE0LjQzNTRDOC44ODg4NyAxNC44NzU0IDguNTI4ODcgMTUuMjM1NCA4LjA4ODg3IDE1LjIzNTRINC4wODg4N0MzLjY0ODg3IDE1LjIzNTQgMy4yODg4NyAxNC44NzU0IDMuMjg4ODcgMTQuNDM1NEMzLjI4ODg3IDEzLjk5NTQgMy42NDg4NyAxMy42MzU0IDQuMDg4ODcgMTMuNjM1NEg1LjY4ODg3VjEyLjA5MTRIMi40ODg4N0MxLjE2ODg3IDEyLjA5MTQgMC4wODg4NjcyIDExLjA3NTQgMC4wODg4NjcyIDkuODI3NFYzLjk1NTRDMC4wODg4NjcyIDIuNzA3NCAxLjE2ODg3IDEuNjgzNCAyLjQ4ODg3IDEuNjk5NEgxMS4yODg5QzEyLjYwODkgMS42OTk0IDEzLjY4ODkgMi43MTU0IDEzLjY4ODkgMy45NjM0QzEzLjY4ODkgNC40MDM0IDEzLjMyODkgNC43Nzk0IDEyLjg4ODkgNC43Nzk0QzEyLjQ0ODkgNC43Nzk0IDEyLjA4ODkgNC40MzU0IDEyLjA4ODkgMy45OTU0QzEyLjA4ODkgMy41ODc0IDExLjcyODkgMy4yOTE0IDExLjI4ODkgMy4yOTE0SDIuNDg4ODdDMi4wNDg4NyAzLjI5MTQgMS42ODg4NyAzLjU4NzQgMS42ODg4NyAzLjk1NTRWOS44Mjc0QzEuNjg4ODcgMTAuMTk1NCAyLjA0ODg3IDEwLjQ5MTQgMi40ODg4NyAxMC40OTE0SDguMDg4ODdDOC41Mjg4NyAxMC40OTE0IDguODg4ODcgMTAuODUxNCA4Ljg4ODg3IDExLjI5MTRaTTkuNjg4ODcgNy40MDMzOUM5LjY4ODg3IDYuMjk5MzkgMTAuNTg0OSA1LjQwMzM5IDExLjY4ODkgNS40MDMzOUgxNC4wODg5QzE1LjE5MjkgNS40MDMzOSAxNi4wODg5IDYuMjk5MzkgMTYuMDg4OSA3LjQwMzM5VjEzLjIzNTRDMTYuMDg4OSAxNC4zMzk0IDE1LjE5MjkgMTUuMjM1NCAxNC4wODg5IDE1LjIzNTRIMTEuNjg4OUMxMC41ODQ5IDE1LjIzNTQgOS42ODg4NyAxNC4zMzk0IDkuNjg4ODcgMTMuMjM1NFY3LjQwMzM5Wk0xNC4wODg5IDEzLjYzNTRDMTQuMzEyOSAxMy42MzU0IDE0LjQ4ODkgMTMuNDU5NCAxNC40ODg5IDEzLjIzNTRWNy40MDMzOUMxNC40ODg5IDcuMTc5MzkgMTQuMzEyOSA3LjAwMzM5IDE0LjA4ODkgNy4wMDMzOUgxMS42ODg5QzExLjQ2NDkgNy4wMDMzOSAxMS4yODg5IDcuMTc5MzkgMTEuMjg4OSA3LjQwMzM5VjEzLjIzNTRDMTEuMjg4OSAxMy40NTk0IDExLjQ2NDkgMTMuNjM1NCAxMS42ODg5IDEzLjYzNTRIMTQuMDg4OVoiIGNsaXAtcnVsZT0iZXZlbm9kZCIgZmlsbC1ydWxlPSJldmVub2RkIi8+JiN4YTs8L2c+JiN4YTs8ZGVmcz4mI3hhOzxsaW5lYXJHcmFkaWVudCBncmFkaWVudFVuaXRzPSJ1c2VyU3BhY2VPblVzZSIgeTI9IjE1LjIzNTQiIHgyPSI4LjA4ODg3IiB5MT0iMS42OTkyMiIgeDE9IjguMDg4ODciIGlkPSJwYWludDBfbGluZWFyXzJfMjg3OTMiPiYjeGE7PHN0b3Agc3RvcC1jb2xvcj0iIzVCNzM4QiIvPiYjeGE7PHN0b3Agc3RvcC1jb2xvcj0iIzIyMzU0OCIgb2Zmc2V0PSIxIi8+JiN4YTs8L2xpbmVhckdyYWRpZW50PiYjeGE7PGNsaXBQYXRoIGlkPSJjbGlwMF8yXzI4NzkzIj4mI3hhOzxyZWN0IHRyYW5zZm9ybT0idHJhbnNsYXRlKDAuMDg4ODY3MiAwLjQ1ODk4NCkiIGZpbGw9IndoaXRlIiBoZWlnaHQ9IjE2IiB3aWR0aD0iMTYiLz4mI3hhOzwvY2xpcFBhdGg+JiN4YTs8L2RlZnM+JiN4YTs8L3N2Zz4=;strokeWidth=1.5;points=[[0,0.25,0,0,0],[0,0.5,0,0,0],[0,0.75,0,0,0],[0.25,0,0,0,0],[0.25,1,0,0,0],[0.5,0,0,0,0],[0.5,1,0,0,0],[0.75,0,0,0,0],[0.75,1,0,0,0],[1,0.25,0,0,0],[1,0.5,0,0,0],[1,0.75,0,0,0]];container=0;" parent="BOSDDkHsfuaanqrSLqfU-64" vertex="1">
          <mxGeometry x="35.5" y="83.69" width="28" height="28" as="geometry" />
        </mxCell>
        <mxCell id="BOSDDkHsfuaanqrSLqfU-69" value="&lt;font color=&quot;#1d2d3e&quot; face=&quot;arial&quot; style=&quot;font-size: 12px;&quot;&gt;&lt;span style=&quot;&quot;&gt;Application &lt;br&gt;Clients&lt;/span&gt;&lt;/font&gt;" style="text;html=1;align=center;verticalAlign=middle;resizable=0;points=[];autosize=1;strokeColor=none;fillColor=none;fontSize=12;fontColor=default;fontFamily=Helvetica;strokeWidth=1.5;container=0;" parent="BOSDDkHsfuaanqrSLqfU-64" vertex="1">
          <mxGeometry x="11" y="105.69" width="77" height="41" as="geometry" />
        </mxCell>
        <mxCell id="BOSDDkHsfuaanqrSLqfU-70" value="&lt;div style=&quot;&quot;&gt;&lt;span style=&quot;font-size: 10px;&quot;&gt;Mobile or Desktop&lt;/span&gt;&lt;/div&gt;" style="text;html=1;align=center;verticalAlign=middle;resizable=0;points=[];autosize=1;strokeColor=none;fillColor=none;fontSize=12;fontColor=#556B82;fontFamily=Helvetica;container=0;" parent="BOSDDkHsfuaanqrSLqfU-64" vertex="1">
          <mxGeometry y="136.69" width="99" height="26" as="geometry" />
        </mxCell>
        <mxCell id="BOSDDkHsfuaanqrSLqfU-72" style="edgeStyle=orthogonalEdgeStyle;rounded=0;orthogonalLoop=1;jettySize=auto;html=1;fontSize=18;strokeColor=#188918;fontFamily=Helvetica;fontColor=default;targetPerimeterSpacing=15;endSize=4;startSize=4;endArrow=blockThin;endFill=1;strokeWidth=1.5;startArrow=none;startFill=0;exitX=1;exitY=0.5;exitDx=0;exitDy=0;entryX=0.5;entryY=1;entryDx=0;entryDy=0;" parent="BOSDDkHsfuaanqrSLqfU-1" source="BOSDDkHsfuaanqrSLqfU-74" edge="1">
          <mxGeometry relative="1" as="geometry">
            <mxPoint x="879.5" y="396.82022654584216" as="targetPoint" />
            <mxPoint x="634.4999999999998" y="311.81999999999994" as="sourcePoint" />
            <Array as="points">
              <mxPoint x="635" y="312" />
              <mxPoint x="635" y="424" />
              <mxPoint x="880" y="424" />
            </Array>
          </mxGeometry>
        </mxCell>
        <mxCell id="BOSDDkHsfuaanqrSLqfU-73" style="edgeStyle=orthogonalEdgeStyle;rounded=0;orthogonalLoop=1;jettySize=auto;html=1;fontSize=18;strokeColor=#188918;fontFamily=Helvetica;fontColor=default;targetPerimeterSpacing=15;endSize=4;startSize=4;endArrow=none;endFill=0;strokeWidth=1.5;startArrow=none;startFill=0;entryX=0;entryY=0.5;entryDx=0;entryDy=0;exitX=1.002;exitY=0.598;exitDx=0;exitDy=0;exitPerimeter=0;" parent="BOSDDkHsfuaanqrSLqfU-1" source="BOSDDkHsfuaanqrSLqfU-53" target="BOSDDkHsfuaanqrSLqfU-74" edge="1">
          <mxGeometry relative="1" as="geometry">
            <mxPoint x="552.5" y="329.0899999999999" as="targetPoint" />
            <mxPoint x="503.5" y="327.81999999999994" as="sourcePoint" />
            <Array as="points" />
          </mxGeometry>
        </mxCell>
        <mxCell id="BOSDDkHsfuaanqrSLqfU-74" value="&lt;font color=&quot;#188918&quot; size=&quot;1&quot;&gt;&lt;b style=&quot;&quot;&gt;SAML2/OIDC&lt;/b&gt;&lt;/font&gt;" style="rounded=1;whiteSpace=wrap;html=1;arcSize=50;strokeColor=#188918;fillColor=#f5fae5;fontColor=#266f3a;strokeWidth=1.5;" parent="BOSDDkHsfuaanqrSLqfU-1" vertex="1">
          <mxGeometry x="552.5" y="303.81999999999994" width="72" height="16" as="geometry" />
        </mxCell>
        <mxCell id="BOSDDkHsfuaanqrSLqfU-75" style="edgeStyle=orthogonalEdgeStyle;rounded=0;orthogonalLoop=1;jettySize=auto;html=1;fontSize=18;strokeColor=#188918;fontFamily=Helvetica;fontColor=default;targetPerimeterSpacing=15;endSize=4;startSize=4;endArrow=blockThin;endFill=1;strokeWidth=1.5;startArrow=none;startFill=0;exitX=1;exitY=0.5;exitDx=0;exitDy=0;entryX=0.002;entryY=0.4;entryDx=0;entryDy=0;entryPerimeter=0;" parent="BOSDDkHsfuaanqrSLqfU-1" source="BOSDDkHsfuaanqrSLqfU-62" target="BOSDDkHsfuaanqrSLqfU-53" edge="1">
          <mxGeometry relative="1" as="geometry">
            <mxPoint x="81.5" y="239.81999999999994" as="targetPoint" />
            <mxPoint x="85.50000000000045" y="294.51" as="sourcePoint" />
            <Array as="points" />
          </mxGeometry>
        </mxCell>
        <mxCell id="BOSDDkHsfuaanqrSLqfU-77" value="&lt;font color=&quot;#188918&quot; size=&quot;1&quot;&gt;&lt;b style=&quot;&quot;&gt;OIDC&lt;/b&gt;&lt;/font&gt;" style="rounded=1;whiteSpace=wrap;html=1;arcSize=50;strokeColor=#188918;fillColor=#f5fae5;fontColor=#266f3a;strokeWidth=1.5;" parent="BOSDDkHsfuaanqrSLqfU-1" vertex="1">
          <mxGeometry x="206.5" y="229.8241071428572" width="36" height="16" as="geometry" />
        </mxCell>
        <mxCell id="BOSDDkHsfuaanqrSLqfU-78" value="" style="endArrow=blockThin;html=1;strokeColor=#475E75;bendable=1;rounded=0;endFill=1;endSize=4;strokeWidth=1.5;startSize=4;exitX=1;exitY=0.5;exitDx=0;exitDy=0;exitPerimeter=0;" parent="BOSDDkHsfuaanqrSLqfU-1" source="BOSDDkHsfuaanqrSLqfU-68" edge="1">
          <mxGeometry width="50" height="50" relative="1" as="geometry">
            <mxPoint x="67" y="155.51" as="sourcePoint" />
            <mxPoint x="184.5" y="153.94277372262763" as="targetPoint" />
          </mxGeometry>
        </mxCell>
        <mxCell id="BOSDDkHsfuaanqrSLqfU-79" value="&lt;font color=&quot;#475f75&quot; size=&quot;1&quot;&gt;&lt;b style=&quot;&quot;&gt;REST/SPI&lt;/b&gt;&lt;/font&gt;" style="rounded=1;whiteSpace=wrap;html=1;arcSize=50;strokeColor=#475f75;fillColor=default;strokeWidth=1.5;" parent="BOSDDkHsfuaanqrSLqfU-1" vertex="1">
          <mxGeometry x="753.210582524272" y="187.69604744136478" width="53.67961165048544" height="15.739701492537327" as="geometry" />
        </mxCell>
        <mxCell id="BOSDDkHsfuaanqrSLqfU-80" value="" style="endArrow=blockThin;html=1;strokeColor=#475E75;bendable=1;rounded=0;endFill=1;endSize=4;strokeWidth=1.5;entryX=0;entryY=0.25;entryDx=0;entryDy=0;startSize=4;" parent="BOSDDkHsfuaanqrSLqfU-1" edge="1">
          <mxGeometry width="50" height="50" relative="1" as="geometry">
            <mxPoint x="710" y="197" as="sourcePoint" />
            <mxPoint x="753.210582524272" y="196.61097281449906" as="targetPoint" />
            <Array as="points" />
          </mxGeometry>
        </mxCell>
        <mxCell id="BOSDDkHsfuaanqrSLqfU-81" value="&lt;font color=&quot;#475f75&quot; size=&quot;1&quot;&gt;&lt;b style=&quot;&quot;&gt;REST/Token&lt;/b&gt;&lt;/font&gt;" style="rounded=1;whiteSpace=wrap;html=1;arcSize=50;strokeColor=#475f75;fillColor=default;strokeWidth=1.5;" parent="BOSDDkHsfuaanqrSLqfU-1" vertex="1">
          <mxGeometry x="836.9999999999999" y="381.080525053305" width="71" height="15.739701492537312" as="geometry" />
        </mxCell>
        <mxCell id="1Vq5t9I849oIyW8mgQiL-1" value="SAP Task Center" style="shape=image;verticalLabelPosition=bottom;verticalAlign=top;imageAspect=0;aspect=fixed;image=data:image/svg+xml,PHN2ZyB4bWxucz0iaHR0cDovL3d3dy53My5vcmcvMjAwMC9zdmciIGZpbGw9Im5vbmUiIHZpZXdCb3g9IjAgMCA0OSA0OSIgaGVpZ2h0PSI0OSIgd2lkdGg9IjQ5Ij4mI3hhOzxnIGNsaXAtcGF0aD0idXJsKCNjbGlwMF8yNjIyXzQxNTYpIj4mI3hhOzxjaXJjbGUgc3Ryb2tlLXdpZHRoPSIwLjg1NzE0MyIgc3Ryb2tlPSIjRDVEQUREIiBmaWxsPSJ1cmwoI3BhaW50MF9saW5lYXJfMjYyMl80MTU2KSIgcj0iMjMuNTcxNCIgY3k9IjI0LjAzNDkiIGN4PSIyNC41Ii8+JiN4YTs8ZyBjbGlwLXBhdGg9InVybCgjY2xpcDFfMjYyMl80MTU2KSI+JiN4YTs8cGF0aCBzdHJva2UtbGluZWNhcD0icm91bmQiIHN0cm9rZS13aWR0aD0iMi4zNjI1IiBzdHJva2U9InVybCgjcGFpbnQxX3JhZGlhbF8yNjIyXzQxNTYpIiBkPSJNMTguNzcxOCAxNS44MDI0QzE3Ljc5MzggMTYuNDg0MiAxNi45NDMgMTcuMzM1OCAxNi4yNjIxIDE4LjMxNDVNMzIuNzM4IDE4LjMxNDVDMzIuMDU3MSAxNy4zMzU4IDMxLjIwNjMgMTYuNDg0MiAzMC4yMjgyIDE1LjgwMjRNMTYuMjYyMSAyOS43NTUzQzE2Ljk0MyAzMC43MzQgMTcuNzkzOCAzMS41ODU2IDE4Ljc3MTggMzIuMjY3NE0zMC4yMjgzIDMyLjI2NzRDMzEuMjA2MyAzMS41ODU2IDMyLjA1NzEgMzAuNzM0IDMyLjczOCAyOS43NTUzIi8+JiN4YTs8cGF0aCBmaWxsPSJ1cmwoI3BhaW50Ml9yYWRpYWxfMjYyMl80MTU2KSIgZD0iTTExLjA4NDQgMjQuMDYyNkMxMS4wODQ0IDIyLjIwMzcgMTIuNjAwMyAyMC42OTY1IDE0LjQ3IDIwLjY5NjVDMTYuMzM5NyAyMC42OTY1IDE3Ljg1NTYgMjIuMjAzNyAxNy44NTU2IDI0LjA2MjZDMTcuODU1NiAyNS45MjE2IDE2LjMzOTcgMjcuNDI4OCAxNC40NyAyNy40Mjg4QzEyLjYwMDMgMjcuNDI4OCAxMS4wODQ0IDI1LjkyMTYgMTEuMDg0NCAyNC4wNjI2Wk0xNC40NyAyMi45NEMxMy44NDcgMjIuOTQgMTMuMzQxNyAyMy40NDI0IDEzLjM0MTcgMjQuMDYxOEMxMy4zNDE3IDI0LjY4MTIgMTMuODQ3IDI1LjE4MzYgMTQuNDcgMjUuMTgzNkMxNS4wOTI5IDI1LjE4MzYgMTUuNTk4MiAyNC42ODEyIDE1LjU5ODIgMjQuMDYxOEMxNS41OTgyIDIzLjQ0MjQgMTUuMDkyOSAyMi45NCAxNC40NyAyMi45NFoiLz4mI3hhOzxwYXRoIGZpbGw9InVybCgjcGFpbnQzX3JhZGlhbF8yNjIyXzQxNTYpIiBkPSJNMzEuMTQ0MyAyNC4wNjI2QzMxLjE0NDMgMjIuMjAzNyAzMi42NjAyIDIwLjY5NjUgMzQuNTI5OSAyMC42OTY1QzM2LjM5OTYgMjAuNjk2NSAzNy45MTU2IDIyLjIwMzcgMzcuOTE1NiAyNC4wNjI2QzM3LjkxNTYgMjUuOTIxNiAzNi4zOTk2IDI3LjQyODggMzQuNTI5OSAyNy40Mjg4QzMyLjY2MDIgMjcuNDI4OCAzMS4xNDQzIDI1LjkyMTYgMzEuMTQ0MyAyNC4wNjI2Wk0zNC41Mjk5IDIyLjk0QzMzLjkwNyAyMi45NCAzMy40MDE3IDIzLjQ0MjQgMzMuNDAxNyAyNC4wNjE4QzMzLjQwMTcgMjQuNjgxMiAzMy45MDcgMjUuMTgzNiAzNC41Mjk5IDI1LjE4MzZDMzUuMTUyOSAyNS4xODM2IDM1LjY1ODIgMjQuNjgxMiAzNS42NTgyIDI0LjA2MThDMzUuNjU4MiAyMy40NDI0IDM1LjE1MjkgMjIuOTQgMzQuNTI5OSAyMi45NFoiLz4mI3hhOzxwYXRoIGZpbGw9InVybCgjcGFpbnQ0X3JhZGlhbF8yNjIyXzQxNTYpIiBkPSJNMjQuNTEwNiAxMC42NDA0QzI2LjM4MDMgMTAuNjQwNCAyNy44OTYyIDEyLjE0NzYgMjcuODk2MiAxNC4wMDY1QzI3Ljg5NjIgMTUuODY1NSAyNi4zODAzIDE3LjM3MjcgMjQuNTEwNiAxNy4zNzI3QzIyLjY0MDkgMTcuMzcyNyAyMS4xMjUgMTUuODY1NSAyMS4xMjUgMTQuMDA2NUMyMS4xMjUgMTIuMTQ3NiAyMi42NDA5IDEwLjY0MDQgMjQuNTEwNiAxMC42NDA0Wk0yNS42Mzk3IDE0LjAwNjVDMjUuNjM5NyAxMy4zODcyIDI1LjEzNDQgMTIuODg0OCAyNC41MTE1IDEyLjg4NDhDMjMuODg4NSAxMi44ODQ4IDIzLjM4MzIgMTMuMzg3MiAyMy4zODMyIDE0LjAwNjVDMjMuMzgzMiAxNC42MjU5IDIzLjg4ODUgMTUuMTI4MyAyNC41MTE1IDE1LjEyODNDMjUuMTM0NCAxNS4xMjgzIDI1LjYzOTcgMTQuNjI1OSAyNS42Mzk3IDE0LjAwNjVaIi8+JiN4YTs8cGF0aCBmaWxsPSJ1cmwoI3BhaW50NV9yYWRpYWxfMjYyMl80MTU2KSIgZD0iTTI0LjUxMDYgMzAuNjk3MkMyNi4zODAzIDMwLjY5NzIgMjcuODk2MiAzMi4yMDQ0IDI3Ljg5NjIgMzQuMDYzM0MyNy44OTYyIDM1LjkyMjMgMjYuMzgwMyAzNy40Mjk1IDI0LjUxMDYgMzcuNDI5NUMyMi42NDA5IDM3LjQyOTUgMjEuMTI1IDM1LjkyMjMgMjEuMTI1IDM0LjA2MzNDMjEuMTI1IDMyLjIwNDQgMjIuNjQwOSAzMC42OTcyIDI0LjUxMDYgMzAuNjk3MlpNMjUuNjM5NyAzNC4wNjMzQzI1LjYzOTcgMzMuNDQ0IDI1LjEzNDQgMzIuOTQxNiAyNC41MTE1IDMyLjk0MTZDMjMuODg4NSAzMi45NDE2IDIzLjM4MzIgMzMuNDQ0IDIzLjM4MzIgMzQuMDYzM0MyMy4zODMyIDM0LjY4MjcgMjMuODg4NSAzNS4xODUxIDI0LjUxMTUgMzUuMTg1MUMyNS4xMzQ0IDM1LjE4NTEgMjUuNjM5NyAzNC42ODI3IDI1LjYzOTcgMzQuMDYzM1oiLz4mI3hhOzxwYXRoIGZpbGw9InVybCgjcGFpbnQ2X3JhZGlhbF8yNjIyXzQxNTYpIiBkPSJNMjcuNzMwMiAyMC40OTU0QzI4LjAwMDIgMjAuMjE1OCAyOC4zMDM4IDIwLjA3NTkgMjguNjQxMyAyMC4wNzU5QzI4Ljk3ODcgMjAuMDc1OSAyOS4yODI0IDIwLjIxNTggMjkuNTUyMyAyMC40OTU0QzI5Ljc4ODUgMjAuNzQwMSAyOS45MDY2IDIxLjAzNzMgMjkuOTA2NiAyMS4zODY4QzI5LjkwNjYgMjEuNzM2NCAyOS43ODg1IDIyLjA1MSAyOS41NTIzIDIyLjMzMDdMMjQuNDQwNCAyNy42MjY3QzI0LjIwNDIgMjcuODcxNCAyMy45MDA1IDI3Ljk5MzggMjMuNTI5MyAyNy45OTM4QzIzLjE1ODIgMjcuOTkzOCAyMi44NTQ1IDI3Ljg3MTQgMjIuNjE4MyAyNy42MjY3TDIwLjA4NzYgMjUuMDA0OUMxOS44MTc3IDI0LjcyNTMgMTkuNjgyNyAyNC40MTA2IDE5LjY4MjcgMjQuMDYxMUMxOS42ODI3IDIzLjcxMTUgMTkuODE3NyAyMy4zOTY5IDIwLjA4NzYgMjMuMTE3MkMyMC4zNTc2IDIyLjgzNzYgMjAuNjYxMyAyMi42OTc3IDIwLjk5ODcgMjIuNjk3N0MyMS4zMzYxIDIyLjY5NzcgMjEuNjIyOSAyMi44Mzc2IDIxLjg1OTEgMjMuMTE3MkwyMy41MjkzIDI0Ljg0NzZMMjcuNzMwMiAyMC40OTU0WiIvPiYjeGE7PC9nPiYjeGE7PC9nPiYjeGE7PGRlZnM+JiN4YTs8bGluZWFyR3JhZGllbnQgZ3JhZGllbnRVbml0cz0idXNlclNwYWNlT25Vc2UiIHkyPSI0NC4yNzkyIiB4Mj0iNDEuNTY0NSIgeTE9IjYuODQ3NzUiIHgxPSI0Ljg1Mjg3IiBpZD0icGFpbnQwX2xpbmVhcl8yNjIyXzQxNTYiPiYjeGE7PHN0b3Agc3RvcC1jb2xvcj0id2hpdGUiLz4mI3hhOzxzdG9wIHN0b3AtY29sb3I9IiNFQUVDRUUiIG9mZnNldD0iMSIvPiYjeGE7PC9saW5lYXJHcmFkaWVudD4mI3hhOzxyYWRpYWxHcmFkaWVudCBncmFkaWVudFRyYW5zZm9ybT0idHJhbnNsYXRlKDE4Ljg4NDEgMTguMjczNSkgcm90YXRlKDQ0Ljk4MSkgc2NhbGUoMTYuMzEyIDE5Ljc5NjkpIiBncmFkaWVudFVuaXRzPSJ1c2VyU3BhY2VPblVzZSIgcj0iMSIgY3k9IjAiIGN4PSIwIiBpZD0icGFpbnQxX3JhZGlhbF8yNjIyXzQxNTYiPiYjeGE7PHN0b3Agc3RvcC1jb2xvcj0iIzAwQkJGRiIvPiYjeGE7PHN0b3Agc3RvcC1jb2xvcj0iIzAwOEJGRiIgb2Zmc2V0PSIxIi8+JiN4YTs8L3JhZGlhbEdyYWRpZW50PiYjeGE7PHJhZGlhbEdyYWRpZW50IGdyYWRpZW50VHJhbnNmb3JtPSJ0cmFuc2xhdGUoMTIuMTM0NCAyMS42ODUpIHJvdGF0ZSg0NS4xNTI2KSBzY2FsZSg2LjY0NzYzIDEyLjU2MDgpIiBncmFkaWVudFVuaXRzPSJ1c2VyU3BhY2VPblVzZSIgcj0iMSIgY3k9IjAiIGN4PSIwIiBpZD0icGFpbnQyX3JhZGlhbF8yNjIyXzQxNTYiPiYjeGE7PHN0b3Agc3RvcC1jb2xvcj0iIzAxOTVGRiIvPiYjeGE7PHN0b3Agc3RvcC1jb2xvcj0iIzExNDdFOSIgb2Zmc2V0PSIxIi8+JiN4YTs8L3JhZGlhbEdyYWRpZW50PiYjeGE7PHJhZGlhbEdyYWRpZW50IGdyYWRpZW50VHJhbnNmb3JtPSJ0cmFuc2xhdGUoMzIuMTk0MyAyMS42ODUpIHJvdGF0ZSg0NS4xNTI2KSBzY2FsZSg2LjY0NzYzIDEyLjU2MDgpIiBncmFkaWVudFVuaXRzPSJ1c2VyU3BhY2VPblVzZSIgcj0iMSIgY3k9IjAiIGN4PSIwIiBpZD0icGFpbnQzX3JhZGlhbF8yNjIyXzQxNTYiPiYjeGE7PHN0b3Agc3RvcC1jb2xvcj0iIzAxOTVGRiIvPiYjeGE7PHN0b3Agc3RvcC1jb2xvcj0iIzExNDdFOSIgb2Zmc2V0PSIxIi8+JiN4YTs8L3JhZGlhbEdyYWRpZW50PiYjeGE7PHJhZGlhbEdyYWRpZW50IGdyYWRpZW50VHJhbnNmb3JtPSJ0cmFuc2xhdGUoMjYuOTAyIDExLjY4NDQpIHJvdGF0ZSgxMzUuNDg0KSBzY2FsZSg2LjY0ODA2IDEyLjU2KSIgZ3JhZGllbnRVbml0cz0idXNlclNwYWNlT25Vc2UiIHI9IjEiIGN5PSIwIiBjeD0iMCIgaWQ9InBhaW50NF9yYWRpYWxfMjYyMl80MTU2Ij4mI3hhOzxzdG9wIHN0b3AtY29sb3I9IiMwMTk1RkYiLz4mI3hhOzxzdG9wIHN0b3AtY29sb3I9IiMxMTQ3RTkiIG9mZnNldD0iMSIvPiYjeGE7PC9yYWRpYWxHcmFkaWVudD4mI3hhOzxyYWRpYWxHcmFkaWVudCBncmFkaWVudFRyYW5zZm9ybT0idHJhbnNsYXRlKDI2LjkwMiAzMS43NDEyKSByb3RhdGUoMTM1LjQ4NCkgc2NhbGUoNi42NDgwNiAxMi41NikiIGdyYWRpZW50VW5pdHM9InVzZXJTcGFjZU9uVXNlIiByPSIxIiBjeT0iMCIgY3g9IjAiIGlkPSJwYWludDVfcmFkaWFsXzI2MjJfNDE1NiI+JiN4YTs8c3RvcCBzdG9wLWNvbG9yPSIjMDE5NUZGIi8+JiN4YTs8c3RvcCBzdG9wLWNvbG9yPSIjMTE0N0U5IiBvZmZzZXQ9IjEiLz4mI3hhOzwvcmFkaWFsR3JhZGllbnQ+JiN4YTs8cmFkaWFsR3JhZGllbnQgZ3JhZGllbnRUcmFuc2Zvcm09InRyYW5zbGF0ZSgyMS4yNjU5IDIxLjI2Nykgcm90YXRlKDM3Ljc1NTkpIHNjYWxlKDkuMDA3NjIgNy45NDcyOCkiIGdyYWRpZW50VW5pdHM9InVzZXJTcGFjZU9uVXNlIiByPSIxIiBjeT0iMCIgY3g9IjAiIGlkPSJwYWludDZfcmFkaWFsXzI2MjJfNDE1NiI+JiN4YTs8c3RvcCBzdG9wLWNvbG9yPSIjMTM0OEZGIi8+JiN4YTs8c3RvcCBzdG9wLWNvbG9yPSIjMDYyMzhEIiBvZmZzZXQ9IjEiLz4mI3hhOzwvcmFkaWFsR3JhZGllbnQ+JiN4YTs8Y2xpcFBhdGggaWQ9ImNsaXAwXzI2MjJfNDE1NiI+JiN4YTs8cmVjdCB0cmFuc2Zvcm09InRyYW5zbGF0ZSgwLjUgMC4wMzQ5MTIxKSIgZmlsbD0id2hpdGUiIGhlaWdodD0iNDgiIHdpZHRoPSI0OCIvPiYjeGE7PC9jbGlwUGF0aD4mI3hhOzxjbGlwUGF0aCBpZD0iY2xpcDFfMjYyMl80MTU2Ij4mI3hhOzxyZWN0IHRyYW5zZm9ybT0idHJhbnNsYXRlKDExIDEwLjUzNDkpIiBmaWxsPSJ3aGl0ZSIgaGVpZ2h0PSIyNyIgd2lkdGg9IjI3Ii8+JiN4YTs8L2NsaXBQYXRoPiYjeGE7PC9kZWZzPiYjeGE7PC9zdmc+;points=[[0,0,0,0,0],[0,0.25,0,0,0],[0,0.5,0,0,0],[0,0.75,0,0,0],[0.25,0,0,0,0],[0.5,0,0,0,0],[0.75,0,0,0,0],[1,0,0,0,0],[1,0.25,0,0,0],[1,0.5,0,0,0],[1,0.75,0,0,0]];fontStyle=0;fontSize=12;fontColor=#1D2D3E;" parent="BOSDDkHsfuaanqrSLqfU-1" vertex="1">
          <mxGeometry x="288" y="138.1400000000001" width="32" height="32" as="geometry" />
        </mxCell>
        <mxCell id="1Vq5t9I849oIyW8mgQiL-2" value="SAP Build Work&#xa;Zone" style="shape=image;verticalLabelPosition=bottom;labelBackgroundColor=default;verticalAlign=top;aspect=fixed;imageAspect=0;image=data:image/svg+xml,PHN2ZyB4bWxucz0iaHR0cDovL3d3dy53My5vcmcvMjAwMC9zdmciIGZpbGw9Im5vbmUiIHZpZXdCb3g9IjAgMCAxNiAxNiIgaGVpZ2h0PSIxNiIgd2lkdGg9IjE2Ij4mI3hhOzxnIGNsaXAtcGF0aD0idXJsKCNjbGlwMF8zMTA2XzI3MTAxKSI+JiN4YTs8Y2lyY2xlIHN0cm9rZS13aWR0aD0iMC4yNzM4MDkiIHN0cm9rZT0iI0Q1REFERCIgZmlsbD0idXJsKCNwYWludDBfbGluZWFyXzMxMDZfMjcxMDEpIiByPSI3LjUyOTc0IiBjeT0iNy45OTk4OSIgY3g9IjcuOTk4OTIiLz4mI3hhOzxnIGNsaXAtcGF0aD0idXJsKCNjbGlwMV8zMTA2XzI3MTAxKSI+JiN4YTs8bWFzayBoZWlnaHQ9IjEzIiB3aWR0aD0iMTIiIHk9IjIiIHg9IjIiIG1hc2tVbml0cz0idXNlclNwYWNlT25Vc2UiIHN0eWxlPSJtYXNrLXR5cGU6YWxwaGEiIGlkPSJtYXNrMF8zMTA2XzI3MTAxIj4mI3hhOzxwYXRoIGZpbGw9ImJsYWNrIiBkPSJNOC40MjExOCAxMC43MzMzQzguNjQxMDYgMTEuMzUyNCA5LjI4Njc1IDExLjcwNDcgMTAuMDEwNSAxMS43MDQ3QzEwLjczNDIgMTEuNzA0NyAxMS4zNDY4IDExLjE3OTEgMTEuNTE5NyAxMC43MDdMMTIuODg3NyA2LjkzODQ5QzEzLjE2MDEgNi4xODgwNCAxMi43NzQyIDUuMzU4MjQgMTIuMDI1OCA1LjA4NTFDMTEuMzM3NCA0LjgzMzg5IDEwLjU4MjIgNS4xNDEgMTAuMjUzNCA1Ljc3NTcyQzEwLjIwMTEgNS44OTQwOSAxMC4xNDc1IDYuMDcyMTYgMTAuMjExNiA2LjI2MTc3TDEwLjg5OTYgOC4xNjUzMUMxMC45MzQxIDguMjYwNzUgMTAuODg5NSA4LjM2NjczIDEwLjc5NzIgOC40MDg0NUMxMC42ODMzIDguNDU5OTMgMTAuNTQ2OCA4LjM5MjYzIDEwLjUxNjggOC4yNzEwNkMxMC4yOTc0IDcuMzgyODcgOS41NjI3OCA2LjgxNjE3IDguNjU0NiA3LjE1MDYzQzcuNzQ2NDIgNy40ODUxIDcuNTU1MjEgOC4zNDc3MiA3LjgyNzYzIDkuMDk4MThMOC40MjExOCAxMC43MzMzWiIvPiYjeGE7PHBhdGggZmlsbD0iYmxhY2siIGQ9Ik0zLjQ3MjEzIDYuOTMyNDVDMy4xOTk3MiA2LjE4MTk5IDMuNTg1NjIgNS4zNTIyIDQuMzM0MDYgNS4wNzkwNkM1LjA4MjUxIDQuODA1OTEgNS45MTAwOCA1LjE5Mjg1IDYuMTgyNSA1Ljk0MzMxTDcuNTQ5NzQgOS43MDk4MkM3LjgyMjE1IDEwLjQ2MDMgNy40MzYyNiAxMS4yOTAxIDYuNjg3ODEgMTEuNTYzMkM1LjkzOTM2IDExLjgzNjQgNS4xMTE3OSAxMS40NDk0IDQuODM5MzcgMTAuNjk5TDMuNDcyMTMgNi45MzI0NVoiLz4mI3hhOzwvbWFzaz4mI3hhOzxnIG1hc2s9InVybCgjbWFzazBfMzEwNl8yNzEwMSkiPiYjeGE7PGcgZmlsdGVyPSJ1cmwoI2ZpbHRlcjBfZF8zMTA2XzI3MTAxKSI+JiN4YTs8cGF0aCBmaWxsPSJ1cmwoI3BhaW50MV9yYWRpYWxfMzEwNl8yNzEwMSkiIGQ9Ik02LjYzNDM0IDAuODcxOTU0QzguNjcyNDkgMC4yOTI4MzUgMTEuMDgyMyAxLjI5MTgzIDEyLjU1MTQgMy45Mzg4NEMxNi4zMzM1IDkuMDE5NDkgMTkuNzUzNyAxNC45MTk2IDExLjk2MDkgMTcuNjc2OEM0LjE2ODEzIDIwLjQzNCA0LjM1MDY3IDE0Ljc3ODIgMS43NTIyNSAxMC4wOTY0Qy0wLjg0NjE2NyA1LjQxNDU1IDQuNTk2MTkgMS40NTEwNyA2LjYzNDM0IDAuODcxOTU0WiIvPiYjeGE7PC9nPiYjeGE7PGcgZmlsdGVyPSJ1cmwoI2ZpbHRlcjFfZF8zMTA2XzI3MTAxKSI+JiN4YTs8cGF0aCBmaWxsPSJ1cmwoI3BhaW50Ml9yYWRpYWxfMzEwNl8yNzEwMSkiIGQ9Ik0xMi42NTQyIDEwLjI3OThDMTEuODQ2MiAxMi4wMTA3IDkuNTMyOTggMTQuMDk2MSA3Ljk2MzgxIDE0LjIzNTdDNC43NDYwMyAxNC45MzE0IC0wLjI2MjI1NSAxMS43NDczIDAuMTY2MTEgOS41ODQ4MUMwLjU5NDQ3NSA3LjQyMjM3IDQuNjY1NjUgNi4zNjU5OSA3LjQ1MjY5IDYuMzg5OTNDMTAuMjM5NyA2LjQxMzg4IDEzLjQ2MjEgOC41NDg5NSAxMi42NTQyIDEwLjI3OThaIi8+JiN4YTs8L2c+JiN4YTs8ZyBmaWx0ZXI9InVybCgjZmlsdGVyMl9kXzMxMDZfMjcxMDEpIj4mI3hhOzxwYXRoIGZpbGw9InVybCgjcGFpbnQzX3JhZGlhbF8zMTA2XzI3MTAxKSIgZD0iTTMuMzUzNjEgOC4zOTkzNkM2Ljk2MjAxIDcuNDQ1NTcgMTAuMTEwOSA3LjMwNjg2IDEwLjQ4NjcgMTAuNjg5NkMxMC43OTE3IDEzLjQzNDkgNi45NTY4IDE1LjY1NzggNC4yMTE0NyAxNS45NjI4QzEuNDY2MTQgMTYuMjY3OCAtMC4xMDIyOTYgOS4zMTI4NCAzLjM1MzYxIDguMzk5MzZaIi8+JiN4YTs8L2c+JiN4YTs8L2c+JiN4YTs8L2c+JiN4YTs8L2c+JiN4YTs8ZGVmcz4mI3hhOzxmaWx0ZXIgY29sb3ItaW50ZXJwb2xhdGlvbi1maWx0ZXJzPSJzUkdCIiBmaWx0ZXJVbml0cz0idXNlclNwYWNlT25Vc2UiIGhlaWdodD0iMTkuMDM1MiIgd2lkdGg9IjE2Ljk0MTQiIHk9IjAuMDg1MTI1NCIgeD0iMC42MTQ4MjkiIGlkPSJmaWx0ZXIwX2RfMzEwNl8yNzEwMSI+JiN4YTs8ZmVGbG9vZCByZXN1bHQ9IkJhY2tncm91bmRJbWFnZUZpeCIgZmxvb2Qtb3BhY2l0eT0iMCIvPiYjeGE7PGZlQ29sb3JNYXRyaXggcmVzdWx0PSJoYXJkQWxwaGEiIHZhbHVlcz0iMCAwIDAgMCAwIDAgMCAwIDAgMCAwIDAgMCAwIDAgMCAwIDAgMTI3IDAiIHR5cGU9Im1hdHJpeCIgaW49IlNvdXJjZUFscGhhIi8+JiN4YTs8ZmVPZmZzZXQgZHk9IjAuMDQ0ODQwNCIgZHg9IjAuMjI0MjAyIi8+JiN4YTs8ZmVHYXVzc2lhbkJsdXIgc3RkRGV2aWF0aW9uPSIwLjMzNjMwMyIvPiYjeGE7PGZlQ29tcG9zaXRlIG9wZXJhdG9yPSJvdXQiIGluMj0iaGFyZEFscGhhIi8+JiN4YTs8ZmVDb2xvck1hdHJpeCB2YWx1ZXM9IjAgMCAwIDAgMCAwIDAgMCAwIDAgMCAwIDAgMCAwIDAgMCAwIDAuNCAwIiB0eXBlPSJtYXRyaXgiLz4mI3hhOzxmZUJsZW5kIHJlc3VsdD0iZWZmZWN0MV9kcm9wU2hhZG93XzMxMDZfMjcxMDEiIGluMj0iQmFja2dyb3VuZEltYWdlRml4IiBtb2RlPSJub3JtYWwiLz4mI3hhOzxmZUJsZW5kIHJlc3VsdD0ic2hhcGUiIGluMj0iZWZmZWN0MV9kcm9wU2hhZG93XzMxMDZfMjcxMDEiIGluPSJTb3VyY2VHcmFwaGljIiBtb2RlPSJub3JtYWwiLz4mI3hhOzwvZmlsdGVyPiYjeGE7PGZpbHRlciBjb2xvci1pbnRlcnBvbGF0aW9uLWZpbHRlcnM9InNSR0IiIGZpbHRlclVuaXRzPSJ1c2VyU3BhY2VPblVzZSIgaGVpZ2h0PSI5LjI4ODU3IiB3aWR0aD0iMTMuOTg1MyIgeT0iNS43NjE4OCIgeD0iLTAuMzA4MDIzIiBpZD0iZmlsdGVyMV9kXzMxMDZfMjcxMDEiPiYjeGE7PGZlRmxvb2QgcmVzdWx0PSJCYWNrZ3JvdW5kSW1hZ2VGaXgiIGZsb29kLW9wYWNpdHk9IjAiLz4mI3hhOzxmZUNvbG9yTWF0cml4IHJlc3VsdD0iaGFyZEFscGhhIiB2YWx1ZXM9IjAgMCAwIDAgMCAwIDAgMCAwIDAgMCAwIDAgMCAwIDAgMCAwIDEyNyAwIiB0eXBlPSJtYXRyaXgiIGluPSJTb3VyY2VBbHBoYSIvPiYjeGE7PGZlT2Zmc2V0IGR5PSIwLjA0NDg0MDQiIGR4PSIwLjIyNDIwMiIvPiYjeGE7PGZlR2F1c3NpYW5CbHVyIHN0ZERldmlhdGlvbj0iMC4zMzYzMDMiLz4mI3hhOzxmZUNvbXBvc2l0ZSBvcGVyYXRvcj0ib3V0IiBpbjI9ImhhcmRBbHBoYSIvPiYjeGE7PGZlQ29sb3JNYXRyaXggdmFsdWVzPSIwIDAgMCAwIDAgMCAwIDAgMCAwIDAgMCAwIDAgMCAwIDAgMCAwLjQgMCIgdHlwZT0ibWF0cml4Ii8+JiN4YTs8ZmVCbGVuZCByZXN1bHQ9ImVmZmVjdDFfZHJvcFNoYWRvd18zMTA2XzI3MTAxIiBpbjI9IkJhY2tncm91bmRJbWFnZUZpeCIgbW9kZT0ibm9ybWFsIi8+JiN4YTs8ZmVCbGVuZCByZXN1bHQ9InNoYXBlIiBpbjI9ImVmZmVjdDFfZHJvcFNoYWRvd18zMTA2XzI3MTAxIiBpbj0iU291cmNlR3JhcGhpYyIgbW9kZT0ibm9ybWFsIi8+JiN4YTs8L2ZpbHRlcj4mI3hhOzxmaWx0ZXIgY29sb3ItaW50ZXJwb2xhdGlvbi1maWx0ZXJzPSJzUkdCIiBmaWx0ZXJVbml0cz0idXNlclNwYWNlT25Vc2UiIGhlaWdodD0iOS41MDUzNyIgd2lkdGg9IjEwLjQ3NzgiIHk9IjcuMTg0NDkiIHg9IjAuOTIyOTM0IiBpZD0iZmlsdGVyMl9kXzMxMDZfMjcxMDEiPiYjeGE7PGZlRmxvb2QgcmVzdWx0PSJCYWNrZ3JvdW5kSW1hZ2VGaXgiIGZsb29kLW9wYWNpdHk9IjAiLz4mI3hhOzxmZUNvbG9yTWF0cml4IHJlc3VsdD0iaGFyZEFscGhhIiB2YWx1ZXM9IjAgMCAwIDAgMCAwIDAgMCAwIDAgMCAwIDAgMCAwIDAgMCAwIDEyNyAwIiB0eXBlPSJtYXRyaXgiIGluPSJTb3VyY2VBbHBoYSIvPiYjeGE7PGZlT2Zmc2V0IGR5PSIwLjA0NDg0MDQiIGR4PSIwLjIyNDIwMiIvPiYjeGE7PGZlR2F1c3NpYW5CbHVyIHN0ZERldmlhdGlvbj0iMC4zMzYzMDMiLz4mI3hhOzxmZUNvbXBvc2l0ZSBvcGVyYXRvcj0ib3V0IiBpbjI9ImhhcmRBbHBoYSIvPiYjeGE7PGZlQ29sb3JNYXRyaXggdmFsdWVzPSIwIDAgMCAwIDAgMCAwIDAgMCAwIDAgMCAwIDAgMCAwIDAgMCAwLjQgMCIgdHlwZT0ibWF0cml4Ii8+JiN4YTs8ZmVCbGVuZCByZXN1bHQ9ImVmZmVjdDFfZHJvcFNoYWRvd18zMTA2XzI3MTAxIiBpbjI9IkJhY2tncm91bmRJbWFnZUZpeCIgbW9kZT0ibm9ybWFsIi8+JiN4YTs8ZmVCbGVuZCByZXN1bHQ9InNoYXBlIiBpbjI9ImVmZmVjdDFfZHJvcFNoYWRvd18zMTA2XzI3MTAxIiBpbj0iU291cmNlR3JhcGhpYyIgbW9kZT0ibm9ybWFsIi8+JiN4YTs8L2ZpbHRlcj4mI3hhOzxsaW5lYXJHcmFkaWVudCBncmFkaWVudFVuaXRzPSJ1c2VyU3BhY2VPblVzZSIgeTI9IjE0LjQ2NjgiIHgyPSIxMy40NTAxIiB5MT0iMi41MDk1NyIgeDE9IjEuNzIyNzciIGlkPSJwYWludDBfbGluZWFyXzMxMDZfMjcxMDEiPiYjeGE7PHN0b3Agc3RvcC1jb2xvcj0id2hpdGUiLz4mI3hhOzxzdG9wIHN0b3AtY29sb3I9IiNFQUVDRUUiIG9mZnNldD0iMSIvPiYjeGE7PC9saW5lYXJHcmFkaWVudD4mI3hhOzxyYWRpYWxHcmFkaWVudCBncmFkaWVudFRyYW5zZm9ybT0idHJhbnNsYXRlKDcuMTQyMiAxMC41MTEzKSByb3RhdGUoLTc1LjY1MTMpIHNjYWxlKDE1Ljk3MDUgMTUuNzQ5OCkiIGdyYWRpZW50VW5pdHM9InVzZXJTcGFjZU9uVXNlIiByPSIxIiBjeT0iMCIgY3g9IjAiIGlkPSJwYWludDFfcmFkaWFsXzMxMDZfMjcxMDEiPiYjeGE7PHN0b3Agc3RvcC1jb2xvcj0iIzEzNDhGRiIvPiYjeGE7PHN0b3Agc3RvcC1jb2xvcj0iIzA2MjM4RCIgb2Zmc2V0PSIxIi8+JiN4YTs8L3JhZGlhbEdyYWRpZW50PiYjeGE7PHJhZGlhbEdyYWRpZW50IGdyYWRpZW50VHJhbnNmb3JtPSJ0cmFuc2xhdGUoMy4xOTI5OSA3LjMwMjE1KSByb3RhdGUoMzEuOTgpIHNjYWxlKDE1LjI2ODUgMjcuNTc2KSIgZ3JhZGllbnRVbml0cz0idXNlclNwYWNlT25Vc2UiIHI9IjEiIGN5PSIwIiBjeD0iMCIgaWQ9InBhaW50Ml9yYWRpYWxfMzEwNl8yNzEwMSI+JiN4YTs8c3RvcCBzdG9wLWNvbG9yPSIjMDE5NUZGIi8+JiN4YTs8c3RvcCBzdG9wLWNvbG9yPSIjMTE0N0U5IiBvZmZzZXQ9IjEiLz4mI3hhOzwvcmFkaWFsR3JhZGllbnQ+JiN4YTs8cmFkaWFsR3JhZGllbnQgZ3JhZGllbnRUcmFuc2Zvcm09InRyYW5zbGF0ZSgzLjg2NDM3IDE1LjI1NDIpIHJvdGF0ZSgtNDYuOTU3OSkgc2NhbGUoMTEuNzY0NCAxNi4xODIpIiBncmFkaWVudFVuaXRzPSJ1c2VyU3BhY2VPblVzZSIgcj0iMSIgY3k9IjAiIGN4PSIwIiBpZD0icGFpbnQzX3JhZGlhbF8zMTA2XzI3MTAxIj4mI3hhOzxzdG9wIHN0b3AtY29sb3I9IiMwMEJCRkYiLz4mI3hhOzxzdG9wIHN0b3AtY29sb3I9IiMwMDhCRkYiIG9mZnNldD0iMSIvPiYjeGE7PC9yYWRpYWxHcmFkaWVudD4mI3hhOzxjbGlwUGF0aCBpZD0iY2xpcDBfMzEwNl8yNzEwMSI+JiN4YTs8cmVjdCB0cmFuc2Zvcm09InRyYW5zbGF0ZSgtMC4wMDA5NzY1NjIpIiBmaWxsPSJ3aGl0ZSIgaGVpZ2h0PSIxNS45OTk5IiB3aWR0aD0iMTUuOTk5OSIvPiYjeGE7PC9jbGlwUGF0aD4mI3hhOzxjbGlwUGF0aCBpZD0iY2xpcDFfMzEwNl8yNzEwMSI+JiN4YTs8cmVjdCB0cmFuc2Zvcm09InRyYW5zbGF0ZSgzLjMzMjI4IDMuNSkiIGZpbGw9IndoaXRlIiBoZWlnaHQ9IjkuNjY2NjQiIHdpZHRoPSI5LjY2NjY0Ii8+JiN4YTs8L2NsaXBQYXRoPiYjeGE7PC9kZWZzPiYjeGE7PC9zdmc+;points=[[0,0,0,0,0],[0,0.25,0,0,0],[0,0.5,0,0,0],[0,0.75,0,0,0],[0.25,0,0,0,0],[0.5,0,0,0,0],[0.75,0,0,0,0],[1,0,0,0,0],[1,0.25,0,0,0],[1,0.5,0,0,0],[1,0.75,0,0,0]];container=0;fontStyle=0;fontSize=12;fontColor=#1D2D3E;" parent="BOSDDkHsfuaanqrSLqfU-1" vertex="1">
          <mxGeometry x="184" y="138" width="32" height="32" as="geometry" />
        </mxCell>
        <mxCell id="1Vq5t9I849oIyW8mgQiL-7" value="Connectivity&#xa;Service" style="shape=image;verticalLabelPosition=bottom;verticalAlign=top;imageAspect=0;aspect=fixed;image=data:image/svg+xml,PHN2ZyB4bWxucz0iaHR0cDovL3d3dy53My5vcmcvMjAwMC9zdmciIGZpbGw9Im5vbmUiIHZpZXdCb3g9IjAgMCAxNiAxNiIgaGVpZ2h0PSIxNiIgd2lkdGg9IjE2Ij4mI3hhOzxjaXJjbGUgc3Ryb2tlLXdpZHRoPSIwLjI4NTcwOCIgc3Ryb2tlPSIjRDVEQUREIiBmaWxsPSJ1cmwoI3BhaW50MF9saW5lYXJfMzUxNF80MDIwMikiIHI9IjcuODU2OTYiIGN5PSI3Ljk5OTA4IiBjeD0iNy45OTkzMyIvPiYjeGE7PGcgY2xpcC1wYXRoPSJ1cmwoI2NsaXAwXzM1MTRfNDAyMDIpIj4mI3hhOzxwYXRoIGZpbGw9InVybCgjcGFpbnQxX2xpbmVhcl8zNTE0XzQwMjAyKSIgZD0iTTguNTgyOTIgNC4xMTQ3NEM4LjU4MjkyIDMuODM4NiA4LjgwNjc4IDMuNjE0NzUgOS4wODI5MiAzLjYxNDc1SDEwLjYyNjRDMTEuNTkyOSAzLjYxNDc1IDEyLjM3NjQgNC4zOTgyNSAxMi4zNzY0IDUuMzY0NzRWNi42OTM5NUMxMi4zNzY0IDYuOTcwMSAxMi4xNTI1IDcuMTkzOTUgMTEuODc2NCA3LjE5Mzk1QzExLjYwMDIgNy4xOTM5NSAxMS4zNzY0IDYuOTcwMSAxMS4zNzY0IDYuNjkzOTVWNS4zNjQ3NEMxMS4zNzY0IDQuOTUwNTMgMTEuMDQwNiA0LjYxNDc0IDEwLjYyNjQgNC42MTQ3NEg5LjA4MjkyQzguODA2NzggNC42MTQ3NCA4LjU4MjkyIDQuMzkwODkgOC41ODI5MiA0LjExNDc0Wk00LjEyMTU4IDguNTMzMjRDNC4zOTc3MiA4LjUzMzI0IDQuNjIxNTggOC43NTcxIDQuNjIxNTggOS4wMzMyNFYxMC42MjgxQzQuNjIxNTggMTEuMDQyMyA0Ljk1NzM2IDExLjM3ODEgNS4zNzE1OCAxMS4zNzgxSDcuMDY5MjVDNy4zNDUzOSAxMS4zNzgxIDcuNTY5MjUgMTEuNjAxOSA3LjU2OTI1IDExLjg3ODFDNy41NjkyNSAxMi4xNTQyIDcuMzQ1MzkgMTIuMzc4MSA3LjA2OTI1IDEyLjM3ODFINS4zNzE1OEM0LjQwNTA4IDEyLjM3ODEgMy42MjE1OCAxMS41OTQ2IDMuNjIxNTggMTAuNjI4MVY5LjAzMzI0QzMuNjIxNTggOC43NTcxIDMuODQ1NDQgOC41MzMyNCA0LjEyMTU4IDguNTMzMjRaIiBjbGlwLXJ1bGU9ImV2ZW5vZGQiIGZpbGwtcnVsZT0iZXZlbm9kZCIvPiYjeGE7PHBhdGggZmlsbD0idXJsKCNwYWludDJfbGluZWFyXzM1MTRfNDAyMDIpIiBkPSJNMTIuODQzMiAxMS45MzI4QzEyLjk0NzQgMTIuMDM3IDEyLjk5OTUgMTIuMTQ3NyAxMi45OTk1IDEyLjI2NDlDMTIuOTk5NSAxMi4zOTUxIDEyLjk0NzQgMTIuNTEyMyAxMi44NDMyIDEyLjYxNjRDMTIuNzM5MSAxMi43MjA2IDEyLjYyMTkgMTIuNzcyNyAxMi40OTE3IDEyLjc3MjdDMTIuMzc0NSAxMi43NzI3IDEyLjI2MzggMTIuNzIwNiAxMi4xNTk2IDEyLjYxNjRMMTAuNzcyOSAxMS4yMjk3QzEwLjM2OTMgMTEuNTgxMyA5LjkxMzU2IDExLjc1MDYgOS40MDU3NSAxMS43Mzc1QzguODk3OTQgMTEuNzExNSA4LjQ1NTI0IDExLjUwOTcgOC4wNzc2MyAxMS4xMzIxTDcuNjI4NDIgMTAuNjgyOEM3LjUyNDI1IDEwLjU3ODcgNy40NzIxNyAxMC40NjggNy40NzIxNyAxMC4zNTA4QzcuNDcyMTcgMTAuMjIwNiA3LjUyNDI1IDEwLjEwMzQgNy42Mjg0MiA5Ljk5OTI2TDEwLjE2NzUgNy40NjAyQzEwLjI3MTYgNy4zNTYwNCAxMC4zODg4IDcuMzAzOTYgMTAuNTE5IDcuMzAzOTZDMTAuNjQ5MiA3LjMwMzk2IDEwLjc2NjQgNy4zNTYwNCAxMC44NzA2IDcuNDYwMkwxMS4zMTk4IDcuOTA5NDJDMTEuNjk3NCA4LjI4NzAyIDExLjg5MjcgOC43MjMyMiAxMS45MDU3IDkuMjE4MDFDMTEuOTMxOCA5LjY5OTc4IDExLjc4MiAxMC4xMzYgMTEuNDU2NSAxMC41MjY2TDEyLjg0MzIgMTEuOTMyOFoiIGNsaXAtcnVsZT0iZXZlbm9kZCIgZmlsbC1ydWxlPSJldmVub2RkIi8+JiN4YTs8cGF0aCBmaWxsPSJ1cmwoI3BhaW50M19saW5lYXJfMzUxNF80MDIwMikiIGQ9Ik03LjcxNTE4IDguNzA0MDZDNy42MTEwMSA4LjgwODIzIDcuNDkzODIgOC44NjAzMSA3LjM2MzYxIDguODYwMzFDNy4yNDY0MiA4Ljg2MDMxIDcuMTM1NzUgOC44MDgyMyA3LjAzMTU4IDguNzA0MDZMNi4xMzMxNCA3LjgwNTYzTDUuNzQyNTIgOC4xOTYyNUM1LjYzODM1IDguMzAwNDIgNS41MjExNiA4LjM1MjUgNS4zOTA5NSA4LjM1MjVDNS4yNDc3MyA4LjM1MjUgNS4xMzA1NCA4LjMwMDQyIDUuMDM5MzkgOC4xOTYyNUw0LjU5MDE3IDcuNzY2NTdDNC4yMTI1NyA3LjM4ODk2IDQuMDEwNzUgNi45NTkyOCAzLjk4NDcgNi40Nzc1MUMzLjk1ODY2IDUuOTgyNzIgNC4wOTUzOCA1LjUzMzUgNC4zOTQ4NiA1LjEyOTg2TDMuMTU1NzYgMy44NTgzOUMzLjA1MTYgMy43NTQyMyAyLjk5OTUxIDMuNjM3MDQgMi45OTk1MSAzLjUwNjgzQzIuOTk5NTEgMy4zNzY2MyAzLjA1MTYgMy4yNTk0NCAzLjE1NTc2IDMuMTU1MjdDMy4yNTk5MyAzLjA1MTExIDMuMzcwNjEgMi45OTkwMiAzLjQ4Nzc5IDIuOTk5MDJDMy42MTggMi45OTkwMiAzLjczNTE5IDMuMDUxMTEgMy44MzkzNiAzLjE1NTI3TDUuMDc4NDUgNC40MjY3NEM1LjQ4MjEgNC4xMDEyMiA1LjkzNzgzIDMuOTUxNDggNi40NDU2NCAzLjk3NzUyQzYuOTUzNDYgNC4wMDM1NiA3LjM5NjE2IDQuMjA1MzggNy43NzM3NyA0LjU4Mjk5TDguMjIyOTkgNS4wMzIyQzguMzE0MTMgNS4xMjMzNSA4LjM1OTcxIDUuMjQwNTMgOC4zNTk3MSA1LjM4Mzc2QzguMzU5NzEgNS41MTM5NyA4LjMxNDEzIDUuNjI0NjUgOC4yMjI5OSA1LjcxNTc5TDcuODEyODMgNi4xMjU5NUw4LjcxMTI3IDcuMDA0ODVDOC44MTU0NCA3LjEwOTAyIDguODY3NTIgNy4yMjYyIDguODY3NTIgNy4zNTY0MUM4Ljg2NzUyIDcuNDg2NjIgOC44MTU0NCA3LjYwMzgxIDguNzExMjcgNy43MDc5N0M4LjYwNzEgNy44MTIxNCA4LjQ4OTkyIDcuODY0MjIgOC4zNTk3MSA3Ljg2NDIyQzguMjI5NSA3Ljg2NDIyIDguMTEyMzEgNy44MTIxNCA4LjAwODE0IDcuNzA3OTdMNy4xMjkyNCA2LjgwOTU0TDYuODE2NzQgNy4xMjIwNEw3LjI2NTk2IDcuNTYxNDlMNy43MTUxOCA4LjAwMDk0QzcuODE5MzQgOC4xMDUxMSA3Ljg3MTQzIDguMjIyMjkgNy44NzE0MyA4LjM1MjVDNy44NzE0MyA4LjQ4MjcxIDcuODE5MzQgOC41OTk5IDcuNzE1MTggOC43MDQwNloiLz4mI3hhOzwvZz4mI3hhOzxkZWZzPiYjeGE7PGxpbmVhckdyYWRpZW50IGdyYWRpZW50VW5pdHM9InVzZXJTcGFjZU9uVXNlIiB5Mj0iMTQuNzQ3IiB4Mj0iMTMuNjg3NCIgeTE9IjIuMjcwMTYiIHgxPSIxLjQ1MDQzIiBpZD0icGFpbnQwX2xpbmVhcl8zNTE0XzQwMjAyIj4mI3hhOzxzdG9wIHN0b3AtY29sb3I9IndoaXRlIi8+JiN4YTs8c3RvcCBzdG9wLWNvbG9yPSIjRUFFQ0VFIiBvZmZzZXQ9IjEiLz4mI3hhOzwvbGluZWFyR3JhZGllbnQ+JiN4YTs8bGluZWFyR3JhZGllbnQgZ3JhZGllbnRVbml0cz0idXNlclNwYWNlT25Vc2UiIHkyPSIxMS4wNTc0IiB4Mj0iMTEuMDciIHkxPSI0LjkyNTI1IiB4MT0iNC45MzM5NiIgaWQ9InBhaW50MV9saW5lYXJfMzUxNF80MDIwMiI+JiN4YTs8c3RvcCBzdG9wLWNvbG9yPSIjMDE5NUZGIi8+JiN4YTs8c3RvcCBzdG9wLWNvbG9yPSIjMTE0N0U5IiBvZmZzZXQ9IjAuOTkxMDI4Ii8+JiN4YTs8L2xpbmVhckdyYWRpZW50PiYjeGE7PGxpbmVhckdyYWRpZW50IGdyYWRpZW50VW5pdHM9InVzZXJTcGFjZU9uVXNlIiB5Mj0iMTEuOTkxOCIgeDI9IjEyLjEyODQiIHkxPSI4LjEyNDQ0IiB4MT0iOC4yOTkzOCIgaWQ9InBhaW50Ml9saW5lYXJfMzUxNF80MDIwMiI+JiN4YTs8c3RvcCBzdG9wLWNvbG9yPSIjMDBCQkZGIi8+JiN4YTs8c3RvcCBzdG9wLWNvbG9yPSIjMDA4QkZGIiBvZmZzZXQ9IjEiLz4mI3hhOzwvbGluZWFyR3JhZGllbnQ+JiN4YTs8bGluZWFyR3JhZGllbnQgZ3JhZGllbnRVbml0cz0idXNlclNwYWNlT25Vc2UiIHkyPSI3Ljk4NTcxIiB4Mj0iNy45NjkwMiIgeTE9IjMuODYxMzQiIHgxPSIzLjg2NzA2IiBpZD0icGFpbnQzX2xpbmVhcl8zNTE0XzQwMjAyIj4mI3hhOzxzdG9wIHN0b3AtY29sb3I9IiMxMzQ4RkYiLz4mI3hhOzxzdG9wIHN0b3AtY29sb3I9IiMwNjIzOEQiIG9mZnNldD0iMSIvPiYjeGE7PC9saW5lYXJHcmFkaWVudD4mI3hhOzxjbGlwUGF0aCBpZD0iY2xpcDBfMzUxNF80MDIwMiI+JiN4YTs8cmVjdCB0cmFuc2Zvcm09InRyYW5zbGF0ZSgyLjk5OTI3IDIuOTk5MDIpIiBmaWxsPSJ3aGl0ZSIgaGVpZ2h0PSI5Ljk5OTk2IiB3aWR0aD0iOS45OTk5NiIvPiYjeGE7PC9jbGlwUGF0aD4mI3hhOzwvZGVmcz4mI3hhOzwvc3ZnPg==;points=[[0,0,0,0,0],[0,0.25,0,0,0],[0,0.5,0,0,0],[0,0.75,0,0,0],[0.25,0,0,0,0],[0.5,0,0,0,0],[0.75,0,0,0,0],[1,0,0,0,0],[1,0.25,0,0,0],[1,0.5,0,0,0],[1,0.75,0,0,0]];fontStyle=0;fontSize=12;fontColor=#1D2D3E;container=0;" parent="BOSDDkHsfuaanqrSLqfU-1" vertex="1">
          <mxGeometry x="507" y="74.99999999999994" width="32" height="32" as="geometry" />
        </mxCell>
        <mxCell id="1Vq5t9I849oIyW8mgQiL-8" value="Destination&#xa;service" style="shape=image;verticalLabelPosition=bottom;verticalAlign=top;imageAspect=0;aspect=fixed;image=data:image/svg+xml,PHN2ZyB4bWxucz0iaHR0cDovL3d3dy53My5vcmcvMjAwMC9zdmciIGZpbGw9Im5vbmUiIHZpZXdCb3g9IjAgMCAxNiAxNiIgaGVpZ2h0PSIxNiIgd2lkdGg9IjE2Ij4mI3hhOzxjaXJjbGUgc3Ryb2tlLXdpZHRoPSIwLjI4NTcwOCIgc3Ryb2tlPSIjRDVEQUREIiBmaWxsPSJ1cmwoI3BhaW50MF9saW5lYXJfMzUxNF80MDIwNSkiIHI9IjcuODU2OTYiIGN5PSI3Ljk5OTA4IiBjeD0iNy45OTgzNSIvPiYjeGE7PGcgY2xpcC1wYXRoPSJ1cmwoI2NsaXAwXzM1MTRfNDAyMDUpIj4mI3hhOzxwYXRoIGZpbGw9InVybCgjcGFpbnQxX2xpbmVhcl8zNTE0XzQwMjA1KSIgZD0iTTEwLjAwMjUgMy4yMTY4SDcuMzQ2MTlDNy4yNDY3NiAzLjIxNjggNy4xNTE0IDMuMjU2MyA3LjA4MTA5IDMuMzI2NjFDNy4wMTA3OCAzLjM5NjkyIDYuOTcxMjggMy40OTIyOCA2Ljk3MTI4IDMuNTkxNzFWNC45MDc4NkM2Ljk3MTI4IDUuMjE1MzMgNi44NjE0NyA1LjQ3ODg3IDYuNjQxODUgNS42OTg0OUM2LjQyMjIzIDUuOTE4MTEgNi4xNTg2OSA2LjAyNzkyIDUuODUxMjIgNi4wMjc5Mkg0LjUzNTA3QzQuNDM1NjQgNi4wMjc5MiA0LjM0MDI4IDYuMDY3NDIgNC4yNjk5NyA2LjEzNzczQzQuMTk5NjYgNi4yMDgwNCA0LjE2MDE2IDYuMzAzNCA0LjE2MDE2IDYuNDAyODNWMTEuMjk5MkM0LjE2MDE2IDExLjc5NjMgNC41NjMxIDEyLjE5OTIgNS4wNjAxNiAxMi4xOTkySDcuMzk4OUM3LjIzMDIgMTIuMDMxMiA3LjA3NjM2IDExLjg0ODMgNi45Mzk1MSAxMS42NTI2QzYuODMyNjkgMTEuNDk5OCA2Ljg2OTk0IDExLjI4OTQgNy4wMjI2OSAxMS4xODI2QzcuMTc1NDUgMTEuMDc1OCA3LjM4NTg3IDExLjExMyA3LjQ5MjY4IDExLjI2NThDNy43MTc5NSAxMS41ODc5IDcuOTk4NjEgMTEuODY4NiA4LjMyMDc2IDEyLjA5MzhDOC4zNjE4IDEyLjEyMjUgOC4zOTQ0OSAxMi4xNTg3IDguNDE4MyAxMi4xOTkySDEwLjAwMjVDMTAuNDIxNCAxMi4xOTkyIDEwLjc3MzUgMTEuOTEzIDEwLjg3MzggMTEuNTI1NEMxMC43NDUgMTEuNTQ5IDEwLjYxMjEgMTEuNTYwOCAxMC40NzU2IDExLjU2MDhIMTAuMDE0MkM5Ljc1NDIgMTEuNTYwOCA5LjUzMTk0IDExLjQ1MTkgOS4zNjU3NSAxMS4yODU3QzkuMjI5NjggMTEuMTQ5NyA5LjE0MjQ0IDEwLjk4MDkgOS4xMTIzOSAxMC43OTQ2TDguNzUwNTMgMTAuNzk4NkM4LjUxNTcyIDEwLjc5ODYgOC4yNzg1NyAxMC43MjAxIDguMDkyMDIgMTAuNTMzNUM3LjkwNTQ3IDEwLjM0NyA3LjgyNjk3IDEwLjEwOTggNy44MjY5NyA5Ljg3NTAzQzcuODI2OTcgOS42OTgzMyA3Ljg3MTQyIDkuNTIwMzIgNy45NzI5MSA5LjM2MzUzQzcuODcxNDIgOS4yMDY3NCA3LjgyNjk3IDkuMDI4NzIgNy44MjY5NyA4Ljg1MjAzQzcuODI2OTcgOC42MTcyMiA3LjkwNTQ3IDguMzgwMDcgOC4wOTIwMiA4LjE5MzUyQzguMjgzMTkgOC4wMDIzNCA4LjUyNDc3IDcuOTM4NSA4Ljc0MDUgNy45Mzg1TDkuMTEzNDUgNy45Mzg1QzkuMTQyNCA3Ljc1ODg4IDkuMjIxOTkgNy41ODUwNyA5LjM2NTc1IDcuNDQxMzJDOS41NDI0NiA3LjI2NDYgOS43NzQ3OSA3LjE2NzE4IDEwLjAzMTIgNy4xNzU5OEwxMC40NjkzIDcuMTY2MjRIMTAuNDc1NkMxMC42MjIxIDcuMTY2MjQgMTAuNzY0NyA3LjE3OTI3IDEwLjkwMjUgNy4yMDU4MVY2LjA2NzYxQzEwLjg3NTEgNi4wNjk2IDEwLjg0NzEgNi4wNjgyOCAxMC44MTg5IDYuMDYzMjlDMTAuNjI4OSA2LjAyOTcxIDEwLjQzMzIgNi4wMTIxNiAxMC4yMzMxIDYuMDEyMTZDMTAuMDMyOSA2LjAxMjE2IDkuODM3MTcgNi4wMjk3MSA5LjY0NzE4IDYuMDYzMjlDOS40NjM2MyA2LjA5NTczIDkuMjg4NTQgNS45NzMyMyA5LjI1NjEgNS43ODk2OEM5LjIyMzY2IDUuNjA2MTMgOS4zNDYxNiA1LjQzMTAzIDkuNTI5NzEgNS4zOTg1OUM5Ljc1ODMxIDUuMzU4MTkgOS45OTMzNiA1LjMzNzE2IDEwLjIzMzEgNS4zMzcxNkMxMC40NjA5IDUuMzM3MTYgMTAuNjg0NiA1LjM1NjE3IDEwLjkwMjUgNS4zOTI3NVY0LjExNjhDMTAuOTAyNSAzLjYxOTc0IDEwLjQ5OTUgMy4yMTY4IDEwLjAwMjUgMy4yMTY4Wk04LjQwMzk1IDYuMTQzMTFDOC41MTA3NiA2LjI5NTg2IDguNDczNTIgNi41MDYyOCA4LjMyMDc2IDYuNjEzMUM3Ljk5ODYxIDYuODM4MzcgNy43MTc5NSA3LjExOTAyIDcuNDkyNjggNy40NDExOEM3LjM4NTg3IDcuNTkzOTMgNy4xNzU0NSA3LjYzMTE4IDcuMDIyNjkgNy41MjQzNkM2Ljg2OTk0IDcuNDE3NTUgNi44MzI2OSA3LjIwNzEzIDYuOTM5NTEgNy4wNTQzN0M3LjIxMDA2IDYuNjY3NDUgNy41NDcwMyA2LjMzMDQ4IDcuOTMzOTUgNi4wNTk5MkM4LjA4NjcxIDUuOTUzMTEgOC4yOTcxMyA1Ljk5MDM1IDguNDAzOTUgNi4xNDMxMVpNNi42NjkyNyA4LjM3NjUxQzYuODUyODIgOC40MDg5NSA2Ljk3NTMyIDguNTg0MDUgNi45NDI4OCA4Ljc2NzZDNi45MDkzIDguOTU3NTkgNi44OTE3NSA5LjE1MzM0IDYuODkxNzUgOS4zNTM0N0M2Ljg5MTc1IDkuNTUzNiA2LjkwOTMgOS43NDkzNSA2Ljk0Mjg4IDkuOTM5MzRDNi45NzUzMiAxMC4xMjI5IDYuODUyODIgMTAuMjk4IDYuNjY5MjcgMTAuMzMwNEM2LjQ4NTcyIDEwLjM2MjkgNi4zMTA2MiAxMC4yNDA0IDYuMjc4MTggMTAuMDU2OEM2LjIzNzc4IDkuODI4MjEgNi4yMTY3NSA5LjU5MzE2IDYuMjE2NzUgOS4zNTM0N0M2LjIxNjc1IDkuMTEzNzggNi4yMzc3OCA4Ljg3ODczIDYuMjc4MTggOC42NTAxM0M2LjMxMDYyIDguNDY2NTcgNi40ODU3MiA4LjM0NDA3IDYuNjY5MjcgOC4zNzY1MVoiIGNsaXAtcnVsZT0iZXZlbm9kZCIgZmlsbC1ydWxlPSJldmVub2RkIi8+JiN4YTs8cGF0aCBmaWxsPSJ1cmwoI3BhaW50Ml9saW5lYXJfMzUxNF80MDIwNSkiIGQ9Ik04LjQ4OTk0IDguNTkxMjlDOC40MjMwOCA4LjY1ODE1IDguMzg5NjUgOC43NDUwNyA4LjM4OTY1IDguODUyMDVDOC4zODk2NSA4Ljk1OTAzIDguNDIzMDggOS4wNDU5NSA4LjQ4OTk0IDkuMTEyODFDOC41NTY4MSA5LjE3OTY4IDguNjQzNzMgOS4yMTMxMSA4Ljc1MDcxIDkuMjEzMTFMOS42NjMzOCA5LjIwMzA4TDkuNjYzMzggOS41MjQwMkw4Ljc1MDcxIDkuNTEzOTlDOC42NDM3MyA5LjUxMzk5IDguNTU2ODEgOS41NDc0MiA4LjQ4OTk0IDkuNjE0MjhDOC40MjMwOCA5LjY4MTE1IDguMzg5NjUgOS43NjgwNyA4LjM4OTY1IDkuODc1MDVDOC4zODk2NSA5Ljk4MjAzIDguNDIzMDggMTAuMDY4OSA4LjQ4OTk0IDEwLjEzNThDOC41NTY4MSAxMC4yMDI3IDguNjQzNzMgMTAuMjM2MSA4Ljc1MDcxIDEwLjIzNjFMOS42NjMzOCAxMC4yMjYxVjEwLjY0NzNDOS42NjMzOCAxMC43NDA5IDkuNjk2ODEgMTAuODIxMiA5Ljc2MzY3IDEwLjg4OEM5LjgzNzIyIDEwLjk2MTYgOS45MjA4IDEwLjk5ODMgMTAuMDE0NCAxMC45OTgzSDEwLjQ3NThDMTAuODYzNiAxMC45OTgzIDExLjE5NDUgMTAuODc0NiAxMS40Njg3IDEwLjYyNzNDMTEuNzQyOCAxMC4zNzk5IDExLjg5OTkgMTAuMDY4OSAxMS45NCA5LjY5NDUyTDEyLjg0MTMgOS42OTQ1MUMxMi45NDgzIDkuNjk0NTEgMTMuMDM1MiA5LjY2MTA4IDEzLjEwMjEgOS41OTQyMUMxMy4xNjIzIDkuNTM0MDQgMTMuMTkyNCA5LjQ1MDQ2IDEzLjE5MjQgOS4zNDM0OEMxMy4xOTI0IDkuMjM2NSAxMy4xNTg5IDkuMTQ5NTggMTMuMDkyMSA5LjA4MjcyQzEzLjAyNTIgOS4wMTU4NSAxMi45MzgzIDguOTgyNDIgMTIuODMxMyA4Ljk4MjQyTDExLjkzIDguOTgyNDNDMTEuODc2NSA4LjYyMTM3IDExLjcxNjEgOC4zMjA0OSAxMS40NDg2IDguMDc5NzlDMTEuMTg3OCA3Ljg0NTc3IDEwLjg2MzYgNy43Mjg3NiAxMC40NzU4IDcuNzI4NzZMMTAuMDI0NCA3LjczODc5QzkuOTI0MTQgNy43MzIxIDkuODM3MjIgNy43NjU1MyA5Ljc2MzY3IDcuODM5MDhDOS42OTY4MSA3LjkwNTk1IDkuNjYzMzggNy45OTI4NyA5LjY2MzM4IDguMDk5ODVMOS42NjMzOCA4LjUwMTAyTDguNzQwNjggOC41MDEwMkM4LjYzMzcgOC41MDEwMiA4LjU1MDEyIDguNTMxMTEgOC40ODk5NCA4LjU5MTI5WiIvPiYjeGE7PHBhdGggZmlsbD0idXJsKCNwYWludDNfbGluZWFyXzM1MTRfNDAyMDUpIiBkPSJNNi41NTQzMSA0Ljg1MTM4VjMuODUzNTJMNC43OTY4OCA1LjYxMDk1SDUuNzk0NzRDNi4wMDMyNSA1LjYxMDk1IDYuMTgxOTcgNS41MzY0OCA2LjMzMDkxIDUuMzg3NTVDNi40Nzk4NCA1LjIzODYxIDYuNTU0MzEgNS4wNTk4OSA2LjU1NDMxIDQuODUxMzhaIi8+JiN4YTs8L2c+JiN4YTs8ZGVmcz4mI3hhOzxsaW5lYXJHcmFkaWVudCBncmFkaWVudFVuaXRzPSJ1c2VyU3BhY2VPblVzZSIgeTI9IjE0Ljc0NyIgeDI9IjEzLjY4NjQiIHkxPSIyLjI3MDE2IiB4MT0iMS40NDk0NiIgaWQ9InBhaW50MF9saW5lYXJfMzUxNF80MDIwNSI+JiN4YTs8c3RvcCBzdG9wLWNvbG9yPSJ3aGl0ZSIvPiYjeGE7PHN0b3Agc3RvcC1jb2xvcj0iI0VBRUNFRSIgb2Zmc2V0PSIxIi8+JiN4YTs8L2xpbmVhckdyYWRpZW50PiYjeGE7PGxpbmVhckdyYWRpZW50IGdyYWRpZW50VW5pdHM9InVzZXJTcGFjZU9uVXNlIiB5Mj0iOS4wOTUyMSIgeDI9IjExLjIxMDciIHkxPSI0LjU2MDA2IiB4MT0iNS4xNzA4NiIgaWQ9InBhaW50MV9saW5lYXJfMzUxNF80MDIwNSI+JiN4YTs8c3RvcCBzdG9wLWNvbG9yPSIjMDE5NUZGIi8+JiN4YTs8c3RvcCBzdG9wLWNvbG9yPSIjMTE0N0U5IiBvZmZzZXQ9IjAuOTkxMDI4Ii8+JiN4YTs8L2xpbmVhckdyYWRpZW50PiYjeGE7PGxpbmVhckdyYWRpZW50IGdyYWRpZW50VW5pdHM9InVzZXJTcGFjZU9uVXNlIiB5Mj0iMTEuMzQ1NCIgeDI9IjExLjIyNTIiIHkxPSI4LjIwOTc5IiB4MT0iOS4wOTk3IiBpZD0icGFpbnQyX2xpbmVhcl8zNTE0XzQwMjA1Ij4mI3hhOzxzdG9wIHN0b3AtY29sb3I9IiMxMzQ4RkYiLz4mI3hhOzxzdG9wIHN0b3AtY29sb3I9IiMwNjIzOEQiIG9mZnNldD0iMSIvPiYjeGE7PC9saW5lYXJHcmFkaWVudD4mI3hhOzxsaW5lYXJHcmFkaWVudCBncmFkaWVudFVuaXRzPSJ1c2VyU3BhY2VPblVzZSIgeTI9IjUuMzQ3MzEiIHgyPSI2LjI4NjYzIiB5MT0iNC4xMTIwNyIgeDE9IjUuMDU2NyIgaWQ9InBhaW50M19saW5lYXJfMzUxNF80MDIwNSI+JiN4YTs8c3RvcCBzdG9wLWNvbG9yPSIjMTM0OEZGIi8+JiN4YTs8c3RvcCBzdG9wLWNvbG9yPSIjMDYyMzhEIiBvZmZzZXQ9IjEiLz4mI3hhOzwvbGluZWFyR3JhZGllbnQ+JiN4YTs8Y2xpcFBhdGggaWQ9ImNsaXAwXzM1MTRfNDAyMDUiPiYjeGE7PHJlY3QgdHJhbnNmb3JtPSJ0cmFuc2xhdGUoNC4xOTg0OSAzLjE5OTIyKSIgZmlsbD0id2hpdGUiIGhlaWdodD0iOSIgd2lkdGg9IjkiLz4mI3hhOzwvY2xpcFBhdGg+JiN4YTs8L2RlZnM+JiN4YTs8L3N2Zz4=;points=[[0,0,0,0,0],[0,0.25,0,0,0],[0,0.5,0,0,0],[0,0.75,0,0,0],[0.25,0,0,0,0],[0.5,0,0,0,0],[0.75,0,0,0,0],[1,0,0,0,0],[1,0.25,0,0,0],[1,0.5,0,0,0],[1,0.75,0,0,0]];fontStyle=0;fontSize=12;fontColor=#1D2D3E;container=0;" parent="BOSDDkHsfuaanqrSLqfU-1" vertex="1">
          <mxGeometry x="408" y="138" width="32" height="32" as="geometry" />
        </mxCell>
        <mxCell id="AwDqF75WFMz0tKlT-34h-1" value="Cloud&#xa;Connector" style="shape=image;verticalLabelPosition=middle;labelBackgroundColor=default;verticalAlign=middle;aspect=fixed;imageAspect=0;image=data:image/svg+xml,PHN2ZyB4bWxucz0iaHR0cDovL3d3dy53My5vcmcvMjAwMC9zdmciIGZpbGw9Im5vbmUiIHZpZXdCb3g9IjAgMCAxNiAxNiIgaGVpZ2h0PSIxNiIgd2lkdGg9IjE2Ij4mI3hhOzxjaXJjbGUgc3Ryb2tlLXdpZHRoPSIwLjI4NTcwOCIgc3Ryb2tlPSIjRDVEQUREIiBmaWxsPSJ1cmwoI3BhaW50MF9saW5lYXJfMzg5MF8yMTUzNSkiIHI9IjcuODU2OTYiIGN5PSI3Ljk5NzM4IiBjeD0iNy45OTczOCIvPiYjeGE7PGcgY2xpcC1wYXRoPSJ1cmwoI2NsaXAwXzM4OTBfMjE1MzUpIj4mI3hhOzxwYXRoIGZpbGw9InVybCgjcGFpbnQxX2xpbmVhcl8zODkwXzIxNTM1KSIgZD0iTTcuODc5MTggOC42NDM4MUM3Ljk2MzM1IDguNjIxNDkgOC4wNDEzMyA4LjU3NDQ0IDguMTEzMTIgOC41MDI2NUM4LjIxNzI5IDguMzk4NDggOC4yNjkzNyA4LjI4MTI5IDguMjY5MzcgOC4xNTEwOEM4LjI2OTM3IDguMDIwODggOC4yMTcyOSA3LjkwMzY5IDguMTEzMTIgNy43OTk1Mkw3LjIxNDY5IDYuOTIwNjJMNy41MjcxOSA2LjYwODEyTDguNDA2MDkgNy41MDY1NkM4LjUxMDI2IDcuNjEwNzIgOC42Mjc0NSA3LjY2MjgxIDguNzU3NjYgNy42NjI4MUM4Ljg4Nzg2IDcuNjYyODEgOS4wMDUwNSA3LjYxMDcyIDkuMTA5MjIgNy41MDY1NkM5LjIxMzM5IDcuNDAyMzkgOS4yNjU0NyA3LjI4NTIgOS4yNjU0NyA3LjE1NDk5QzkuMjY1NDcgNy4wMjQ3OSA5LjIxMzM5IDYuOTA3NiA5LjEwOTIyIDYuODAzNDNMOC4yMTA3OCA1LjkyNDUzTDguNjIwOTQgNS41MTQzOEM4LjcxMjA4IDUuNDIzMjMgOC43NTc2NiA1LjMxMjU1IDguNzU3NjYgNS4xODIzNUM4Ljc1NzY2IDUuMDM5MTIgOC43MTIwOCA0LjkyMTkzIDguNjIwOTQgNC44MzA3OUw4LjE3MTcyIDQuMzgxNTdDNy43OTQxMSA0LjAwMzk3IDcuMzUxNCAzLjgwMjE0IDYuODQzNTkgMy43NzYxQzYuMzM1NzggMy43NTAwNiA1Ljg4MDA1IDMuODk5OCA1LjQ3NjQgNC4yMjUzMkw0LjIzNzMxIDIuOTUzODZDNC4xMzMxNCAyLjg0OTY5IDQuMDE1OTUgMi43OTc2MSAzLjg4NTc0IDIuNzk3NjFDMy43Njg1NSAyLjc5NzYxIDMuNjU3ODggMi44NDk2OSAzLjU1MzcxIDIuOTUzODZDMy40NDk1NCAzLjA1ODAyIDMuMzk3NDYgMy4xNzUyMSAzLjM5NzQ2IDMuMzA1NDJDMy4zOTc0NiAzLjQzNTYzIDMuNDQ5NTQgMy41NTI4MSAzLjU1MzcxIDMuNjU2OThMNC43OTI4MSA0LjkyODQ0QzQuNDkzMzMgNS4zMzIwOSA0LjM1NjYxIDUuNzgxMyA0LjM4MjY1IDYuMjc2MDlDNC40MDg2OSA2Ljc1Nzg2IDQuNjEwNTIgNy4xODc1NSA0Ljk4ODEyIDcuNTY1MTVMNS4zNTkyMSA3LjkyMDFDNS41ODIzNyA3Ljg1Mzg1IDUuODEzMjMgNy44MjAxOSA2LjA0ODk4IDcuODIwMTlDNi41NjI2OCA3LjgyMDE5IDcuMDM3OSA3Ljk3OTkzIDcuNDUyNTQgOC4yNzEzQzcuNjA5ODYgOC4zODE4NSA3Ljc1MjAzIDguNTA2NTQgNy44NzkxOCA4LjY0MzgxWiIvPiYjeGE7PHBhdGggZmlsbD0idXJsKCNwYWludDJfbGluZWFyXzM4OTBfMjE1MzUpIiBkPSJNMTMuMzY2MiAxMi4yNTA3QzEzLjM2NjIgMTIuMTMzNSAxMy4zMTQyIDEyLjAyMjggMTMuMjEgMTEuOTE4N0wxMS44MjMzIDEwLjUxMjRDMTIuMTQ4OCAxMC4xMjE4IDEyLjI5ODUgOS42ODU2MiAxMi4yNzI1IDkuMjAzODVDMTIuMjU5NSA4LjcwOTA2IDEyLjA2NDIgOC4yNzI4NiAxMS42ODY2IDcuODk1MjZMMTEuMjM3MyA3LjQ0NjA0QzExLjEzMzIgNy4zNDE4OCAxMS4wMTYgNy4yODk3OSAxMC44ODU4IDcuMjg5NzlDMTAuNzU1NiA3LjI4OTc5IDEwLjYzODQgNy4zNDE4OCAxMC41MzQyIDcuNDQ2MDRMOC43MTYzMSA5LjI2Mzk2QzguODY2NjcgOS4zNzc0NSA5LjAwMTk4IDkuNTA4OTIgOS4xMjEzMiA5LjY1NjVDOS4zMDkyIDkuODgyMDIgOS40NTAxMSAxMC4xMzU3IDkuNTQ4MTUgMTAuNDA4QzkuNjUyODMgMTAuNjk4OCA5LjcwMDQ4IDExLjAwMDkgOS43MDA0OCAxMS4zMDZDOS43MDA0OCAxMS40NDM4IDkuNjkwNTMgMTEuNTgwNiA5LjY3MDMgMTEuNzE1N0M5LjcwNDA3IDExLjcxOSA5LjczODE0IDExLjcyMTYgOS43NzI1MSAxMS43MjM0QzEwLjI4MDMgMTEuNzM2NCAxMC43MzYgMTEuNTY3MSAxMS4xMzk3IDExLjIxNTZMMTIuNTI2NCAxMi42MDIzQzEyLjYzMDYgMTIuNzA2NCAxMi43NDEyIDEyLjc1ODUgMTIuODU4NCAxMi43NTg1QzEyLjk4ODYgMTIuNzU4NSAxMy4xMDU4IDEyLjcwNjQgMTMuMjEgMTIuNjAyM0MxMy4zMTQyIDEyLjQ5ODEgMTMuMzY2MiAxMi4zODA5IDEzLjM2NjIgMTIuMjUwN1oiLz4mI3hhOzxwYXRoIGZpbGw9InVybCgjcGFpbnQzX2xpbmVhcl8zODkwXzIxNTM1KSIgZD0iTTQuNTI2NDUgMTIuNzk3N0g3LjM1NDExQzcuNTQwNTUgMTIuNzk3NyA3LjcxNjYzIDEyLjc1OTcgNy44ODIzNSAxMi42ODM3QzguMDQ4MDggMTIuNjA3OCA4LjE4OTYzIDEyLjUwNDIgOC4zMDcwMiAxMi4zNzNDOC40MzEzMSAxMi4yMzQ5IDguNTI3OTkgMTIuMDc2MSA4LjU5NzA0IDExLjg5NjZDOC42NjYwOSAxMS43MTAxIDguNzAwNjEgMTEuNTEzMyA4LjcwMDYxIDExLjMwNjJDOC43MDA2MSAxMS4xMDU5IDguNjY5NTQgMTAuOTE5NSA4LjYwNzQgMTAuNzQ2OEM4LjU0NTI1IDEwLjU3NDIgOC40NTg5MyAxMC40MjIzIDguMzQ4NDUgMTAuMjkxMUM4LjIzNzk3IDEwLjE1MyA4LjEwNjc3IDEwLjA0MjUgNy45NTQ4NiA5Ljk1OTY2QzcuODAyOTUgOS44NzY4IDcuNjQwNjcgOS44Mjg0NiA3LjQ2ODA1IDkuODE0NjVDNy4zMjk5NCA5LjUxMDgzIDcuMTMzMTUgOS4yNjkxNSA2Ljg3NzY2IDkuMDg5NjFDNi42MjIxNyA4LjkxMDA4IDYuMzQ1OTYgOC44MjAzMSA2LjA0OTA0IDguODIwMzFDNS44NTU2OSA4LjgyMDMxIDUuNjY5MjUgOC44NTgyOSA1LjQ4OTcyIDguOTM0MjVDNS4zMTcwOSA5LjAxMDIgNS4xNjE3MyA5LjExMzc4IDUuMDIzNjIgOS4yNDQ5OEM0Ljg4NTUyIDkuMzc2MTggNC43NzE1OSA5LjUzNSA0LjY4MTgyIDkuNzIxNDNDNC41OTIwNSA5LjkwMDk3IDQuNTI5OTEgMTAuMDk0MyA0LjQ5NTM4IDEwLjMwMTVDNC4zNDM0NyAxMC4zMDE1IDQuMTk4NDYgMTAuMzM2IDQuMDYwMzYgMTAuNDA1QzMuOTI5MTYgMTAuNDY3MiAzLjgxNTIyIDEwLjU1NyAzLjcxODU1IDEwLjY3NDNDMy42MjE4OCAxMC43ODQ4IDMuNTQyNDcgMTAuOTE2IDMuNDgwMzIgMTEuMDY3OUMzLjQyNTA4IDExLjIxOTkgMy4zOTc0NiAxMS4zNzg3IDMuMzk3NDYgMTEuNTQ0NEMzLjM5NzQ2IDExLjcxNyAzLjQyNTA4IDExLjg3OTMgMy40ODAzMiAxMi4wMzEyQzMuNTQyNDcgMTIuMTgzMSAzLjYyNTMzIDEyLjMxNzggMy43Mjg5MSAxMi40MzUyQzMuODMyNDkgMTIuNTQ1NiAzLjk1MzMzIDEyLjYzNTQgNC4wOTE0MyAxMi43MDQ1QzQuMjI5NTMgMTIuNzY2NiA0LjM3NDU0IDEyLjc5NzcgNC41MjY0NSAxMi43OTc3WiIvPiYjeGE7PC9nPiYjeGE7PGRlZnM+JiN4YTs8bGluZWFyR3JhZGllbnQgZ3JhZGllbnRVbml0cz0idXNlclNwYWNlT25Vc2UiIHkyPSIxNC43NDUzIiB4Mj0iMTMuNjg1NCIgeTE9IjIuMjY4NDUiIHgxPSIxLjQ0ODQ4IiBpZD0icGFpbnQwX2xpbmVhcl8zODkwXzIxNTM1Ij4mI3hhOzxzdG9wIHN0b3AtY29sb3I9IndoaXRlIi8+JiN4YTs8c3RvcCBzdG9wLWNvbG9yPSIjRUFFQ0VFIiBvZmZzZXQ9IjEiLz4mI3hhOzwvbGluZWFyR3JhZGllbnQ+JiN4YTs8bGluZWFyR3JhZGllbnQgZ3JhZGllbnRVbml0cz0idXNlclNwYWNlT25Vc2UiIHkyPSI3Ljc4MjAyIiB4Mj0iOC4zNzA1NSIgeTE9IjMuNjcxODciIHgxPSI0LjI3NzEiIGlkPSJwYWludDFfbGluZWFyXzM4OTBfMjE1MzUiPiYjeGE7PHN0b3Agc3RvcC1jb2xvcj0iIzAxOTVGRiIvPiYjeGE7PHN0b3Agc3RvcC1jb2xvcj0iIzExNDdFOSIgb2Zmc2V0PSIwLjk5MTAyOCIvPiYjeGE7PC9saW5lYXJHcmFkaWVudD4mI3hhOzxsaW5lYXJHcmFkaWVudCBncmFkaWVudFVuaXRzPSJ1c2VyU3BhY2VPblVzZSIgeTI9IjExLjMyMjQiIHgyPSIxMy4xOTI5IiB5MT0iOC4xMDc2MSIgeDE9IjkuNDEzMzUiIGlkPSJwYWludDJfbGluZWFyXzM4OTBfMjE1MzUiPiYjeGE7PHN0b3Agc3RvcC1jb2xvcj0iIzAxOTVGRiIvPiYjeGE7PHN0b3Agc3RvcC1jb2xvcj0iIzExNDdFOSIgb2Zmc2V0PSIwLjk5MTAyOCIvPiYjeGE7PC9saW5lYXJHcmFkaWVudD4mI3hhOzxsaW5lYXJHcmFkaWVudCBncmFkaWVudFVuaXRzPSJ1c2VyU3BhY2VPblVzZSIgeTI9IjEyLjk3OTQiIHgyPSI2Ljg1MDQ4IiB5MT0iOS40MDU0NyIgeDE9IjQuMTgxNSIgaWQ9InBhaW50M19saW5lYXJfMzg5MF8yMTUzNSI+JiN4YTs8c3RvcCBzdG9wLWNvbG9yPSIjMTM0OEZGIi8+JiN4YTs8c3RvcCBzdG9wLWNvbG9yPSIjMDYyMzhEIiBvZmZzZXQ9IjEiLz4mI3hhOzwvbGluZWFyR3JhZGllbnQ+JiN4YTs8Y2xpcFBhdGggaWQ9ImNsaXAwXzM4OTBfMjE1MzUiPiYjeGE7PHJlY3QgdHJhbnNmb3JtPSJ0cmFuc2xhdGUoMy4zOTc0NiAyLjc5NzYxKSIgZmlsbD0id2hpdGUiIGhlaWdodD0iMTAiIHdpZHRoPSIxMCIvPiYjeGE7PC9jbGlwUGF0aD4mI3hhOzwvZGVmcz4mI3hhOzwvc3ZnPg==;fontStyle=0;fontSize=12;fontColor=#1D2D3E;labelPosition=right;align=left;" parent="BOSDDkHsfuaanqrSLqfU-1" vertex="1">
          <mxGeometry x="809.8900000000001" y="107.81999999999994" width="32" height="32" as="geometry" />
        </mxCell>
      </root>
    </mxGraphModel>
  </diagram>
</mxfile>
